<?xml version="1.0" encoding="utf-8"?>
<!-- Generator: Adobe Illustrator 21.0.0, SVG Export Plug-In . SVG Version: 6.00 Build 0)  -->
<svg version="1.1" id="Layer_1" xmlns="http://www.w3.org/2000/svg" xmlns:xlink="http://www.w3.org/1999/xlink" x="0px" y="0px"
	 viewBox="0 0 26 26.1" style="enable-background:new 0 0 26 26.1;" xml:space="preserve">
<style type="text/css">
	.st0{fill-rule:evenodd;clip-rule:evenodd;fill:url(#SVGID_1_);}
</style>
<linearGradient id="SVGID_1_" gradientUnits="userSpaceOnUse" x1="-67.378" y1="13.0277" x2="24.1803" y2="13.0277">
	<stop  offset="0" style="stop-color:#0090FF"/>
	<stop  offset="0.9995" style="stop-color:#F70544"/>
</linearGradient>
<path class="st0" d="M-67.4,8.4v9.2c0,3.8,3.1,6.9,6.9,6.9h9.2c3.8,0,6.9-3.1,6.9-6.9V8.4c0-3.8-3.1-6.9-6.9-6.9h-9.2
	C-64.3,1.5-67.4,4.6-67.4,8.4z M-50.1,14.3c0.5,0.5,1.1,1,1.6,1.6c0.2,0.3,0.4,0.5,0.6,0.8c0.2,0.4,0,0.9-0.4,0.9l-2.3,0
	c-0.6,0-1.1-0.2-1.5-0.6c-0.3-0.3-0.6-0.7-0.9-1c-0.1-0.1-0.3-0.3-0.4-0.4c-0.3-0.2-0.6-0.1-0.8,0.2c-0.2,0.3-0.2,0.7-0.2,1.1
	c0,0.5-0.2,0.7-0.7,0.7c-1.2,0.1-2.3-0.1-3.3-0.7c-0.9-0.5-1.6-1.3-2.2-2.1c-1.2-1.6-2.1-3.4-2.9-5.2c-0.2-0.4-0.1-0.6,0.4-0.6
	c0.8,0,1.5,0,2.3,0c0.3,0,0.5,0.2,0.6,0.5c0.4,1,0.9,2,1.5,2.9c0.2,0.2,0.3,0.5,0.6,0.6c0.3,0.2,0.5,0.1,0.6-0.2
	c0.1-0.2,0.1-0.4,0.1-0.6c0.1-0.7,0.1-1.4,0-2.1c-0.1-0.4-0.3-0.7-0.7-0.8c-0.2,0-0.2-0.1-0.1-0.3c0.2-0.2,0.4-0.4,0.7-0.4h2.6
	c0.4,0.1,0.5,0.3,0.6,0.7l0,2.9c0,0.2,0.1,0.6,0.4,0.7c0.2,0.1,0.4-0.1,0.5-0.3c0.6-0.7,1.1-1.5,1.5-2.3c0.2-0.4,0.3-0.7,0.5-1.1
	c0.1-0.3,0.3-0.4,0.6-0.4l2.5,0c0.1,0,0.2,0,0.2,0c0.4,0.1,0.5,0.3,0.4,0.7c-0.2,0.7-0.6,1.2-1,1.7c-0.4,0.6-0.9,1.1-1.3,1.7
	C-50.6,13.5-50.6,13.8-50.1,14.3L-50.1,14.3z M-50.1,14.3 M-16.9,6.8h-7.9c-1.3,0-2.3,1-2.3,2.3V17c0,1.3,1,2.3,2.3,2.3h7.9
	c1.3,0,2.3-1,2.3-2.3V9.1C-14.6,7.8-15.7,6.8-16.9,6.8L-16.9,6.8z M-20.9,17.1c-2.3,0-4.1-1.8-4.1-4.1c0-2.3,1.8-4.1,4.1-4.1
	c2.3,0,4.1,1.8,4.1,4.1C-16.8,15.3-18.6,17.1-20.9,17.1L-20.9,17.1z M-16.6,9.8c-0.5,0-1-0.4-1-1c0-0.5,0.4-1,1-1c0.5,0,1,0.4,1,1
	C-15.7,9.3-16.1,9.8-16.6,9.8L-16.6,9.8z M-16.6,9.8 M-20.9,10.7c-1.3,0-2.4,1.1-2.4,2.4c0,1.3,1.1,2.4,2.4,2.4
	c1.3,0,2.4-1.1,2.4-2.4C-18.5,11.7-19.6,10.7-20.9,10.7L-20.9,10.7z M-20.9,10.7 M-32.4,8.4v9.2c0,3.8,3.1,6.9,6.9,6.9h9.2
	c3.8,0,6.9-3.1,6.9-6.9V8.4c0-3.8-3.1-6.9-6.9-6.9h-9.2C-29.3,1.5-32.4,4.6-32.4,8.4z M-12.9,17c0,2.2-1.8,4-4,4h-7.9
	c-2.2,0-4-1.8-4-4V9.1c0-2.2,1.8-4,4-4h7.9c2.2,0,4,1.8,4,4V17z M-12.9,17 M1.4,8.5v9c0,3.8,3.1,6.9,6.9,6.9h9
	c3.8,0,6.9-3.1,6.9-6.9v-9c0-3.8-3.1-6.9-6.9-6.9h-9C4.5,1.6,1.4,4.7,1.4,8.5z M16.5,7.9h-1.8c-0.4,0-0.7,0.4-0.7,0.6v1.8h2.5
	c-0.1,1.4-0.3,2.7-0.3,2.7H14v7.9h-3.3V13H9.1v-2.7h1.6V8.2c0-0.4-0.1-3.1,3.4-3.1h2.4V7.9z M16.5,7.9"/>
</svg>
