<svg xmlns="http://www.w3.org/2000/svg" xmlns:xlink="http://www.w3.org/1999/xlink" viewBox="0 0 125.74 69.38"><defs><style>.cls-1{fill:url(#linear-gradient);}.cls-2{fill:url(#linear-gradient-2);}.cls-3{fill:#2a13b7;}.cls-4{fill:url(#linear-gradient-3);}.cls-18,.cls-19,.cls-22,.cls-23,.cls-5,.cls-88{opacity:0.5;}.cls-5{fill:url(#linear-gradient-4);}.cls-6{fill:url(#linear-gradient-5);}.cls-7{fill:#4305d1;}.cls-8{fill:url(#linear-gradient-6);}.cls-9{fill:url(#linear-gradient-7);}.cls-10{fill:#0050ff;}.cls-11{fill:url(#linear-gradient-8);}.cls-12{fill:url(#linear-gradient-9);}.cls-13{fill:#85b1ff;}.cls-14{fill:url(#linear-gradient-10);}.cls-15{fill:url(#linear-gradient-11);}.cls-16{fill:url(#linear-gradient-12);}.cls-17{fill:#d3d3d3;}.cls-18{fill:url(#linear-gradient-13);}.cls-19{fill:url(#linear-gradient-14);}.cls-20{fill:url(#linear-gradient-15);}.cls-21{fill:#a0a0a0;}.cls-22{fill:url(#linear-gradient-16);}.cls-23{fill:url(#linear-gradient-17);}.cls-24{fill:url(#linear-gradient-18);}.cls-25{fill:url(#linear-gradient-19);}.cls-26{fill:url(#linear-gradient-20);}.cls-27{fill:url(#linear-gradient-21);}.cls-28{fill:url(#linear-gradient-22);}.cls-29{fill:url(#linear-gradient-23);}.cls-30{fill:url(#linear-gradient-44);}.cls-31{fill:url(#linear-gradient-45);}.cls-32{fill:url(#linear-gradient-46);}.cls-33{fill:url(#linear-gradient-47);}.cls-34{fill:url(#linear-gradient-48);}.cls-35{fill:url(#linear-gradient-49);}.cls-36{fill:url(#linear-gradient-50);}.cls-37{fill:url(#linear-gradient-51);}.cls-38{fill:url(#linear-gradient-52);}.cls-39{fill:url(#linear-gradient-53);}.cls-40{fill:url(#linear-gradient-54);}.cls-41{fill:url(#linear-gradient-55);}.cls-42{fill:url(#linear-gradient-56);}.cls-43{fill:url(#linear-gradient-57);}.cls-44{fill:url(#linear-gradient-58);}.cls-45{fill:url(#linear-gradient-59);}.cls-46{fill:url(#linear-gradient-60);}.cls-47{fill:url(#linear-gradient-61);}.cls-48{fill:url(#linear-gradient-62);}.cls-49{fill:url(#linear-gradient-63);}.cls-50{fill:url(#linear-gradient-64);}.cls-51{fill:url(#linear-gradient-65);}.cls-52{fill:url(#linear-gradient-66);}.cls-53{fill:url(#linear-gradient-67);}.cls-54{fill:url(#linear-gradient-68);}.cls-55{fill:url(#linear-gradient-69);}.cls-56{fill:url(#linear-gradient-70);}.cls-57{fill:url(#linear-gradient-71);}.cls-58{fill:url(#linear-gradient-72);}.cls-59{fill:url(#linear-gradient-73);}.cls-60{fill:url(#linear-gradient-74);}.cls-61{fill:url(#linear-gradient-75);}.cls-62{fill:url(#linear-gradient-76);}.cls-63{fill:url(#linear-gradient-77);}.cls-64{fill:url(#linear-gradient-78);}.cls-65{fill:url(#linear-gradient-79);}.cls-66{fill:url(#linear-gradient-80);}.cls-67{fill:url(#linear-gradient-81);}.cls-68{fill:url(#linear-gradient-82);}.cls-69{fill:url(#linear-gradient-83);}.cls-70{fill:url(#linear-gradient-84);}.cls-71{fill:url(#linear-gradient-85);}.cls-72{fill:url(#linear-gradient-86);}.cls-73{fill:url(#linear-gradient-87);}.cls-74{fill:url(#linear-gradient-88);}.cls-75{fill:url(#linear-gradient-89);}.cls-76{fill:url(#linear-gradient-90);}.cls-77{fill:url(#linear-gradient-91);}.cls-78{fill:url(#linear-gradient-92);}.cls-79{fill:url(#linear-gradient-93);}.cls-80{fill:url(#linear-gradient-94);}.cls-81{fill:url(#linear-gradient-95);}.cls-82{fill:url(#linear-gradient-96);}.cls-83{fill:url(#linear-gradient-97);}.cls-84{fill:url(#linear-gradient-98);}.cls-85{fill:url(#linear-gradient-99);}.cls-86{fill:url(#linear-gradient-100);}.cls-87{fill:url(#linear-gradient-101);}.cls-89{fill:url(#linear-gradient-102);}.cls-90{fill:url(#linear-gradient-103);}.cls-91{fill:url(#linear-gradient-104);}.cls-92{fill:url(#linear-gradient-105);}.cls-93{fill:url(#linear-gradient-106);}.cls-94{fill:url(#linear-gradient-107);}.cls-95{fill:url(#linear-gradient-108);}.cls-96{fill:url(#linear-gradient-109);}.cls-97{fill:url(#linear-gradient-110);}.cls-98{fill:url(#linear-gradient-111);}.cls-99{fill:url(#linear-gradient-112);}.cls-100{fill:url(#linear-gradient-113);}.cls-101{fill:url(#linear-gradient-114);}.cls-102{fill:url(#linear-gradient-115);}.cls-103{fill:url(#linear-gradient-116);}.cls-104{fill:url(#linear-gradient-117);}.cls-105{fill:url(#linear-gradient-118);}.cls-106{fill:url(#linear-gradient-119);}.cls-107{fill:url(#linear-gradient-120);}.cls-108{fill:url(#linear-gradient-121);}.cls-109{fill:url(#linear-gradient-122);}.cls-110{fill:url(#linear-gradient-123);}.cls-111{fill:url(#linear-gradient-124);}.cls-112{fill:url(#linear-gradient-125);}.cls-113{fill:url(#linear-gradient-126);}.cls-114{fill:url(#linear-gradient-127);}.cls-115{fill:url(#linear-gradient-128);}.cls-116{fill:url(#linear-gradient-129);}.cls-117{fill:url(#linear-gradient-130);}.cls-118{fill:url(#linear-gradient-131);}.cls-119{fill:url(#linear-gradient-132);}.cls-120{fill:url(#linear-gradient-133);}.cls-121{fill:url(#linear-gradient-134);}.cls-122{fill:url(#linear-gradient-135);}.cls-123{fill:url(#linear-gradient-136);}.cls-124{fill:url(#linear-gradient-137);}.cls-125{fill:url(#linear-gradient-138);}.cls-126{fill:url(#linear-gradient-139);}.cls-127{fill:url(#linear-gradient-140);}.cls-128{fill:url(#linear-gradient-141);}.cls-129{fill:url(#linear-gradient-142);}.cls-130{fill:url(#linear-gradient-143);}.cls-131{fill:url(#linear-gradient-144);}.cls-132{fill:url(#linear-gradient-145);}.cls-133{fill:url(#linear-gradient-146);}.cls-134{fill:url(#linear-gradient-147);}.cls-135{fill:url(#linear-gradient-148);}.cls-136{fill:url(#linear-gradient-149);}.cls-137{fill:url(#linear-gradient-150);}.cls-138{fill:url(#linear-gradient-151);}.cls-139{fill:url(#linear-gradient-152);}</style><linearGradient id="linear-gradient" x1="113.63" y1="6.84" x2="18.88" y2="65.34" gradientUnits="userSpaceOnUse"><stop offset="0" stop-color="#2a13b7" stop-opacity="0"/><stop offset="0.46" stop-color="#5c18d8" stop-opacity="0.46"/><stop offset="1" stop-color="#961dff"/></linearGradient><linearGradient id="linear-gradient-2" x1="47.39" y1="63.17" x2="36.06" y2="44.67" gradientUnits="userSpaceOnUse"><stop offset="0" stop-color="#961dff"/><stop offset="1" stop-color="#2a13b7"/></linearGradient><linearGradient id="linear-gradient-3" x1="72.52" y1="24.17" x2="12.3" y2="57.57" gradientUnits="userSpaceOnUse"><stop offset="0" stop-color="#0050ff"/><stop offset="1" stop-color="#3e84ff"/></linearGradient><linearGradient id="linear-gradient-4" x1="8.13" y1="53.25" x2="17.96" y2="53.59" gradientUnits="userSpaceOnUse"><stop offset="0" stop-color="#201451" stop-opacity="0"/><stop offset="0.74" stop-color="#201451"/></linearGradient><linearGradient id="linear-gradient-5" x1="16.6" y1="47.41" x2="21.94" y2="47.41" xlink:href="#linear-gradient-3"/><linearGradient id="linear-gradient-6" x1="21.52" y1="50.89" x2="20.01" y2="53.55" gradientUnits="userSpaceOnUse"><stop offset="0" stop-color="#961dff"/><stop offset="1" stop-color="#5617d5"/></linearGradient><linearGradient id="linear-gradient-7" x1="20.39" y1="49.21" x2="17.68" y2="56.4" xlink:href="#linear-gradient-6"/><linearGradient id="linear-gradient-8" x1="13.05" y1="49.46" x2="18.39" y2="49.46" xlink:href="#linear-gradient-3"/><linearGradient id="linear-gradient-9" x1="18.08" y1="52.07" x2="17.56" y2="55.69" xlink:href="#linear-gradient-6"/><linearGradient id="linear-gradient-10" x1="5.62" y1="59.86" x2="1.28" y2="62.75" xlink:href="#linear-gradient-3"/><linearGradient id="linear-gradient-11" x1="24.21" y1="41.45" x2="19.69" y2="44.46" xlink:href="#linear-gradient-3"/><linearGradient id="linear-gradient-12" x1="39.1" y1="44.33" x2="33.34" y2="48.17" xlink:href="#linear-gradient-3"/><linearGradient id="linear-gradient-13" x1="56.59" y1="12.33" x2="58.66" y2="7.62" gradientUnits="userSpaceOnUse"><stop offset="0" stop-color="#201451" stop-opacity="0"/><stop offset="0.3" stop-color="#201451"/></linearGradient><linearGradient id="linear-gradient-14" x1="57.9" y1="11.26" x2="60.16" y2="11.26" xlink:href="#linear-gradient-13"/><linearGradient id="linear-gradient-15" x1="57.9" y1="16.16" x2="61.55" y2="16.16" xlink:href="#linear-gradient-6"/><linearGradient id="linear-gradient-16" x1="30.71" y1="43.97" x2="43.22" y2="44.41" xlink:href="#linear-gradient-4"/><linearGradient id="linear-gradient-17" x1="25.66" y1="47.46" x2="37.85" y2="47.88" xlink:href="#linear-gradient-4"/><linearGradient id="linear-gradient-18" x1="48.18" y1="23.35" x2="49.88" y2="23.35" xlink:href="#linear-gradient-3"/><linearGradient id="linear-gradient-19" x1="50.92" y1="24.93" x2="52.61" y2="24.93" xlink:href="#linear-gradient-3"/><linearGradient id="linear-gradient-20" x1="53.66" y1="26.5" x2="55.35" y2="26.5" xlink:href="#linear-gradient-3"/><linearGradient id="linear-gradient-21" x1="56.4" y1="28.08" x2="58.09" y2="28.08" xlink:href="#linear-gradient-3"/><linearGradient id="linear-gradient-22" x1="59.13" y1="29.65" x2="60.83" y2="29.65" xlink:href="#linear-gradient-3"/><linearGradient id="linear-gradient-23" x1="61.87" y1="31.23" x2="63.56" y2="31.23" xlink:href="#linear-gradient-3"/><linearGradient id="linear-gradient-44" x1="-2515.09" y1="31.23" x2="-2513.39" y2="31.23" gradientTransform="matrix(-1, 0, 0, 1, -2449.83, 0)" gradientUnits="userSpaceOnUse"><stop offset="0" stop-color="#3e84ff"/><stop offset="1" stop-color="#0050ff"/></linearGradient><linearGradient id="linear-gradient-45" x1="-2539.65" y1="38.74" x2="-2525.33" y2="38.74" gradientTransform="matrix(-1, 0, 0, 1, -2493.41, 0)" xlink:href="#linear-gradient-3"/><linearGradient id="linear-gradient-46" x1="42.63" y1="44.05" x2="46.24" y2="44.05" xlink:href="#linear-gradient-6"/><linearGradient id="linear-gradient-47" x1="-2536.04" y1="42" x2="-2525.33" y2="42" gradientTransform="matrix(-1, 0, 0, 1, -2493.41, 0)" xlink:href="#linear-gradient-6"/><linearGradient id="linear-gradient-48" x1="-2536.04" y1="44.96" x2="-2535.59" y2="44.96" gradientTransform="matrix(-1, 0, 0, 1, -2493.41, 0)" xlink:href="#linear-gradient-6"/><linearGradient id="linear-gradient-49" x1="-2535.59" y1="44.7" x2="-2535.15" y2="44.7" gradientTransform="matrix(-1, 0, 0, 1, -2493.41, 0)" xlink:href="#linear-gradient-6"/><linearGradient id="linear-gradient-50" x1="-2535.14" y1="44.45" x2="-2534.7" y2="44.45" gradientTransform="matrix(-1, 0, 0, 1, -2493.41, 0)" xlink:href="#linear-gradient-6"/><linearGradient id="linear-gradient-51" x1="-2534.7" y1="44.19" x2="-2534.26" y2="44.19" gradientTransform="matrix(-1, 0, 0, 1, -2493.41, 0)" xlink:href="#linear-gradient-6"/><linearGradient id="linear-gradient-52" x1="-2534.25" y1="43.93" x2="-2533.81" y2="43.93" gradientTransform="matrix(-1, 0, 0, 1, -2493.41, 0)" xlink:href="#linear-gradient-6"/><linearGradient id="linear-gradient-53" x1="-2533.81" y1="43.67" x2="-2533.36" y2="43.67" gradientTransform="matrix(-1, 0, 0, 1, -2493.41, 0)" xlink:href="#linear-gradient-6"/><linearGradient id="linear-gradient-54" x1="-2533.36" y1="43.41" x2="-2532.92" y2="43.41" gradientTransform="matrix(-1, 0, 0, 1, -2493.41, 0)" xlink:href="#linear-gradient-6"/><linearGradient id="linear-gradient-55" x1="-2532.91" y1="43.16" x2="-2532.47" y2="43.16" gradientTransform="matrix(-1, 0, 0, 1, -2493.41, 0)" xlink:href="#linear-gradient-6"/><linearGradient id="linear-gradient-56" x1="-2532.47" y1="42.9" x2="-2532.02" y2="42.9" gradientTransform="matrix(-1, 0, 0, 1, -2493.41, 0)" xlink:href="#linear-gradient-6"/><linearGradient id="linear-gradient-57" x1="-2532.02" y1="42.64" x2="-2531.58" y2="42.64" gradientTransform="matrix(-1, 0, 0, 1, -2493.41, 0)" xlink:href="#linear-gradient-6"/><linearGradient id="linear-gradient-58" x1="-2531.57" y1="42.38" x2="-2531.13" y2="42.38" gradientTransform="matrix(-1, 0, 0, 1, -2493.41, 0)" xlink:href="#linear-gradient-6"/><linearGradient id="linear-gradient-59" x1="-2531.13" y1="42.12" x2="-2530.68" y2="42.12" gradientTransform="matrix(-1, 0, 0, 1, -2493.41, 0)" xlink:href="#linear-gradient-6"/><linearGradient id="linear-gradient-60" x1="-2530.68" y1="41.87" x2="-2530.24" y2="41.87" gradientTransform="matrix(-1, 0, 0, 1, -2493.41, 0)" xlink:href="#linear-gradient-6"/><linearGradient id="linear-gradient-61" x1="-2530.23" y1="41.61" x2="-2529.79" y2="41.61" gradientTransform="matrix(-1, 0, 0, 1, -2493.41, 0)" xlink:href="#linear-gradient-6"/><linearGradient id="linear-gradient-62" x1="-2529.79" y1="41.35" x2="-2529.34" y2="41.35" gradientTransform="matrix(-1, 0, 0, 1, -2493.41, 0)" xlink:href="#linear-gradient-6"/><linearGradient id="linear-gradient-63" x1="-2529.34" y1="41.09" x2="-2528.9" y2="41.09" gradientTransform="matrix(-1, 0, 0, 1, -2493.41, 0)" xlink:href="#linear-gradient-6"/><linearGradient id="linear-gradient-64" x1="-2528.89" y1="40.83" x2="-2528.45" y2="40.83" gradientTransform="matrix(-1, 0, 0, 1, -2493.41, 0)" xlink:href="#linear-gradient-6"/><linearGradient id="linear-gradient-65" x1="-2528.45" y1="40.58" x2="-2528.01" y2="40.58" gradientTransform="matrix(-1, 0, 0, 1, -2493.41, 0)" xlink:href="#linear-gradient-6"/><linearGradient id="linear-gradient-66" x1="-2528" y1="40.32" x2="-2527.56" y2="40.32" gradientTransform="matrix(-1, 0, 0, 1, -2493.41, 0)" xlink:href="#linear-gradient-6"/><linearGradient id="linear-gradient-67" x1="-2527.56" y1="40.06" x2="-2527.11" y2="40.06" gradientTransform="matrix(-1, 0, 0, 1, -2493.41, 0)" xlink:href="#linear-gradient-6"/><linearGradient id="linear-gradient-68" x1="-2527.11" y1="39.8" x2="-2526.67" y2="39.8" gradientTransform="matrix(-1, 0, 0, 1, -2493.41, 0)" xlink:href="#linear-gradient-6"/><linearGradient id="linear-gradient-69" x1="-2526.66" y1="39.54" x2="-2526.22" y2="39.54" gradientTransform="matrix(-1, 0, 0, 1, -2493.41, 0)" xlink:href="#linear-gradient-6"/><linearGradient id="linear-gradient-70" x1="-2526.22" y1="39.29" x2="-2525.77" y2="39.29" gradientTransform="matrix(-1, 0, 0, 1, -2493.41, 0)" xlink:href="#linear-gradient-6"/><linearGradient id="linear-gradient-71" x1="-2525.77" y1="39.03" x2="-2525.33" y2="39.03" gradientTransform="matrix(-1, 0, 0, 1, -2493.41, 0)" xlink:href="#linear-gradient-6"/><linearGradient id="linear-gradient-72" x1="-2539.65" y1="34.11" x2="-2525.33" y2="34.11" gradientTransform="matrix(-1, 0, 0, 1, -2493.41, 0)" xlink:href="#linear-gradient-3"/><linearGradient id="linear-gradient-73" x1="42.63" y1="39.42" x2="46.24" y2="39.42" xlink:href="#linear-gradient-6"/><linearGradient id="linear-gradient-74" x1="-2536.04" y1="37.37" x2="-2525.33" y2="37.37" gradientTransform="matrix(-1, 0, 0, 1, -2493.41, 0)" xlink:href="#linear-gradient-6"/><linearGradient id="linear-gradient-75" x1="-2536.04" y1="40.33" x2="-2535.59" y2="40.33" gradientTransform="matrix(-1, 0, 0, 1, -2493.41, 0)" xlink:href="#linear-gradient-6"/><linearGradient id="linear-gradient-76" x1="-2535.59" y1="40.07" x2="-2535.15" y2="40.07" gradientTransform="matrix(-1, 0, 0, 1, -2493.41, 0)" xlink:href="#linear-gradient-6"/><linearGradient id="linear-gradient-77" x1="-2535.14" y1="39.82" x2="-2534.7" y2="39.82" gradientTransform="matrix(-1, 0, 0, 1, -2493.41, 0)" xlink:href="#linear-gradient-6"/><linearGradient id="linear-gradient-78" x1="-2534.7" y1="39.56" x2="-2534.26" y2="39.56" gradientTransform="matrix(-1, 0, 0, 1, -2493.41, 0)" xlink:href="#linear-gradient-6"/><linearGradient id="linear-gradient-79" x1="-2534.25" y1="39.3" x2="-2533.81" y2="39.3" gradientTransform="matrix(-1, 0, 0, 1, -2493.41, 0)" xlink:href="#linear-gradient-6"/><linearGradient id="linear-gradient-80" x1="-2533.81" y1="39.04" x2="-2533.36" y2="39.04" gradientTransform="matrix(-1, 0, 0, 1, -2493.41, 0)" xlink:href="#linear-gradient-6"/><linearGradient id="linear-gradient-81" x1="-2533.36" y1="38.79" x2="-2532.92" y2="38.79" gradientTransform="matrix(-1, 0, 0, 1, -2493.41, 0)" xlink:href="#linear-gradient-6"/><linearGradient id="linear-gradient-82" x1="-2532.91" y1="38.53" x2="-2532.47" y2="38.53" gradientTransform="matrix(-1, 0, 0, 1, -2493.41, 0)" xlink:href="#linear-gradient-6"/><linearGradient id="linear-gradient-83" x1="-2532.47" y1="38.27" x2="-2532.02" y2="38.27" gradientTransform="matrix(-1, 0, 0, 1, -2493.41, 0)" xlink:href="#linear-gradient-6"/><linearGradient id="linear-gradient-84" x1="-2532.02" y1="38.01" x2="-2531.58" y2="38.01" gradientTransform="matrix(-1, 0, 0, 1, -2493.41, 0)" xlink:href="#linear-gradient-6"/><linearGradient id="linear-gradient-85" x1="-2531.57" y1="37.75" x2="-2531.13" y2="37.75" gradientTransform="matrix(-1, 0, 0, 1, -2493.41, 0)" xlink:href="#linear-gradient-6"/><linearGradient id="linear-gradient-86" x1="-2531.13" y1="37.5" x2="-2530.68" y2="37.5" gradientTransform="matrix(-1, 0, 0, 1, -2493.41, 0)" xlink:href="#linear-gradient-6"/><linearGradient id="linear-gradient-87" x1="-2530.68" y1="37.24" x2="-2530.24" y2="37.24" gradientTransform="matrix(-1, 0, 0, 1, -2493.41, 0)" xlink:href="#linear-gradient-6"/><linearGradient id="linear-gradient-88" x1="-2530.23" y1="36.98" x2="-2529.79" y2="36.98" gradientTransform="matrix(-1, 0, 0, 1, -2493.41, 0)" xlink:href="#linear-gradient-6"/><linearGradient id="linear-gradient-89" x1="-2529.79" y1="36.72" x2="-2529.34" y2="36.72" gradientTransform="matrix(-1, 0, 0, 1, -2493.41, 0)" xlink:href="#linear-gradient-6"/><linearGradient id="linear-gradient-90" x1="-2529.34" y1="36.46" x2="-2528.9" y2="36.46" gradientTransform="matrix(-1, 0, 0, 1, -2493.41, 0)" xlink:href="#linear-gradient-6"/><linearGradient id="linear-gradient-91" x1="-2528.89" y1="36.21" x2="-2528.45" y2="36.21" gradientTransform="matrix(-1, 0, 0, 1, -2493.41, 0)" xlink:href="#linear-gradient-6"/><linearGradient id="linear-gradient-92" x1="-2528.45" y1="35.95" x2="-2528.01" y2="35.95" gradientTransform="matrix(-1, 0, 0, 1, -2493.41, 0)" xlink:href="#linear-gradient-6"/><linearGradient id="linear-gradient-93" x1="-2528" y1="35.69" x2="-2527.56" y2="35.69" gradientTransform="matrix(-1, 0, 0, 1, -2493.41, 0)" xlink:href="#linear-gradient-6"/><linearGradient id="linear-gradient-94" x1="-2527.56" y1="35.43" x2="-2527.11" y2="35.43" gradientTransform="matrix(-1, 0, 0, 1, -2493.41, 0)" xlink:href="#linear-gradient-6"/><linearGradient id="linear-gradient-95" x1="-2527.11" y1="35.17" x2="-2526.67" y2="35.17" gradientTransform="matrix(-1, 0, 0, 1, -2493.41, 0)" xlink:href="#linear-gradient-6"/><linearGradient id="linear-gradient-96" x1="-2526.66" y1="34.92" x2="-2526.22" y2="34.92" gradientTransform="matrix(-1, 0, 0, 1, -2493.41, 0)" xlink:href="#linear-gradient-6"/><linearGradient id="linear-gradient-97" x1="-2526.22" y1="34.66" x2="-2525.77" y2="34.66" gradientTransform="matrix(-1, 0, 0, 1, -2493.41, 0)" xlink:href="#linear-gradient-6"/><linearGradient id="linear-gradient-98" x1="-2525.77" y1="34.4" x2="-2525.33" y2="34.4" gradientTransform="matrix(-1, 0, 0, 1, -2493.41, 0)" xlink:href="#linear-gradient-6"/><linearGradient id="linear-gradient-99" x1="-2534.3" y1="41.99" x2="-2519.97" y2="41.99" gradientTransform="matrix(-1, 0, 0, 1, -2493.41, 0)" xlink:href="#linear-gradient-3"/><linearGradient id="linear-gradient-100" x1="37.27" y1="47.3" x2="40.89" y2="47.3" xlink:href="#linear-gradient-6"/><linearGradient id="linear-gradient-101" x1="-2530.68" y1="45.25" x2="-2519.97" y2="45.25" gradientTransform="matrix(-1, 0, 0, 1, -2493.41, 0)" xlink:href="#linear-gradient-6"/><linearGradient id="linear-gradient-102" x1="36.83" y1="48.21" x2="37.27" y2="48.21" xlink:href="#linear-gradient-13"/><linearGradient id="linear-gradient-103" x1="36.38" y1="47.95" x2="36.83" y2="47.95" xlink:href="#linear-gradient-13"/><linearGradient id="linear-gradient-104" x1="35.94" y1="47.7" x2="36.38" y2="47.7" xlink:href="#linear-gradient-13"/><linearGradient id="linear-gradient-105" x1="35.49" y1="47.44" x2="35.93" y2="47.44" xlink:href="#linear-gradient-13"/><linearGradient id="linear-gradient-106" x1="35.04" y1="47.18" x2="35.49" y2="47.18" xlink:href="#linear-gradient-13"/><linearGradient id="linear-gradient-107" x1="34.6" y1="46.92" x2="35.04" y2="46.92" xlink:href="#linear-gradient-13"/><linearGradient id="linear-gradient-108" x1="34.15" y1="46.66" x2="34.59" y2="46.66" xlink:href="#linear-gradient-13"/><linearGradient id="linear-gradient-109" x1="33.7" y1="46.41" x2="34.15" y2="46.41" xlink:href="#linear-gradient-13"/><linearGradient id="linear-gradient-110" x1="33.26" y1="46.15" x2="33.7" y2="46.15" xlink:href="#linear-gradient-13"/><linearGradient id="linear-gradient-111" x1="32.81" y1="45.89" x2="33.25" y2="45.89" xlink:href="#linear-gradient-13"/><linearGradient id="linear-gradient-112" x1="32.37" y1="45.63" x2="32.81" y2="45.63" xlink:href="#linear-gradient-13"/><linearGradient id="linear-gradient-113" x1="31.92" y1="45.37" x2="32.36" y2="45.37" xlink:href="#linear-gradient-13"/><linearGradient id="linear-gradient-114" x1="31.47" y1="45.12" x2="31.92" y2="45.12" xlink:href="#linear-gradient-13"/><linearGradient id="linear-gradient-115" x1="31.03" y1="44.86" x2="31.47" y2="44.86" xlink:href="#linear-gradient-13"/><linearGradient id="linear-gradient-116" x1="30.58" y1="44.6" x2="31.02" y2="44.6" xlink:href="#linear-gradient-13"/><linearGradient id="linear-gradient-117" x1="30.13" y1="44.34" x2="30.58" y2="44.34" xlink:href="#linear-gradient-13"/><linearGradient id="linear-gradient-118" x1="29.69" y1="44.09" x2="30.13" y2="44.09" xlink:href="#linear-gradient-13"/><linearGradient id="linear-gradient-119" x1="29.24" y1="43.83" x2="29.68" y2="43.83" xlink:href="#linear-gradient-13"/><linearGradient id="linear-gradient-120" x1="28.79" y1="43.57" x2="29.24" y2="43.57" xlink:href="#linear-gradient-13"/><linearGradient id="linear-gradient-121" x1="28.35" y1="43.31" x2="28.79" y2="43.31" xlink:href="#linear-gradient-13"/><linearGradient id="linear-gradient-122" x1="27.9" y1="43.05" x2="28.34" y2="43.05" xlink:href="#linear-gradient-13"/><linearGradient id="linear-gradient-123" x1="27.45" y1="42.8" x2="27.9" y2="42.8" xlink:href="#linear-gradient-13"/><linearGradient id="linear-gradient-124" x1="27.01" y1="42.54" x2="27.45" y2="42.54" xlink:href="#linear-gradient-13"/><linearGradient id="linear-gradient-125" x1="26.56" y1="42.28" x2="27" y2="42.28" xlink:href="#linear-gradient-13"/><linearGradient id="linear-gradient-126" x1="-2534.3" y1="37.44" x2="-2519.97" y2="37.44" gradientTransform="matrix(-1, 0, 0, 1, -2493.41, 0)" xlink:href="#linear-gradient-3"/><linearGradient id="linear-gradient-127" x1="37.27" y1="42.74" x2="40.89" y2="42.74" xlink:href="#linear-gradient-6"/><linearGradient id="linear-gradient-128" x1="-2530.68" y1="40.7" x2="-2519.97" y2="40.7" gradientTransform="matrix(-1, 0, 0, 1, -2493.41, 0)" xlink:href="#linear-gradient-6"/><linearGradient id="linear-gradient-129" x1="36.83" y1="43.66" x2="37.27" y2="43.66" xlink:href="#linear-gradient-13"/><linearGradient id="linear-gradient-130" x1="36.38" y1="43.4" x2="36.83" y2="43.4" xlink:href="#linear-gradient-13"/><linearGradient id="linear-gradient-131" x1="35.94" y1="43.15" x2="36.38" y2="43.15" xlink:href="#linear-gradient-13"/><linearGradient id="linear-gradient-132" x1="35.49" y1="42.89" x2="35.93" y2="42.89" xlink:href="#linear-gradient-13"/><linearGradient id="linear-gradient-133" x1="35.04" y1="42.63" x2="35.49" y2="42.63" xlink:href="#linear-gradient-13"/><linearGradient id="linear-gradient-134" x1="34.6" y1="42.37" x2="35.04" y2="42.37" xlink:href="#linear-gradient-13"/><linearGradient id="linear-gradient-135" x1="34.15" y1="42.11" x2="34.59" y2="42.11" xlink:href="#linear-gradient-13"/><linearGradient id="linear-gradient-136" x1="33.7" y1="41.86" x2="34.15" y2="41.86" xlink:href="#linear-gradient-13"/><linearGradient id="linear-gradient-137" x1="33.26" y1="41.6" x2="33.7" y2="41.6" xlink:href="#linear-gradient-13"/><linearGradient id="linear-gradient-138" x1="32.81" y1="41.34" x2="33.25" y2="41.34" xlink:href="#linear-gradient-13"/><linearGradient id="linear-gradient-139" x1="32.37" y1="41.08" x2="32.81" y2="41.08" xlink:href="#linear-gradient-13"/><linearGradient id="linear-gradient-140" x1="31.92" y1="40.82" x2="32.36" y2="40.82" xlink:href="#linear-gradient-13"/><linearGradient id="linear-gradient-141" x1="31.47" y1="40.57" x2="31.92" y2="40.57" xlink:href="#linear-gradient-13"/><linearGradient id="linear-gradient-142" x1="31.03" y1="40.31" x2="31.47" y2="40.31" xlink:href="#linear-gradient-13"/><linearGradient id="linear-gradient-143" x1="30.58" y1="40.05" x2="31.02" y2="40.05" xlink:href="#linear-gradient-13"/><linearGradient id="linear-gradient-144" x1="30.13" y1="39.79" x2="30.58" y2="39.79" xlink:href="#linear-gradient-13"/><linearGradient id="linear-gradient-145" x1="29.69" y1="39.53" x2="30.13" y2="39.53" xlink:href="#linear-gradient-13"/><linearGradient id="linear-gradient-146" x1="29.24" y1="39.28" x2="29.68" y2="39.28" xlink:href="#linear-gradient-13"/><linearGradient id="linear-gradient-147" x1="28.79" y1="39.02" x2="29.24" y2="39.02" xlink:href="#linear-gradient-13"/><linearGradient id="linear-gradient-148" x1="28.35" y1="38.76" x2="28.79" y2="38.76" xlink:href="#linear-gradient-13"/><linearGradient id="linear-gradient-149" x1="27.9" y1="38.5" x2="28.34" y2="38.5" xlink:href="#linear-gradient-13"/><linearGradient id="linear-gradient-150" x1="27.45" y1="38.24" x2="27.9" y2="38.24" xlink:href="#linear-gradient-13"/><linearGradient id="linear-gradient-151" x1="27.01" y1="37.99" x2="27.45" y2="37.99" xlink:href="#linear-gradient-13"/><linearGradient id="linear-gradient-152" x1="26.56" y1="37.73" x2="27" y2="37.73" xlink:href="#linear-gradient-13"/></defs><title>Ресурс 2</title><g id="Слой_2" data-name="Слой 2"><g id="Layer_1" data-name="Layer 1"><g id="comp"><polygon class="cls-1" points="23.87 69.38 11.76 56.28 93.68 0 125.74 18.52 23.87 69.38"/><path class="cls-2" d="M67.24,44.89,23.87,69.38S9.72,65.51,6.45,64.27L0,61.84,62.35,25.07l12.82,7.4Z"/><path class="cls-3" d="M55.78,23,19.06,43.57l-3.12-1L5.68,49.12A10.51,10.51,0,0,0,.46,57.43L.21,60.88a5.6,5.6,0,0,1,2.13-1.73l.12-1.58a8.49,8.49,0,0,1,4.23-6.72l9.93-5.78,3.28,1L55.78,25.34l14.88,8.59a5.79,5.79,0,0,1,1.92-1.2Z"/><path class="cls-4" d="M72.11,34.23l-34.68,20-3.12-1-10.47,6a16.22,16.22,0,0,1-7.72,2.17L.84,61.82l1.31-1.63c.26-3.46.52-7.57,3.53-9.31L17.56,44l3.12,1,35.1-20.28Z"/><path class="cls-5" d="M14.3,51.2S3.5,54.49,6.4,55.45c.06,0,11.11,0,11.11,0Z"/><polygon class="cls-6" points="17.48 45.87 16.6 46.38 21.06 48.96 21.94 48.45 17.48 45.87"/><polygon class="cls-7" points="16.6 46.38 21.06 48.96 21.06 53.4 16.6 50.83 16.6 46.38"/><polygon class="cls-8" points="21.94 48.44 21.94 52.89 21.06 53.41 21.06 48.96 21.94 48.44"/><polygon class="cls-7" points="13.93 48.34 18.02 50.71 18.02 54.73 13.93 52.37 13.93 48.34"/><polygon class="cls-9" points="19.8 49.68 18.91 50.19 18.02 50.7 18.02 54.73 18.91 54.22 19.8 53.7 20.69 53.19 20.69 49.17 19.8 49.68"/><polygon class="cls-10" points="20.69 49.17 16.6 46.8 15.71 47.32 15.71 47.32 14.82 47.83 14.82 47.83 13.93 48.34 18.02 50.71 18.91 50.19 18.91 50.19 19.8 49.68 19.8 49.68 20.69 49.17"/><polygon class="cls-11" points="13.93 47.92 13.05 48.43 17.51 51.01 18.39 50.5 13.93 47.92"/><polygon class="cls-7" points="13.05 48.43 17.51 51.01 17.51 55.45 13.05 52.88 13.05 48.43"/><polygon class="cls-12" points="18.39 50.49 18.39 54.94 17.51 55.46 17.51 51.01 18.39 50.49"/><path class="cls-13" d="M53,22.85l-4.86,2.81V28L55,24Z"/><polygon class="cls-10" points="63.57 36.91 71.17 32.47 55.78 23.58 48.19 28.02 63.57 36.91"/><polygon class="cls-7" points="37.44 54.25 34.31 53.21 32.46 51.97 35.66 52.97 37.44 54.25"/><polygon class="cls-7" points="19.89 44.3 16.61 43.31 14.94 42.02 18.05 43.05 19.89 44.3"/><path class="cls-14" d="M32.46,52l1.85,1.24-10.47,6a16.22,16.22,0,0,1-7.72,2.17l-15.86.4H0l.46-6.17a10.51,10.51,0,0,1,5.22-8.31L14.93,42l1.68,1.29L6.68,49.09a8.56,8.56,0,0,0-4.23,6.73l-.29,4,13.91-.35a14.34,14.34,0,0,0,6.77-1.9Z"/><polygon class="cls-15" points="48.19 25.66 48.19 27.97 19.89 44.3 18.05 43.05 48.19 25.66"/><polygon class="cls-16" points="75.17 32.47 72.11 34.23 37.44 54.25 35.66 52.97 62.49 37.47 63.56 36.86 71.17 32.47 55.78 23.58 55.04 24.01 53.04 22.85 55.78 21.27 75.17 32.47"/><polygon class="cls-10" points="63.57 28.93 71.17 24.5 55.78 15.61 48.19 20.04 63.57 28.93"/><polygon class="cls-17" points="71.17 32.47 63.57 36.86 63.57 28.93 71.17 24.5 71.17 32.47"/><polygon class="cls-10" points="57.9 9.19 54.26 11.29 57.9 13.4 61.55 11.29 57.9 9.19"/><polygon class="cls-18" points="57.91 9.98 57.91 12.54 55.82 11.38 55.65 11.29 57.91 9.98"/><polygon class="cls-19" points="60.16 11.29 59.98 11.38 57.91 12.54 57.91 9.98 60.16 11.29"/><polygon class="cls-10" points="57.9 16.81 54.26 18.92 57.9 21.02 61.55 18.92 57.9 16.81"/><polygon class="cls-20" points="61.55 18.92 57.9 21.02 57.9 13.4 61.55 11.29 61.55 18.92"/><polygon class="cls-7" points="54.26 18.92 57.9 21.02 57.9 13.4 54.26 11.29 54.26 18.92"/><polygon class="cls-21" points="63.56 28.93 63.56 36.86 62.49 37.47 48.19 29.2 48.19 20.04 53.04 22.85 55.04 24.01 63.56 28.93"/><path class="cls-22" d="M31.92,41.11s-6.06,2.12-3.16,3.08c.06,0,13.87,3.11,13.87,3.11Z"/><path class="cls-23" d="M26.56,44.37s-4.34.07-3.37,1.56,7.28,4.38,8.73,4.86c.06,0,5.35-.23,5.35-.23Z"/><polygon class="cls-24" points="48.19 21.72 49.88 22.7 49.88 24.98 48.19 24.03 48.19 21.72"/><polygon class="cls-25" points="50.92 23.3 52.61 24.27 52.61 26.56 50.92 25.6 50.92 23.3"/><polygon class="cls-26" points="53.66 24.87 55.35 25.85 55.35 28.13 53.66 27.18 53.66 24.87"/><polygon class="cls-27" points="56.4 26.45 58.09 27.42 58.09 29.71 56.4 28.75 56.4 26.45"/><polygon class="cls-28" points="59.13 28.02 60.83 29 60.83 31.28 59.13 30.33 59.13 28.02"/><polygon class="cls-29" points="61.87 29.6 63.56 30.57 63.56 32.86 61.87 31.9 61.87 29.6"/><polygon class="cls-29" points="61.87 29.6 63.56 30.57 63.56 32.86 61.87 31.9 61.87 29.6"/><polygon class="cls-29" points="61.87 29.6 63.56 30.57 63.56 32.86 61.87 31.9 61.87 29.6"/><polygon class="cls-29" points="61.87 29.6 63.56 30.57 63.56 32.86 61.87 31.9 61.87 29.6"/><polygon class="cls-29" points="61.87 29.6 63.56 30.57 63.56 32.86 61.87 31.9 61.87 29.6"/><polygon class="cls-29" points="61.87 29.6 63.56 30.57 63.56 32.86 61.87 31.9 61.87 29.6"/><polygon class="cls-29" points="61.87 29.6 63.56 30.57 63.56 32.86 61.87 31.9 61.87 29.6"/><polygon class="cls-29" points="61.87 29.6 63.56 30.57 63.56 32.86 61.87 31.9 61.87 29.6"/><polygon class="cls-29" points="61.87 29.6 63.56 30.57 63.56 32.86 61.87 31.9 61.87 29.6"/><polygon class="cls-29" points="61.87 29.6 63.56 30.57 63.56 32.86 61.87 31.9 61.87 29.6"/><polygon class="cls-29" points="61.87 29.6 63.56 30.57 63.56 32.86 61.87 31.9 61.87 29.6"/><polygon class="cls-29" points="61.87 29.6 63.56 30.57 63.56 32.86 61.87 31.9 61.87 29.6"/><polygon class="cls-29" points="61.87 29.6 63.56 30.57 63.56 32.86 61.87 31.9 61.87 29.6"/><polygon class="cls-29" points="61.87 29.6 63.56 30.57 63.56 32.86 61.87 31.9 61.87 29.6"/><polygon class="cls-29" points="61.87 29.6 63.56 30.57 63.56 32.86 61.87 31.9 61.87 29.6"/><polygon class="cls-29" points="61.87 29.6 63.56 30.57 63.56 32.86 61.87 31.9 61.87 29.6"/><polygon class="cls-29" points="61.87 29.6 63.56 30.57 63.56 32.86 61.87 31.9 61.87 29.6"/><polygon class="cls-29" points="61.87 29.6 63.56 30.57 63.56 32.86 61.87 31.9 61.87 29.6"/><polygon class="cls-29" points="61.87 29.6 63.56 30.57 63.56 32.86 61.87 31.9 61.87 29.6"/><polygon class="cls-29" points="61.87 29.6 63.56 30.57 63.56 32.86 61.87 31.9 61.87 29.6"/><polygon class="cls-29" points="61.87 29.6 63.56 30.57 63.56 32.86 61.87 31.9 61.87 29.6"/><polygon class="cls-30" points="65.26 29.6 63.56 30.57 63.56 32.86 65.26 31.9 65.26 29.6"/><polygon class="cls-31" points="42.63 42.87 46.24 40.78 35.53 34.6 31.92 36.69 42.63 42.87"/><polygon class="cls-32" points="42.63 47.3 46.24 45.22 46.24 40.78 42.63 42.87 42.63 47.3"/><polygon class="cls-33" points="31.92 41.12 42.63 47.3 42.63 42.87 31.92 36.69 31.92 41.12"/><polygon class="cls-34" points="42.19 42.62 42.63 42.87 42.63 47.3 42.19 47.05 42.19 42.62"/><polygon class="cls-35" points="41.74 42.36 42.18 42.62 42.18 47.05 41.74 46.79 41.74 42.36"/><polygon class="cls-36" points="41.29 42.1 41.73 42.36 41.73 46.79 41.29 46.53 41.29 42.1"/><polygon class="cls-37" points="40.85 41.84 41.29 42.1 41.29 46.53 40.85 46.28 40.85 41.84"/><polygon class="cls-38" points="40.4 41.59 40.84 41.84 40.84 46.27 40.4 46.02 40.4 41.59"/><polygon class="cls-39" points="39.95 41.33 40.4 41.58 40.4 46.02 39.95 45.76 39.95 41.33"/><polygon class="cls-40" points="39.51 41.07 39.95 41.33 39.95 45.76 39.51 45.5 39.51 41.07"/><polygon class="cls-41" points="39.06 40.81 39.5 41.07 39.5 45.5 39.06 45.24 39.06 40.81"/><polygon class="cls-42" points="38.61 40.55 39.06 40.81 39.06 45.24 38.61 44.99 38.61 40.55"/><polygon class="cls-43" points="38.17 40.3 38.61 40.55 38.61 44.98 38.17 44.73 38.17 40.3"/><polygon class="cls-44" points="37.72 40.04 38.16 40.3 38.16 44.73 37.72 44.47 37.72 40.04"/><polygon class="cls-45" points="37.27 39.78 37.72 40.04 37.72 44.47 37.27 44.21 37.27 39.78"/><polygon class="cls-46" points="36.83 39.52 37.27 39.78 37.27 44.21 36.83 43.96 36.83 39.52"/><polygon class="cls-47" points="36.38 39.27 36.82 39.52 36.82 43.95 36.38 43.7 36.38 39.27"/><polygon class="cls-48" points="35.94 39.01 36.38 39.26 36.38 43.69 35.94 43.44 35.94 39.01"/><polygon class="cls-49" points="35.49 38.75 35.93 39.01 35.93 43.43 35.49 43.18 35.49 38.75"/><polygon class="cls-50" points="35.04 38.49 35.48 38.75 35.48 43.18 35.04 42.92 35.04 38.49"/><polygon class="cls-51" points="34.6 38.23 35.04 38.49 35.04 42.92 34.6 42.67 34.6 38.23"/><polygon class="cls-52" points="34.15 37.98 34.59 38.23 34.59 42.66 34.15 42.41 34.15 37.98"/><polygon class="cls-53" points="33.7 37.72 34.15 37.98 34.15 42.4 33.7 42.15 33.7 37.72"/><polygon class="cls-54" points="33.26 37.46 33.7 37.72 33.7 42.14 33.26 41.89 33.26 37.46"/><polygon class="cls-55" points="32.81 37.2 33.25 37.46 33.25 41.89 32.81 41.63 32.81 37.2"/><polygon class="cls-56" points="32.36 36.95 32.81 37.2 32.81 41.63 32.36 41.38 32.36 36.95"/><polygon class="cls-57" points="31.92 36.69 32.36 36.94 32.36 41.37 31.92 41.12 31.92 36.69"/><polygon class="cls-58" points="42.63 38.24 46.24 36.16 35.53 29.97 31.92 32.06 42.63 38.24"/><polygon class="cls-59" points="42.63 42.68 46.24 40.59 46.24 36.16 42.63 38.24 42.63 42.68"/><polygon class="cls-60" points="31.92 36.49 42.63 42.68 42.63 38.24 31.92 32.06 31.92 36.49"/><polygon class="cls-61" points="42.19 37.99 42.63 38.24 42.63 42.68 42.19 42.42 42.19 37.99"/><polygon class="cls-62" points="41.74 37.73 42.18 37.99 42.18 42.42 41.74 42.16 41.74 37.73"/><polygon class="cls-63" points="41.29 37.47 41.73 37.73 41.73 42.16 41.29 41.91 41.29 37.47"/><polygon class="cls-64" points="40.85 37.22 41.29 37.47 41.29 41.9 40.85 41.65 40.85 37.22"/><polygon class="cls-65" points="40.4 36.96 40.84 37.21 40.84 41.64 40.4 41.39 40.4 36.96"/><polygon class="cls-66" points="39.95 36.7 40.4 36.96 40.4 41.39 39.95 41.13 39.95 36.7"/><polygon class="cls-67" points="39.51 36.44 39.95 36.7 39.95 41.13 39.51 40.87 39.51 36.44"/><polygon class="cls-68" points="39.06 36.18 39.5 36.44 39.5 40.87 39.06 40.62 39.06 36.18"/><polygon class="cls-69" points="38.61 35.93 39.06 36.18 39.06 40.61 38.61 40.36 38.61 35.93"/><polygon class="cls-70" points="38.17 35.67 38.61 35.92 38.61 40.35 38.17 40.1 38.17 35.67"/><polygon class="cls-71" points="37.72 35.41 38.16 35.67 38.16 40.1 37.72 39.84 37.72 35.41"/><polygon class="cls-72" points="37.27 35.15 37.72 35.41 37.72 39.84 37.27 39.59 37.27 35.15"/><polygon class="cls-73" points="36.83 34.9 37.27 35.15 37.27 39.58 36.83 39.33 36.83 34.9"/><polygon class="cls-74" points="36.38 34.64 36.82 34.89 36.82 39.32 36.38 39.07 36.38 34.64"/><polygon class="cls-75" points="35.94 34.38 36.38 34.63 36.38 39.06 35.94 38.81 35.94 34.38"/><polygon class="cls-76" points="35.49 34.12 35.93 34.38 35.93 38.81 35.49 38.55 35.49 34.12"/><polygon class="cls-77" points="35.04 33.86 35.48 34.12 35.48 38.55 35.04 38.3 35.04 33.86"/><polygon class="cls-78" points="34.6 33.61 35.04 33.86 35.04 38.29 34.6 38.04 34.6 33.61"/><polygon class="cls-79" points="34.15 33.35 34.59 33.6 34.59 38.03 34.15 37.78 34.15 33.35"/><polygon class="cls-80" points="33.7 33.09 34.15 33.35 34.15 37.77 33.7 37.52 33.7 33.09"/><polygon class="cls-81" points="33.26 32.83 33.7 33.09 33.7 37.52 33.26 37.26 33.26 32.83"/><polygon class="cls-82" points="32.81 32.58 33.25 32.83 33.25 37.26 32.81 37.01 32.81 32.58"/><polygon class="cls-83" points="32.36 32.32 32.81 32.57 32.81 37 32.36 36.75 32.36 32.32"/><polygon class="cls-84" points="31.92 32.06 32.36 32.31 32.36 36.74 31.92 36.49 31.92 32.06"/><polygon class="cls-85" points="37.27 46.12 40.89 44.04 30.18 37.85 26.56 39.94 37.27 46.12"/><polygon class="cls-86" points="37.27 50.56 40.89 48.47 40.89 44.04 37.27 46.12 37.27 50.56"/><polygon class="cls-87" points="26.56 44.37 37.27 50.56 37.27 46.12 26.56 39.94 26.56 44.37"/><g class="cls-88"><polygon class="cls-89" points="36.83 45.87 37.27 46.12 37.27 50.56 36.83 50.3 36.83 45.87"/><polygon class="cls-90" points="36.38 45.61 36.83 45.87 36.83 50.3 36.38 50.04 36.38 45.61"/><polygon class="cls-91" points="35.94 45.35 36.38 45.61 36.38 50.04 35.94 49.78 35.94 45.35"/><polygon class="cls-92" points="35.49 45.09 35.93 45.35 35.93 49.78 35.49 49.53 35.49 45.09"/><polygon class="cls-93" points="35.04 44.84 35.49 45.09 35.49 49.52 35.04 49.27 35.04 44.84"/><polygon class="cls-94" points="34.6 44.58 35.04 44.84 35.04 49.27 34.6 49.01 34.6 44.58"/><polygon class="cls-95" points="34.15 44.32 34.59 44.58 34.59 49.01 34.15 48.75 34.15 44.32"/><polygon class="cls-96" points="33.7 44.06 34.15 44.32 34.15 48.75 33.7 48.49 33.7 44.06"/><polygon class="cls-97" points="33.26 43.81 33.7 44.06 33.7 48.49 33.26 48.24 33.26 43.81"/><polygon class="cls-98" points="32.81 43.55 33.25 43.8 33.25 48.23 32.81 47.98 32.81 43.55"/><polygon class="cls-99" points="32.37 43.29 32.81 43.55 32.81 47.98 32.37 47.72 32.37 43.29"/><polygon class="cls-100" points="31.92 43.03 32.36 43.29 32.36 47.72 31.92 47.46 31.92 43.03"/><polygon class="cls-101" points="31.47 42.77 31.91 43.03 31.91 47.46 31.47 47.21 31.47 42.77"/><polygon class="cls-102" points="31.03 42.52 31.47 42.77 31.47 47.2 31.03 46.95 31.03 42.52"/><polygon class="cls-103" points="30.58 42.26 31.02 42.52 31.02 46.94 30.58 46.69 30.58 42.26"/><polygon class="cls-104" points="30.13 42 30.58 42.26 30.58 46.69 30.13 46.43 30.13 42"/><polygon class="cls-105" points="29.69 41.74 30.13 42 30.13 46.43 29.69 46.17 29.69 41.74"/><polygon class="cls-106" points="29.24 41.48 29.68 41.74 29.68 46.17 29.24 45.92 29.24 41.48"/><polygon class="cls-107" points="28.79 41.23 29.24 41.48 29.24 45.91 28.79 45.66 28.79 41.23"/><polygon class="cls-108" points="28.35 40.97 28.79 41.23 28.79 45.65 28.35 45.4 28.35 40.97"/><polygon class="cls-109" points="27.9 40.71 28.34 40.97 28.34 45.4 27.9 45.14 27.9 40.71"/><polygon class="cls-110" points="27.45 40.45 27.9 40.71 27.9 45.14 27.45 44.89 27.45 40.45"/><polygon class="cls-111" points="27.01 40.2 27.45 40.45 27.45 44.88 27.01 44.63 27.01 40.2"/><polygon class="cls-112" points="26.56 39.94 27 40.19 27 44.62 26.56 44.37 26.56 39.94"/></g><polygon class="cls-113" points="37.27 41.57 40.89 39.48 30.18 33.3 26.56 35.39 37.27 41.57"/><polygon class="cls-114" points="37.27 46.01 40.89 43.92 40.89 39.48 37.27 41.57 37.27 46.01"/><polygon class="cls-115" points="26.56 39.82 37.27 46.01 37.27 41.57 26.56 35.39 26.56 39.82"/><g class="cls-88"><polygon class="cls-116" points="36.83 41.32 37.27 41.57 37.27 46.01 36.83 45.75 36.83 41.32"/><polygon class="cls-117" points="36.38 41.06 36.83 41.31 36.83 45.75 36.38 45.49 36.38 41.06"/><polygon class="cls-118" points="35.94 40.8 36.38 41.06 36.38 45.49 35.94 45.23 35.94 40.8"/><polygon class="cls-119" points="35.49 40.54 35.93 40.8 35.93 45.23 35.49 44.98 35.49 40.54"/><polygon class="cls-120" points="35.04 40.29 35.49 40.54 35.49 44.97 35.04 44.72 35.04 40.29"/><polygon class="cls-121" points="34.6 40.03 35.04 40.28 35.04 44.72 34.6 44.46 34.6 40.03"/><polygon class="cls-122" points="34.15 39.77 34.59 40.03 34.59 44.46 34.15 44.2 34.15 39.77"/><polygon class="cls-123" points="33.7 39.51 34.15 39.77 34.15 44.2 33.7 43.94 33.7 39.51"/><polygon class="cls-124" points="33.26 39.25 33.7 39.51 33.7 43.94 33.26 43.69 33.26 39.25"/><polygon class="cls-125" points="32.81 39 33.25 39.25 33.25 43.68 32.81 43.43 32.81 39"/><polygon class="cls-126" points="32.37 38.74 32.81 38.99 32.81 43.42 32.37 43.17 32.37 38.74"/><polygon class="cls-127" points="31.92 38.48 32.36 38.74 32.36 43.17 31.92 42.91 31.92 38.48"/><polygon class="cls-128" points="31.47 38.22 31.91 38.48 31.91 42.91 31.47 42.66 31.47 38.22"/><polygon class="cls-129" points="31.03 37.97 31.47 38.22 31.47 42.65 31.03 42.4 31.03 37.97"/><polygon class="cls-130" points="30.58 37.71 31.02 37.96 31.02 42.39 30.58 42.14 30.58 37.71"/><polygon class="cls-131" points="30.13 37.45 30.58 37.71 30.58 42.13 30.13 41.88 30.13 37.45"/><polygon class="cls-132" points="29.69 37.19 30.13 37.45 30.13 41.88 29.69 41.62 29.69 37.19"/><polygon class="cls-133" points="29.24 36.93 29.68 37.19 29.68 41.62 29.24 41.37 29.24 36.93"/><polygon class="cls-134" points="28.79 36.68 29.24 36.93 29.24 41.36 28.79 41.11 28.79 36.68"/><polygon class="cls-135" points="28.35 36.42 28.79 36.67 28.79 41.1 28.35 40.85 28.35 36.42"/><polygon class="cls-136" points="27.9 36.16 28.34 36.42 28.34 40.84 27.9 40.59 27.9 36.16"/><polygon class="cls-137" points="27.45 35.9 27.9 36.16 27.9 40.59 27.45 40.34 27.45 35.9"/><polygon class="cls-138" points="27.01 35.65 27.45 35.9 27.45 40.33 27.01 40.08 27.01 35.65"/><polygon class="cls-139" points="26.56 35.39 27 35.64 27 40.07 26.56 39.82 26.56 35.39"/></g></g></g></g></svg>