<?xml version="1.0" encoding="utf-8"?>
<!-- Generator: Adobe Illustrator 21.0.0, SVG Export Plug-In . SVG Version: 6.00 Build 0)  -->
<svg version="1.1" id="Layer_1" xmlns="http://www.w3.org/2000/svg" xmlns:xlink="http://www.w3.org/1999/xlink" x="0px" y="0px"
	 viewBox="0 0 46.5 41.5" style="enable-background:new 0 0 46.5 41.5;" xml:space="preserve">
<style type="text/css">
	.st0{fill:#291B62;}
</style>
<path class="st0" d="M38.4,28.4l-10.8-6.1c0.8-2,0.9-4.1,0.3-6.2c-0.7-2.6-2.4-4.7-4.7-6c-4.8-2.7-10.9-1-13.6,3.8
	c-1.3,2.3-1.7,5-0.9,7.6c0.7,2.6,2.4,4.7,4.7,6c1.5,0.9,3.2,1.3,4.9,1.3c0.9,0,1.8-0.1,2.7-0.4c2.1-0.6,3.9-1.8,5.2-3.5L37,31
	L38.4,28.4z M20.2,25.5c-1.8,0.5-3.7,0.3-5.3-0.7c-3.4-1.9-4.5-6.2-2.6-9.5c1.9-3.4,6.2-4.5,9.5-2.6c1.6,0.9,2.8,2.4,3.3,4.2
	s0.3,3.7-0.7,5.3C23.5,23.8,22,25,20.2,25.5z"/>
</svg>
