<?xml version="1.0" encoding="utf-8"?>
<!-- Generator: Adobe Illustrator 21.0.0, SVG Export Plug-In . SVG Version: 6.00 Build 0)  -->
<svg version="1.1" id="Layer_1" xmlns="http://www.w3.org/2000/svg" xmlns:xlink="http://www.w3.org/1999/xlink" x="0px" y="0px"
	 viewBox="0 0 66 90.5" style="enable-background:new 0 0 66 90.5;" xml:space="preserve">
<style type="text/css">
	.st0{fill:#FFFFFF;}
	.st1{fill:none;}
	.st2{fill:#00006C;}
	.st3{fill:#42CD00;}
	.st4{fill:#FA0000;}
	.st5{fill:#FF7900;}
	.st6{fill:#FFD200;}
	.st7{fill:#00C599;}
	.st8{fill:#00A6FF;}
	.st9{fill:#B300D8;}
	.st10{fill:#CA0096;}
	.st11{fill:#924EFF;}
</style>
<path class="st0" d="M65.2,35c0,18-32.1,55.5-32.1,55.5S0.9,53,0.9,35S15.3,2.4,33.1,2.4S65.2,17,65.2,35z"/>
<g>
	<rect x="21.9" y="35" class="st1" width="22.4" height="11.2"/>
	<g>
		<polygon class="st2" points="33.1,23.8 33.1,23.8 33.1,23.8 		"/>
		<polygon class="st2" points="44.3,35 44.3,35 21.9,35 21.9,35 21.9,35 33.1,46.2 44.3,35 		"/>
		<polygon class="st1" points="44.3,23.8 33.1,23.8 44.3,35 		"/>
		<polygon class="st1" points="21.9,23.8 21.9,35 33.1,23.8 		"/>
		<polygon class="st3" points="44.3,35 44.3,35 33.1,23.8 33.1,23.8 21.9,35 21.9,35 		"/>
	</g>
	<polygon class="st3" points="44.3,46.2 21.9,46.2 21.9,35 10.6,35 33.1,57.4 55.5,35 44.3,35 	"/>
	<polygon class="st2" points="10.6,35 21.9,35 21.9,23.8 44.3,23.8 44.3,35 55.5,35 33.1,12.6 	"/>
</g>
</svg>
