<?xml version="1.0" encoding="utf-8"?>
<!-- Generator: Adobe Illustrator 21.0.0, SVG Export Plug-In . SVG Version: 6.00 Build 0)  -->
<svg version="1.1" id="Layer_1" xmlns="http://www.w3.org/2000/svg" xmlns:xlink="http://www.w3.org/1999/xlink" x="0px" y="0px"
	 viewBox="0 0 38 51" style="enable-background:new 0 0 38 51;" xml:space="preserve">
<style type="text/css">
	.st0{fill:#FFFFFF;}
	.st1{fill:none;}
	.st2{fill:#00006C;}
	.st3{fill:#42CD00;}
	.st4{fill:#FA0000;}
	.st5{fill:#FF7900;}
	.st6{fill:#FFD200;}
	.st7{fill:#00C599;}
	.st8{fill:#00A6FF;}
	.st9{fill:#B300D8;}
	.st10{fill:#CA0096;}
	.st11{fill:#924EFF;}
</style>
<g>
	<path class="st0" d="M37.5,18.9C37.5,29.3,18.9,51,18.9,51S0.3,29.3,0.3,18.9S8.6,0,18.9,0S37.5,8.4,37.5,18.9z"/>
	<g>
		<rect x="12.4" y="18.9" class="st1" width="13" height="6.5"/>
		<g>
			<polygon class="st2" points="18.9,12.4 18.9,12.4 18.9,12.4 			"/>
			<polygon class="st2" points="25.4,18.9 25.4,18.9 12.4,18.9 12.4,18.9 12.4,18.9 18.9,25.3 25.4,18.9 			"/>
			<polygon class="st1" points="25.4,12.4 18.9,12.4 25.4,18.9 			"/>
			<polygon class="st1" points="12.4,12.4 12.4,18.9 18.9,12.4 			"/>
			<polygon class="st4" points="25.4,18.9 25.4,18.9 18.9,12.4 18.9,12.4 12.4,18.9 12.4,18.9 			"/>
		</g>
		<polygon class="st4" points="25.4,25.3 12.4,25.3 12.4,18.9 5.9,18.9 18.9,31.8 31.9,18.9 25.4,18.9 		"/>
		<polygon class="st2" points="5.9,18.9 12.4,18.9 12.4,12.4 25.4,12.4 25.4,18.9 31.9,18.9 18.9,5.9 		"/>
	</g>
</g>
</svg>
