<?xml version="1.0" encoding="utf-8"?>
<!-- Generator: Adobe Illustrator 21.0.0, SVG Export Plug-In . SVG Version: 6.00 Build 0)  -->
<svg version="1.1" id="Layer_1" xmlns="http://www.w3.org/2000/svg" xmlns:xlink="http://www.w3.org/1999/xlink" x="0px" y="0px"
	 viewBox="0 0 38.7 51" style="enable-background:new 0 0 38.7 51;" xml:space="preserve">
<style type="text/css">
	.st0{fill:#FFFFFF;}
	.st1{fill:none;}
	.st2{fill:#00006C;}
	.st3{fill:#42CD00;}
	.st4{fill:#FA0000;}
	.st5{fill:#FF7900;}
	.st6{fill:#FFD200;}
	.st7{fill:#00C599;}
	.st8{fill:#00A6FF;}
	.st9{fill:#B300D8;}
	.st10{fill:#CA0096;}
	.st11{fill:#924EFF;}
</style>
<g>
	<path class="st0" d="M38.7,18.9C38.7,29.3,20.1,51,20.1,51S1.5,29.3,1.5,18.9S9.9,0,20.1,0S38.7,8.4,38.7,18.9z"/>
	<g>
		<rect x="13.6" y="18.9" class="st1" width="13" height="6.5"/>
		<g>
			<polygon class="st2" points="20.1,12.4 20.1,12.4 20.1,12.4 			"/>
			<polygon class="st2" points="26.6,18.9 26.6,18.9 13.6,18.9 13.6,18.9 13.6,18.9 20.1,25.3 26.6,18.9 			"/>
			<polygon class="st1" points="26.6,12.4 20.1,12.4 26.6,18.9 			"/>
			<polygon class="st1" points="13.6,12.4 13.6,18.9 20.1,12.4 			"/>
			<polygon class="st6" points="26.6,18.9 26.6,18.9 20.1,12.4 20.1,12.4 13.6,18.9 13.6,18.9 			"/>
		</g>
		<polygon class="st6" points="26.6,25.3 13.6,25.3 13.6,18.9 7.1,18.9 20.1,31.8 33.1,18.9 26.6,18.9 		"/>
		<polygon class="st2" points="7.1,18.9 13.6,18.9 13.6,12.4 26.6,12.4 26.6,18.9 33.1,18.9 20.1,5.9 		"/>
	</g>
</g>
</svg>
