<?xml version="1.0" encoding="utf-8"?>
<!-- Generator: Adobe Illustrator 21.0.0, SVG Export Plug-In . SVG Version: 6.00 Build 0)  -->
<svg version="1.1" id="Layer_1" xmlns="http://www.w3.org/2000/svg" xmlns:xlink="http://www.w3.org/1999/xlink" x="0px" y="0px"
	 viewBox="0 0 37.2 51" style="enable-background:new 0 0 37.2 51;" xml:space="preserve">
<style type="text/css">
	.st0{fill:#FFFFFF;}
	.st1{fill:none;}
	.st2{fill:#00006C;}
	.st3{fill:#42CD00;}
	.st4{fill:#FA0000;}
	.st5{fill:#FF7900;}
	.st6{fill:#FFD200;}
	.st7{fill:#00C599;}
	.st8{fill:#00A6FF;}
	.st9{fill:#B300D8;}
	.st10{fill:#CA0096;}
	.st11{fill:#924EFF;}
</style>
<g>
	<path class="st0" d="M37.2,18.9C37.2,29.3,18.6,51,18.6,51S0,29.3,0,18.9S8.3,0,18.6,0S37.2,8.4,37.2,18.9z"/>
	<g>
		<rect x="12.1" y="18.9" class="st1" width="13" height="6.5"/>
		<g>
			<polygon class="st2" points="18.6,12.4 18.6,12.4 18.6,12.4 			"/>
			<polygon class="st2" points="25.1,18.9 25.1,18.9 12.1,18.9 12.1,18.9 12.1,18.9 18.6,25.3 25.1,18.9 			"/>
			<polygon class="st1" points="25.1,12.4 18.6,12.4 25.1,18.9 			"/>
			<polygon class="st1" points="12.1,12.4 12.1,18.9 18.6,12.4 			"/>
			<polygon class="st7" points="25.1,18.9 25.1,18.9 18.6,12.4 18.6,12.4 12.1,18.9 12.1,18.9 			"/>
		</g>
		<polygon class="st7" points="25.1,25.3 12.1,25.3 12.1,18.9 5.6,18.9 18.6,31.8 31.6,18.9 25.1,18.9 		"/>
		<polygon class="st2" points="5.6,18.9 12.1,18.9 12.1,12.4 25.1,12.4 25.1,18.9 31.6,18.9 18.6,5.9 		"/>
	</g>
</g>
</svg>
