<?xml version="1.0" encoding="utf-8"?>
<!-- Generator: Adobe Illustrator 21.0.0, SVG Export Plug-In . SVG Version: 6.00 Build 0)  -->
<svg version="1.1" id="Layer_1" xmlns="http://www.w3.org/2000/svg" xmlns:xlink="http://www.w3.org/1999/xlink" x="0px" y="0px"
	 viewBox="0 0 76.3 106" style="enable-background:new 0 0 76.3 106;" xml:space="preserve">
<style type="text/css">
	.st0{fill:#261861;}
	.st1{fill:url(#SVGID_1_);}
</style>
<g>
	<g>
		<path class="st0" d="M38.2,2.8c-19.9,0-36,16.1-36,36c0,27.6,36,64.5,36,64.5s36-36.9,36-64.5C74.2,18.9,58,2.8,38.2,2.8z"/>
	</g>
	<linearGradient id="SVGID_1_" gradientUnits="userSpaceOnUse" x1="53.5051" y1="36.6502" x2="27.0064" y2="36.6502">
		<stop  offset="4.006410e-05" style="stop-color:#FF003E"/>
		<stop  offset="1" style="stop-color:#0090FF"/>
	</linearGradient>
	<path class="st1" d="M16.6,38.8l-5.4-5.4l5.4-5.4l5.4,5.4L16.6,38.8z M23.1,32.3l5.4-5.4l-5.4-5.4l-5.4,5.4L23.1,32.3z M16.6,41
		l-5.4,5.4l5.4,5.4l5.4-5.4L16.6,41z M17.7,39.9l5.4,5.4l5.4-5.4l-5.4-5.4L17.7,39.9z M55.6,38.8l5.4-5.4l-5.4-5.4l-5.4,5.4
		L55.6,38.8z M67.5,39.9l-5.4-5.4l-5.4,5.4l5.4,5.4L67.5,39.9z M48,33.4l-5.4-5.4l-5.4,5.4l5.4,5.4L48,33.4z M30.7,39.9l5.4,5.4
		l5.4-5.4l-5.4-5.4L30.7,39.9z M49.1,34.5l-5.4,5.4l5.4,5.4l5.4-5.4L49.1,34.5z"/>
</g>
</svg>
