<svg xmlns="http://www.w3.org/2000/svg" viewBox="0 0 2158.71 1601.53"><defs><style>.cls-1{fill:#420fbb;}</style></defs><title>Ресурс 6</title><g id="Слой_2" data-name="Слой 2"><g id="Layer_1" data-name="Layer 1"><g id="comp"><path class="cls-1" d="M2158.71,31.7l-47.65,27.52-75-43.28L2062.88.48l-.27-.48-27.05,15.62L2008.51,0l-.27.48L2035,15.94l-75,43.28-75-43.28L1911.87.48,1911.6,0l-27,15.62L1857.51,0l-.27.48L1884,15.94l-75,43.28-75-43.28L1760.87.48,1760.6,0l-27,15.62L1706.51,0l-.27.48L1733,15.94l-75,43.28-75-43.28L1609.87.48,1609.6,0l-27,15.62L1555.51,0l-.27.48L1582,15.94l-75,43.28-75-43.28L1458.87.48,1458.6,0l-27,15.62L1404.51,0l-.27.48L1431,15.94l-75,43.28-75-43.28L1307.87.48,1307.6,0l-27,15.62L1253.5,0l-.27.48L1280,15.94l-75,43.28-75-43.28L1156.86.48l-.27-.48L1140.4,9.35l-.34.19-10.52,6.08-2.5-1.45v.64l2,1.12-75,43.29L979.09,15.94,1005.86.48l-.27-.48L978.54,15.62,951.5,0l-.27.48L978,15.94,903,59.22,828.09,15.94,854.86.48,854.59,0,827.54,15.62,800.5,0l-.27.48L827,15.94,752,59.22,677.09,15.94,703.86.48,703.59,0,676.54,15.62,649.49,0l-.27.48L676,15.94,601,59.22,526.09,15.94,552.85.48,552.58,0l-27,15.62L498.49,0l-.27.48L525,15.94,450,59.22l-75-43.28L401.85.48,401.58,0l-27,15.62L347.49,0l-.27.48L374,15.94,299,59.22,224.08,15.94,250.85.48,250.58,0,223.53,15.62,196.49,0l-.27.48L223,15.94,148,59.22,73.08,15.94,99.85.48,99.58,0l-27,15.62L45.49,0l-.27.48L72,15.94,0,57.51v.63L72.53,16.25l74.95,43.29L72.53,102.82,0,60.94v.62l72,41.58L0,144.71v.63l72.53-41.88,74.95,43.28L72.53,190,0,148.14v.63l72,41.57L0,231.92v.63l72.53-41.89L147.48,234,72.53,277.23,0,235.35V236l72,41.58L0,319.12v.63l72.53-41.89,74.95,43.29L72.53,364.43,0,322.55v.63l72,41.57L0,406.33V407l72.53-41.88,74.95,43.28L72.53,451.64,0,409.75v.63L72,452,0,493.53v.63l72.53-41.89,74.95,43.29L72.53,538.84,0,497v.62l72,41.58L0,580.73v.63l72.53-41.88,74.95,43.28L72.53,626.05,0,584.16v.63l72,41.57L0,667.94v.62l72.53-41.88L147.48,670,72.53,713.25,0,671.36V672l72,41.58L0,755.14v.63l72.53-41.89,74.95,43.29-47.9,27.66h0l-2.67,1.54L72.53,800.45,63.06,795,45.49,784.83h0L0,758.57v.62L53.33,790,72,800.77l-9.88,5.71L0,842.34V843L45.49,816.7h0l27-15.61L91.38,812l56.1,32.4L72.53,887.66,0,845.77v.63L72,888,0,929.54v.63l72.53-41.88,74.95,43.28-74.95,43.3L0,933v.64l72,41.56L0,1016.75v.63l72.53-41.89,74.95,43.29-74.95,43.28L0,1020.18v.63l72,41.57L0,1104v.63l72.53-41.89L147.48,1106l-74.95,43.29L0,1107.38v.64l72,41.56L0,1191.16v.62l72.53-41.88,74.95,43.28-74.95,43.29L0,1194.58v.64l72,41.56L0,1278.36v.63l72.53-41.89,74.95,43.29-74.95,43.29L0,1281.79v.63L72,1324,0,1365.56v.63l72.53-41.88,74.95,43.28-74.95,43.3L0,1369v.64l72,41.56L0,1452.77v.62l72.53-41.88,74.95,43.28-74.95,43.3L0,1456.19v.64l72,41.57L0,1540v.63l72.53-41.89L147.48,1542l-74.95,43.29L0,1543.4v.63l72,41.57-26.76,15.47.27.46,27-15.61,27.05,15.61.27-.46L73.08,1585.6l75-43.29L223,1585.6l-26.76,15.47.27.46,27-15.61,27.05,15.61.27-.46-26.77-15.47L299,1542.31l75,43.29-26.77,15.47.27.46,27.05-15.61,27,15.61.27-.46-26.77-15.47,75-43.29L525,1585.6l-26.77,15.47.27.46,27-15.61,27,15.61.27-.46-26.76-15.47L601,1542.31l75,43.29-26.77,15.47.27.46,27-15.61,27.05,15.61.27-.46-26.77-15.47L752,1542.31l75,43.29-26.76,15.47.27.46,27-15.61,27.05,15.61.27-.46-26.77-15.47L903,1542.31l75,43.29-26.76,15.47.27.46,27-15.61,27.05,15.61.27-.46-26.77-15.47,74.95-43.29,75,43.29-2,1.13v.64l2.51-1.45,27,15.61.27-.46-26.76-15.47,75-43.29,75,43.29-26.77,15.47.27.46,27-15.61,27,15.61.27-.46-26.77-15.47,75-43.29,75,43.29-26.76,15.47.27.46,27-15.61,27,15.61.27-.46-26.77-15.47,75-43.29,75,43.29-26.76,15.47.27.46,27-15.61,27,15.61.27-.46-26.77-15.47,75-43.29,75,43.29-26.78,15.47.27.46,27-15.61,27,15.61.27-.46-26.77-15.47,75-43.29,75,43.29-26.78,15.47.27.46,27-15.61,27,15.61.27-.46-26.76-15.47,75-43.29,75,43.29-26.78,15.47.27.46,27-15.61,27.05,15.61.27-.46-26.77-15.47,75-43.29,47.65,27.53v-.63l-47.1-27.21,47.1-27.2v-.63l-47.65,27.52-75-43.29,75-43.29,47.65,27.53V1482l-47.1-27.21,47.1-27.2V1427l-47.65,27.53-75-43.3,75-43.28,47.65,27.52v-.63l-47.1-27.21,47.1-27.2v-.63l-47.65,27.52-75-43.29,75-43.29,47.65,27.53v-.63l-47.1-27.21,47.1-27.2v-.64l-47.65,27.53-75-43.3,75-43.28,47.65,27.52v-.63l-47.1-27.21,47.1-27.2v-.63l-47.65,27.53-75-43.3,75-43.28,47.65,27.52v-.64l-47.1-27.2,47.1-27.2v-.63l-47.65,27.52-75-43.29,75-43.29,47.65,27.53V1046l-47.1-27.2,47.1-27.2v-.64l-47.65,27.53-75-43.3,75-43.28,47.65,27.52v-.63l-47.1-27.21,47.1-27.2v-.63l-47.65,27.52-75-43.29,75-43.29,47.65,27.53v-.63l-47.1-27.21,47.1-27.2v-.63l-47.65,27.52L2059,814l-22.91-13.23,26.77-15.46h0l48.18-27.83L2158.71,785v-.63l-47.1-27.2,47.1-27.21v-.63l-47.65,27.52-75-43.28,75-43.29,47.65,27.52v-.63L2111.61,670l47.1-27.2v-.63l-47.65,27.52-75-43.29,75-43.28,47.65,27.52V610l-47.1-27.21,47.1-27.2v-.64l-47.65,27.52-75-43.28,75-43.29,47.65,27.52v-.63l-47.1-27.2,47.1-27.21v-.63l-47.65,27.52-75-43.29,75-43.28,47.65,27.52v-.63l-47.1-27.21,47.1-27.2v-.63L2111.06,408l-75-43.29,75-43.28L2158.71,349v-.64l-47.1-27.2,47.1-27.21v-.63l-47.65,27.52-75-43.28,75-43.29,47.65,27.52v-.63l-47.1-27.2,47.1-27.21v-.63l-47.65,27.52-75-43.29,75-43.28,47.65,27.52V174l-47.1-27.21,47.1-27.2v-.64l-47.65,27.52-75-43.28,75-43.29,47.65,27.52v-.63l-47.1-27.2,47.1-27.21ZM2035,103.14l-75,43.28-75-43.28,75-43.29Zm0,697.63-26.77,15.46h0l-48.18,27.83-65.66-37.92-9.29-5.37,17.33-10,57.62-33.28,48.18,27.83h0ZM196.49,816.7h0l27-15.61,24.85,14.34,50.11,28.94-75,43.29-74.95-43.29Zm0-31.87h0l-47.91-27.67,74.95-43.29,75,43.29-47.91,27.67h0l-11.93,6.89-15.12,8.73-9.59-5.53Zm1715.11,0h0l-18,10.4-9,5.22-75-43.28,75-43.29,75,43.29Zm47.92,59.53-75,43.29-75-43.29,58.14-33.58,16.81-9.7,27,15.61h0ZM224.08,800.77l26.77-15.46h0L299,757.48l48.19,27.83h0L374,800.77l-17.86,10.32-57.1,33-48.18-27.83h0Zm1659.93,0-26.77,15.46h0l-48.18,27.83-58.93-34-16-9.26,26.77-15.46h0l48.19-27.83,48.18,27.83h0ZM353.12,813.45l21.42-12.36,27,15.61h0l47.91,27.67-74.95,43.29-75-43.29Zm-5.63-28.62h0l-47.91-27.66,75-43.29,74.95,43.29-47.91,27.67h0l-18,10.4-9,5.22-16.72-9.65Zm1413.11,0-18,10.4-9,5.22-16.72-9.65-10.33-6h0l-47.91-27.66,75-43.29,75,43.29-47.92,27.67Zm47.92,59.54-75,43.29-75-43.29,53.54-30.92,21.42-12.36,27,15.61h0ZM391.11,810l-16-9.26,26.77-15.46h0L450,757.48l48.18,27.83h0L525,800.77l-26.77,15.46h0L450,844.06ZM1733,800.77l-17.86,10.32-57.1,33-48.18-27.83h0l-26.77-15.46,26.77-15.46h0l48.18-27.83,48.19,27.83h0ZM1609.6,784.83l-11.92,6.89-15.13,8.73-9.59-5.53-17.45-10.09h0l-47.91-27.67,75-43.29,75,43.29-47.92,27.67ZM535.38,806.14l-9.29-5.37,17.32-10L601,757.48l48.18,27.83h0L676,800.77l-26.77,15.46h0L601,844.06Zm1027.14-16.62L1582,800.77l-9.88,5.71-65.07,37.58-48.18-27.83h0l-26.77-15.46,26.77-15.46h0l48.18-27.83Zm-103.92-4.69-2.66,1.54-24.39,14.08-9.59-5.53-17.45-10.09h0l-47.91-27.67,75-43.29,75,43.29-47.9,27.66ZM700,814l-22.91-13.23,26.77-15.46h0L752,757.48l52.69,30.43L827,800.77l-10.54,6.09L752,844.06Zm154.59-29.17-5.92,3.42-21.13,12.2-10.21-5.89-16.83-9.73h0l-47.91-27.67,74.95-43.29,75,43.29-47.9,27.66ZM800.5,816.7h0l27-15.61,20.07,11.59,54.88,31.69-75,43.29-74.95-43.29ZM851,814l-22.91-13.23,26.77-15.46h0L903,757.48l52.69,30.43L978,800.77l-10.54,6.09L903,844.06Zm154.59-29.17-12.8,7.39-14.25,8.23-10.21-5.89-16.83-9.73h0l-47.91-27.67,74.95-43.29,75,43.29-47.91,27.67ZM951.5,816.7h0l27-15.61,26.19,15.11,48.77,28.17-75,43.29-74.95-43.29ZM1002,814l-22.91-13.23,26.77-15.46h0L1054,757.48l73,42.16h0l2,1.13-75,43.29Zm154.59-29.16h0l-16.19,9.35-.34.2-10.51,6.07L1127,799h0l-72.45-41.84,75-43.29,75,43.29ZM1127,802.53h0l2.51-1.45,27,15.61h0l47.91,27.67-75,43.28-75-43.28Zm12.94,4-9.88-5.71,19.48-11.25,55.47-32,48.18,27.83h0L1280,800.77l-26.77,15.46h0l-48.18,27.83Zm167.62-21.65-2.66,1.54-24.39,14.08-24.38-14.08-2.67-1.54h0l-47.9-27.66,75-43.29,75,43.29-47.9,27.66Zm-44.82,26.52,17.77-10.26,17.78,10.26,57.17,33-75,43.29-75-43.29Zm45.09,4.88h0l-26.77-15.46,26.77-15.46h0l48.18-27.83,55.47,32L1431,800.77l-9.88,5.71-65.07,37.58Zm96.64.47h0l27-15.61,17.78,10.26,57.17,33-75,43.29-75-43.29ZM1356.6,670l75-43.28,75,43.28-75,43.29Zm74.4,43.61-75,43.28-75-43.28,75-43.29Zm-150.45-.32-75-43.29,75-43.28,75,43.28Zm-.55.32-75,43.28-75-43.28,75-43.29Zm-150.45-.32-75-43.29,75-43.28,75,43.28Zm-.55.32-2,1.13h0l-73,42.14-74.95-43.28L1054,670.28Zm-150.46-.32L903.59,670l74.95-43.28,75,43.28Zm-.55.32-75,43.28-74.95-43.28L903,670.28Zm-150.45-.32L752.59,670l74.95-43.28,75,43.28Zm-.55.32-75,43.28-74.95-43.28L752,670.28Zm-150.45-.32L601.59,670l74.95-43.28,75,43.28Zm75,43.92-47.9,27.66h0l-5.92,3.42-21.13,12.2-74.95-43.28,74.95-43.29Zm-91.76,53.62,16.81-9.7,20.07,11.59,54.88,31.69-75,43.29-74.95-43.29Zm91.76,120.78-75,43.3-74.95-43.3,74.95-43.28ZM677.09,888,752,844.68,827,888l-75,43.29Zm150.45.32,75,43.28-75,43.3-74.95-43.3Zm.55-.32L903,844.68,978,888l-75,43.29Zm150.45.32,75,43.28-75,43.3-74.95-43.3Zm.55-.32L1054,844.68,1129,888l-75,43.29Zm150.46.32,75,43.28-75,43.29-75-43.29Zm.55-.32,75-43.29L1280,888l-75,43.29Zm150.45.32,75,43.28-75,43.3-75-43.3Zm.55-.32,75-43.29L1431,888l-75,43.29Zm150.45.32,75,43.28-75,43.3-75-43.3Zm.55-.32,75-43.29L1582,888l-75,43.29Zm0-174.4,75-43.29,75,43.29-75,43.28Zm0-87.21,75-43.28,75,43.28-75,43.29Zm-.55-.31-75-43.29,75-43.28,75,43.28Zm-.55.31-75,43.29-75-43.29,75-43.28Zm-150.45-.31-75-43.29,75-43.28,75,43.28Zm-.55.31-75,43.29-75-43.29,75-43.28Zm-150.45-.31-75-43.29,75-43.28,75,43.28Zm-.55.31-2,1.13h0l-73,42.15-74.95-43.29L1054,583.08Zm-150.46-.31-74.95-43.29,74.95-43.28,75,43.28Zm-.55.31-75,43.29-74.95-43.29L903,583.08Zm-150.45-.31-74.95-43.29,74.95-43.28,75,43.28Zm-.55.31-75,43.29-74.95-43.29L752,583.08Zm-150.45-.31-74.95-43.29,74.95-43.28,75,43.28Zm-.55.31-75,43.29-74.95-43.29L601,583.08Zm0,87.21-75,43.28-74.95-43.28L601,670.28ZM676,888l-75,43.29L526.09,888,601,844.68Zm0,87.2-75,43.3-74.95-43.3L601,931.89Zm.55.32,75,43.29-75,43.28-74.95-43.28Zm.55-.32L752,931.89l75,43.28-75,43.3Zm150.45.32,75,43.29-75,43.28-74.95-43.28Zm.55-.32L903,931.89l75,43.28-75,43.3Zm150.45.32,75,43.29-75,43.28-74.95-43.28Zm.55-.32L1054,931.89l75,43.29-2,1.13h0l-73,42.16Zm150.46.32,75,43.29-75,43.28-75-43.28Zm.55-.32,75-43.28,75,43.28-75,43.3Zm150.45.32,75,43.29-75,43.28-75-43.28Zm.55-.32,75-43.28,75,43.28-75,43.3Zm150.45.32,75,43.29-75,43.28-75-43.28Zm.55-.32,75-43.28,75,43.28-75,43.3Zm150.45.32,75,43.29-75,43.28-75-43.28Zm-75-43.92,75-43.28,75,43.28-75,43.3Zm0-87.2,47.91-27.67h0l27-15.61,23,13.28,52,30-75,43.29Zm0-174.41,75-43.28,75,43.28-75,43.29Zm0-87.2,75-43.28,75,43.28-75,43.29Zm0-87.2,75-43.29,75,43.29-75,43.28Zm74.4,43.6-75,43.28-75-43.28,75-43.29Zm-150.45-.32-75-43.28,75-43.29,75,43.29Zm-.55.32-75,43.28-75-43.28,75-43.29Zm-150.45-.32-75-43.28,75-43.29,75,43.29Zm-.55.32-75,43.28-75-43.28,75-43.29Zm-150.45-.32-75-43.28,75-43.29,75,43.29Zm-.55.32-2,1.13h0l-73,42.15-74.95-43.28L1054,495.87Zm-150.46-.32-74.95-43.28,74.95-43.29,75,43.29Zm-.55.32-75,43.28-74.95-43.28L903,495.87Zm-150.45-.32-74.95-43.28,74.95-43.29,75,43.29Zm-.55.32-75,43.28-74.95-43.28L752,495.87Zm-150.45-.32-74.95-43.28,74.95-43.29,75,43.29Zm-.55.32-75,43.28-74.95-43.28L601,495.87Zm-150.45-.32-74.95-43.28,74.95-43.29,75,43.29Zm75,43.92-75,43.29-74.95-43.29,74.95-43.28Zm0,87.2-75,43.29L450.59,670l74.95-43.28Zm0,87.21-47.91,27.67h0l-18,10.4-9,5.22-74.95-43.28,74.95-43.29Zm-91.76,53.62,16.81-9.7,27,15.61h0l47.91,27.67-75,43.29-74.95-43.29Zm91.76,120.78-75,43.3-74.95-43.3,74.95-43.28Zm0,87.21-75,43.28-74.95-43.28,74.95-43.29Zm0,87.2-75,43.29L450.59,1106l74.95-43.29Zm-74.4-43.6L601,1019.09l75,43.29-75,43.29Zm150.45.31,75,43.29-75,43.29L601.59,1106Zm.55-.31L752,1019.09l75,43.29-75,43.29Zm150.45.31,75,43.29-75,43.29L752.59,1106Zm.55-.31L903,1019.09l75,43.29-75,43.29Zm150.45.31,75,43.29-75,43.29L903.59,1106Zm.55-.31,74.95-43.29,75,43.29-2,1.13h0l-73,42.15Zm150.46.31,75,43.29-75,43.29-75-43.29Zm.55-.31,75-43.29,75,43.29-75,43.29Zm150.45.31,75,43.29-75,43.29-75-43.29Zm.55-.31,75-43.29,75,43.29-75,43.29Zm150.45.31,75,43.29-75,43.29-75-43.29Zm.55-.31,75-43.29,75,43.29-75,43.29Zm150.45.31,75,43.29-75,43.29-75-43.29Zm.55-.31,75-43.29,75,43.29-75,43.29Zm0-87.21,75-43.28,75,43.28-75,43.3Zm0-87.2,75-43.29L1733,888l-75,43.29Zm0-174.4,75-43.29,75,43.29-75,43.28Zm0-87.21,75-43.28,75,43.28-75,43.29Zm0-87.2,75-43.29,75,43.29-75,43.28Zm0-87.21,75-43.28L1733,452l-75,43.29Zm-.55-.31-75-43.29,75-43.28,75,43.28Zm-.55.31-75,43.29-75-43.29,75-43.28Zm-150.45-.31-75-43.29,75-43.28,75,43.28Zm-.55.31-75,43.29-75-43.29,75-43.28Zm-150.45-.31-75-43.29,75-43.28,75,43.28Zm-.55.31-75,43.29-75-43.29,75-43.28Zm-150.45-.31-75-43.29,75-43.28,75,43.28Zm-.55.31-2,1.13h0l-73,42.16L979.09,452,1054,408.67Zm-150.46-.31-74.95-43.29,74.95-43.28,75,43.28ZM978,452l-75,43.29L828.09,452,903,408.67Zm-150.45-.31-74.95-43.29,74.95-43.28,75,43.28ZM827,452l-75,43.29L677.09,452,752,408.67Zm-150.45-.31-74.95-43.29,74.95-43.28,75,43.28ZM676,452l-75,43.29L526.09,452,601,408.67Zm-150.45-.31-74.95-43.29,74.95-43.28,75,43.28ZM525,452,450,495.24l-75-43.29,75-43.28Zm0,87.21L450,582.44l-75-43.28,75-43.29Zm0,87.2L450,669.65l-75-43.29,75-43.28Zm0,87.21L450,756.85l-75-43.28,75-43.29ZM525,888,450,931.26l-75-43.29,75-43.29Zm0,87.2L450,1018.47l-75-43.3,75-43.28Zm0,87.21L450,1105.67l-75-43.29,75-43.29Zm0,87.2L450,1192.88l-75-43.3,75-43.28Zm.55.32,75,43.28-75,43.29-74.95-43.29Zm.55-.32L601,1106.3l75,43.28-75,43.3Zm150.45.32,75,43.28-75,43.29-74.95-43.29Zm.55-.32L752,1106.3l75,43.28-75,43.3Zm150.45.32,75,43.28-75,43.29-74.95-43.29Zm.55-.32L903,1106.3l75,43.28-75,43.3Zm150.45.32,75,43.28-75,43.29-74.95-43.29Zm.55-.32L1054,1106.3l75,43.28-2,1.13h0l-73,42.16Zm150.46.32,75,43.28-75,43.29-75-43.29Zm.55-.32,75-43.28,75,43.28-75,43.3Zm150.45.32,75,43.28-75,43.29-75-43.29Zm.55-.32,75-43.28,75,43.28-75,43.3Zm150.45.32,75,43.28-75,43.29-75-43.29Zm.55-.32,75-43.28,75,43.28-75,43.3Zm150.45.32,75,43.28-75,43.29-75-43.29Zm.55-.32,75-43.28,75,43.28-75,43.3Zm150.46.32,75,43.28-75,43.29-75-43.29Zm-75-43.92,75-43.29,75,43.29-75,43.29Zm0-87.2,75-43.29,75,43.29-75,43.28Zm0-87.21,75-43.28,75,43.28-75,43.3Zm0-261.61,75-43.28,75,43.28-75,43.29Zm0-87.2,75-43.28,75,43.28-75,43.29Zm0-87.2,75-43.29,75,43.29-75,43.28Zm0-87.21,75-43.28,75,43.28-75,43.29Zm0-87.2,75-43.29,75,43.29-75,43.28Zm74.42,43.6-75,43.29-75-43.29,75-43.28Zm-150.47-.32-75-43.28,75-43.29,75,43.29Zm-.55.32-75,43.29-75-43.29,75-43.28Zm-150.45-.32-75-43.28,75-43.29,75,43.29Zm-.55.32-75,43.29-75-43.29,75-43.28Zm-150.45-.32-75-43.28,75-43.29,75,43.29Zm-.55.32-75,43.29-75-43.29,75-43.28Zm-150.45-.32-75-43.28,75-43.29,75,43.29Zm-.55.32-2,1.13h0L1054,408l-74.95-43.29L1054,321.47Zm-150.46-.32-74.95-43.28,74.95-43.29,75,43.29Zm-.55.32L903,408l-74.95-43.29L903,321.47Zm-150.45-.32-74.95-43.28,74.95-43.29,75,43.29Zm-.55.32L752,408l-74.95-43.29L752,321.47Zm-150.45-.32-74.95-43.28,74.95-43.29,75,43.29Zm-.55.32L601,408l-74.95-43.29L601,321.47Zm-150.45-.32-74.95-43.28,74.95-43.29,75,43.29Zm-.55.32L450,408l-75-43.29,75-43.28Zm-150.45-.32-75-43.28,75-43.29,74.95,43.29Zm74.95,43.92-74.95,43.29-75-43.29,75-43.28Zm0,87.21-74.95,43.28-75-43.28,75-43.29Zm0,87.2-74.95,43.29-75-43.29,75-43.28Zm0,87.2-74.95,43.29-75-43.29,75-43.28Zm0,261.61-74.95,43.3-75-43.3,75-43.28Zm0,87.21-74.95,43.28-75-43.28,75-43.29Zm0,87.2-74.95,43.29-75-43.29,75-43.29Zm0,87.2-74.95,43.29-75-43.29,75-43.28Zm0,87.21-74.95,43.29-75-43.29,75-43.29Zm-74.41-43.61,75-43.28L525,1236.78,450,1280.08Zm150.46.32,75,43.29-75,43.29-74.95-43.29Zm.55-.32L601,1193.5l75,43.28-75,43.3Zm150.45.32,75,43.29-75,43.29-74.95-43.29Zm.55-.32L752,1193.5l75,43.28-75,43.3Zm150.45.32,75,43.29-75,43.29-74.95-43.29Zm.55-.32L903,1193.5l75,43.28-75,43.3Zm150.45.32,75,43.29-75,43.29-74.95-43.29Zm.55-.32L1054,1193.5l75,43.28-2,1.13h0l-73,42.16Zm150.46.32,75,43.29-75,43.29-75-43.29Zm.55-.32,75-43.28,75,43.28-75,43.3Zm150.45.32,75,43.29-75,43.29-75-43.29Zm.55-.32,75-43.28,75,43.28-75,43.3Zm150.45.32,75,43.29-75,43.29-75-43.29Zm.55-.32,75-43.28,75,43.28-75,43.3Zm150.45.32,75,43.29-75,43.29-75-43.29Zm.55-.32,75-43.28,75,43.28-75,43.3Zm150.46.32,75,43.29-75,43.29-75-43.29Zm.54-.32,75-43.28,75,43.28-75,43.3Zm0-87.2,75-43.28,75,43.28-75,43.3Zm0-87.2,75-43.29,75,43.29-75,43.29Zm0-87.21,75-43.28,75,43.28-75,43.3Zm0-87.2,75-43.29L1884,888l-75,43.29Zm0-174.4,75-43.29,75,43.29-75,43.28Zm0-87.21,75-43.28,75,43.28-75,43.29Zm0-87.2,75-43.29,75,43.29-75,43.28Zm0-87.21,75-43.28L1884,452l-75,43.29Zm0-87.2,75-43.28,75,43.28-75,43.29Zm0-87.2,75-43.29,75,43.29-75,43.28Zm-.54-.32-75-43.28,75-43.29,75,43.29Zm-.54.32-75,43.28-75-43.28,75-43.29Zm-150.47-.32-75-43.28,75-43.29,75,43.29Zm-.55.32-75,43.28-75-43.28,75-43.29Zm-150.45-.32-75-43.28,75-43.29,75,43.29Zm-.55.32-75,43.28-75-43.28,75-43.29Zm-150.45-.32-75-43.28,75-43.29,75,43.29Zm-.55.32-75,43.28-75-43.28,75-43.29Zm-150.45-.32-75-43.28,75-43.29,75,43.29Zm-.55.32-2,1.13h0l-73,42.15-74.95-43.28L1054,234.26Zm-150.46-.32L903.59,234l74.95-43.29,75,43.29Zm-.55.32-75,43.28-74.95-43.28L903,234.26Zm-150.45-.32L752.59,234l74.95-43.29,75,43.29Zm-.55.32-75,43.28-74.95-43.28L752,234.26Zm-150.45-.32L601.59,234l74.95-43.29,75,43.29Zm-.55.32-75,43.28-74.95-43.28L601,234.26Zm-150.45-.32L450.59,234l74.95-43.29,75,43.29Zm-.55.32L450,320.83l-75-43.28,75-43.29Zm-150.45-.32-75-43.28,75-43.29L449.49,234Zm-.55.32-75,43.28-74.95-43.28L299,234.26Zm0,87.2L299,408l-74.95-43.29L299,321.47Zm0,87.2-75,43.29L224.08,452,299,408.67Zm0,87.21-75,43.28-74.95-43.28L299,495.87Zm0,87.2-75,43.29-74.95-43.29L299,583.08Zm0,87.21-75,43.28-74.95-43.28L299,670.28ZM374,888l-75,43.29L224.08,888,299,844.68Zm0,87.2-75,43.3-74.95-43.3L299,931.89Zm0,87.21-75,43.29-74.95-43.29L299,1019.09Zm0,87.2-75,43.3-74.95-43.3L299,1106.3Zm0,87.2-75,43.3-74.95-43.3L299,1193.5Zm0,87.21-75,43.29L224.08,1324,299,1280.7Zm.55.32,74.95,43.28-74.95,43.3-75-43.3Zm.54-.32,75-43.29L525,1324,450,1367.28Zm150.46.32,75,43.28-75,43.3-74.95-43.3Zm.55-.32L601,1280.7,676,1324l-75,43.29Zm150.45.32,75,43.28-75,43.3-74.95-43.3Zm.55-.32L752,1280.7,827,1324l-75,43.29Zm150.45.32,75,43.28-75,43.3-74.95-43.3Zm.55-.32L903,1280.7,978,1324l-75,43.29Zm150.45.32,75,43.28-75,43.3-74.95-43.3Zm.55-.32L1054,1280.7l75,43.29-2,1.13h0l-73,42.15Zm150.46.32,75,43.28-75,43.3-75-43.3Zm.55-.32,75-43.29,75,43.29-75,43.29Zm150.45.32,75,43.28-75,43.3-75-43.3Zm.55-.32,75-43.29,75,43.29-75,43.29Zm150.45.32,75,43.28-75,43.3-75-43.3Zm.55-.32,75-43.29,75,43.29-75,43.29Zm150.45.32,75,43.28-75,43.3-75-43.3Zm.55-.32,75-43.29,75,43.29-75,43.29Zm150.46.32,75,43.28-75,43.3-75-43.3Zm.54-.32,75-43.29,75,43.29-75,43.29Zm150.46.32,75,43.28-75,43.3-75-43.3Zm-75-43.92,75-43.29,75,43.29-75,43.29Zm0-87.21,75-43.28,75,43.28-75,43.29Zm0-87.2,75-43.29,75,43.29-75,43.29Zm0-87.2,75-43.29,75,43.29-75,43.28Zm0-87.21,75-43.28,75,43.28-75,43.3Zm0-261.61,75-43.28,75,43.28-75,43.29Zm0-87.2,75-43.28,75,43.28-75,43.29Zm0-87.2,75-43.29,75,43.29-75,43.28Zm0-87.21,75-43.28,75,43.28-75,43.29Zm0-87.2,75-43.29,75,43.29-75,43.28Zm0-87.2,75-43.29,75,43.29-75,43.28Zm0-87.21,75-43.28,75,43.28-75,43.29Zm74.41,43.6-75,43.29-75-43.29,75-43.28ZM1733.56,190l-75-43.29,75-43.28,75,43.28Zm-.54.31-75,43.29-75-43.29,75-43.28ZM1582.55,190l-75-43.29,75-43.28,75,43.28Zm-.55.31-75,43.29-75-43.29,75-43.28ZM1431.55,190l-75-43.29,75-43.28,75,43.28Zm-.55.31-75,43.29-75-43.29,75-43.28ZM1280.55,190l-75-43.29,75-43.28,75,43.28Zm-.55.31-75,43.29-75-43.29,75-43.28ZM1129.55,190l-75-43.29,75-43.28,75,43.28Zm-.55.31-2,1.13h0l-73,42.15-74.95-43.29L1054,147.06ZM978.54,190l-74.95-43.29,74.95-43.28,75,43.28Zm-.55.31-75,43.29-74.95-43.29L903,147.06ZM827.54,190l-74.95-43.29,74.95-43.28,75,43.28Zm-.55.31-75,43.29-74.95-43.29L752,147.06ZM676.54,190l-74.95-43.29,74.95-43.28,75,43.28Zm-.55.31-75,43.29-74.95-43.29L601,147.06ZM525.54,190l-74.95-43.29,74.95-43.28,75,43.28Zm-.55.31L450,233.63l-75-43.29,75-43.28ZM374.54,190l-75-43.29,75-43.28,74.95,43.28Zm-.55.31-75,43.29-74.95-43.29L299,147.06ZM223.53,190l-74.95-43.29,74.95-43.28,75,43.28Zm75,43.92-75,43.28L148.58,234l74.95-43.29Zm0,87.2-75,43.28-74.95-43.28,74.95-43.29Zm0,87.2-75,43.29-74.95-43.29,74.95-43.28Zm0,87.21-75,43.28-74.95-43.28,74.95-43.29Zm0,87.2-75,43.29-74.95-43.29,74.95-43.28Zm0,87.2-75,43.29L148.58,670l74.95-43.28Zm0,261.61-75,43.3-74.95-43.3,74.95-43.28Zm0,87.21-75,43.28-74.95-43.28,74.95-43.29Zm0,87.2-75,43.29L148.58,1106l74.95-43.29Zm0,87.2-75,43.29-74.95-43.29,74.95-43.28Zm0,87.21-75,43.29-74.95-43.29,74.95-43.29Zm0,87.2-75,43.3-74.95-43.3,74.95-43.28Zm0,87.2-75,43.3-74.95-43.3,74.95-43.28Zm-74.41-43.6L299,1367.91l75,43.28-75,43.3Zm150.46.32,74.95,43.28-74.95,43.3-75-43.3Zm.54-.32,75-43.28L525,1411.19,450,1454.49Zm150.46.32,75,43.28-75,43.3-74.95-43.3Zm.55-.32L601,1367.91l75,43.28-75,43.3Zm150.45.32,75,43.28-75,43.3-74.95-43.3Zm.55-.32L752,1367.91l75,43.28-75,43.3Zm150.45.32,75,43.28-75,43.3-74.95-43.3Zm.55-.32L903,1367.91l75,43.28-75,43.3Zm150.45.32,75,43.28-75,43.3-74.95-43.3Zm.55-.32,74.95-43.28,75,43.28-2,1.13h0l-73,42.16Zm150.46.32,75,43.28-75,43.29-75-43.29Zm.55-.32,75-43.28,75,43.28-75,43.3Zm150.45.32,75,43.28-75,43.3-75-43.3Zm.55-.32,75-43.28,75,43.28-75,43.3Zm150.45.32,75,43.28-75,43.3-75-43.3Zm.55-.32,75-43.28,75,43.28-75,43.3Zm150.45.32,75,43.28-75,43.3-75-43.3Zm.55-.32,75-43.28,75,43.28-75,43.3Zm150.46.32,75,43.28-75,43.3-75-43.3Zm.54-.32,75-43.28,75,43.28-75,43.3Zm150.46.32,75,43.28-75,43.3-75-43.3Zm.55-.32,75-43.28,75,43.28-75,43.3Zm0-87.2,75-43.29,75,43.29-75,43.29Zm0-87.21,75-43.28,75,43.28-75,43.3Zm0-87.2,75-43.28,75,43.28-75,43.3Zm0-87.2,75-43.29,75,43.29-75,43.29Zm0-87.21,75-43.28,75,43.28-75,43.3Zm0-87.2,75-43.29L2035,888l-75,43.29Zm0-174.4,75-43.29,75,43.29-75,43.28Zm0-87.21,75-43.28,75,43.28-75,43.29Zm0-87.2,75-43.29,75,43.29-75,43.28Zm0-87.21,75-43.28L2035,452l-75,43.29Zm0-87.2,75-43.28,75,43.28-75,43.29Zm0-87.2,75-43.29,75,43.29-75,43.28Zm0-87.21,75-43.28,75,43.28-75,43.29Zm-.55-174.09,75,43.29-75,43.28-75-43.28Zm-.54,86.89-75,43.28-75-43.28,75-43.29ZM1733.56,16.25l75,43.29-75,43.28-75-43.28Zm-.54,86.89-75,43.28-75-43.28,75-43.29ZM1582.55,16.25l75,43.29-75,43.28-75-43.28Zm-.55,86.89-75,43.28-75-43.28,75-43.29ZM1431.55,16.25l75,43.29-75,43.28-75-43.28Zm-.55,86.89-75,43.28-75-43.28,75-43.29ZM1280.55,16.25l75,43.29-75,43.28-75-43.28Zm-.55,86.89-75,43.28-75-43.28,75-43.29ZM1129.55,16.25l75,43.29-75,43.28-75-43.28Zm-.55,86.89-75,43.28-74.95-43.28L1054,59.85ZM978.54,16.25l75,43.29-75,43.28L903.59,59.54ZM978,103.14l-75,43.28-74.95-43.28L903,59.85ZM827.54,16.25l75,43.29-75,43.28L752.59,59.54ZM827,103.14l-75,43.28-74.95-43.28L752,59.85ZM676.54,16.25l75,43.29-75,43.28L601.59,59.54ZM676,103.14l-75,43.28-74.95-43.28L601,59.85ZM525.54,16.25l75,43.29-75,43.28L450.59,59.54ZM525,103.14,450,146.42l-75-43.28,75-43.29ZM374.54,16.25l74.95,43.29-74.95,43.28-75-43.28ZM374,103.14l-75,43.28-74.95-43.28L299,59.85ZM223.53,16.25l75,43.29-75,43.28L148.58,59.54ZM73.08,103.14l75-43.29L223,103.14,148,146.42Zm0,87.2,75-43.28L223,190.34,148,233.63Zm0,87.21,75-43.29L223,277.55,148,320.83Zm0,87.2,75-43.28L223,364.75,148,408Zm0,87.2,75-43.28L223,452,148,495.24Zm0,87.21,75-43.29L223,539.16,148,582.44Zm0,87.2,75-43.28L223,626.36,148,669.65Zm0,87.21,75-43.29L223,713.57,148,756.85ZM99.85,816.23h0L73.08,800.77l26.77-15.46h0L148,757.48l55.47,32L223,800.77l-9.88,5.71L148,844.06ZM73.08,888l75-43.29L223,888,148,931.26Zm0,87.2,75-43.28L223,975.17,148,1018.47Zm0,87.21,75-43.29L223,1062.38,148,1105.67Zm0,87.2,75-43.28L223,1149.58,148,1192.88Zm0,87.2,75-43.28L223,1236.78,148,1280.08Zm0,87.21,75-43.29L223,1324,148,1367.28Zm0,87.2,75-43.28L223,1411.19,148,1454.49Zm0,87.21,75-43.29L223,1498.4,148,1541.69Zm150.45,86.89L148.58,1542l74.95-43.29,75,43.29Zm.55-86.89L299,1455.11l75,43.29-75,43.29Zm150.46,86.89-75-43.29,75-43.29L449.49,1542Zm.54-86.89,75-43.29L525,1498.4,450,1541.69Zm150.46,86.89L450.59,1542l74.95-43.29,75,43.29Zm.55-86.89L601,1455.11l75,43.29-75,43.29Zm150.45,86.89L601.59,1542l74.95-43.29,75,43.29Zm.55-86.89L752,1455.11l75,43.29-75,43.29Zm150.45,86.89L752.59,1542l74.95-43.29,75,43.29Zm.55-86.89L903,1455.11l75,43.29-75,43.29Zm150.45,86.89L903.59,1542l74.95-43.29,75,43.29Zm.55-86.89,74.95-43.29,75,43.29-2,1.13h0l-73,42.15Zm150.46,86.89-2.51-1.45h0L1054.59,1542l75-43.29,75,43.29Zm.55-86.89,75-43.29,75,43.29-75,43.29Zm150.45,86.89-75-43.29,75-43.29,75,43.29Zm.55-86.89,75-43.29,75,43.29-75,43.29Zm150.45,86.89-75-43.29,75-43.29,75,43.29Zm.55-86.89,75-43.29,75,43.29-75,43.29Zm150.45,86.89-75-43.29,75-43.29,75,43.29Zm.55-86.89,75-43.29,75,43.29-75,43.29Zm150.46,86.89-75-43.29,75-43.29,75,43.29Zm.54-86.89,75-43.29,75,43.29-75,43.29Zm150.46,86.89-75-43.29,75-43.29,75,43.29Zm.55-86.89,75-43.29,75,43.29-75,43.29Zm225.41,43.6-75,43.29-75-43.29,75-43.29Zm0-87.21-75,43.3-75-43.3,75-43.28Zm0-87.2-75,43.3-75-43.3,75-43.28Zm0-87.2-75,43.29-75-43.29,75-43.29Zm0-87.21-75,43.29-75-43.29,75-43.28Zm0-87.2-75,43.29-75-43.29,75-43.29Zm0-87.2-75,43.28-75-43.28,75-43.29Zm0-87.21-75,43.3-75-43.3,75-43.28Zm-75-43.91-75-43.29,58.14-33.58,16.81-9.7,20.08,11.59,54.88,31.69Zm75-130.49-47.91,27.66h0l-5.92,3.42-21.13,12.2-75-43.28,75-43.29Zm0-87.21-75,43.29-75-43.29,75-43.28Zm0-87.2-75,43.29-75-43.29,75-43.28Zm0-87.2-75,43.28-75-43.28,75-43.29Zm0-87.21-75,43.29-75-43.29,75-43.28Zm0-87.2-75,43.28-75-43.28,75-43.29Zm0-87.2-75,43.28-75-43.28,75-43.29Zm0-87.21-75,43.29-75-43.29,75-43.28Zm-75-43.92-75-43.28,75-43.29,75,43.29Z"/></g></g></g></svg>