<svg xmlns="http://www.w3.org/2000/svg" xmlns:xlink="http://www.w3.org/1999/xlink" viewBox="0 0 131.59 91.35"><defs><style>.cls-1{fill:url(#linear-gradient);}.cls-2{fill:#5b129b;}.cls-3{fill:url(#linear-gradient-2);}.cls-4{fill:#0050ff;}.cls-5{fill:url(#linear-gradient-3);}.cls-6{fill:#002dbc;}.cls-7{fill:url(#linear-gradient-4);}.cls-8{fill:url(#linear-gradient-5);}.cls-9{fill:url(#linear-gradient-6);}.cls-10{fill:url(#linear-gradient-7);}.cls-11{fill:url(#linear-gradient-8);}.cls-12{fill:url(#linear-gradient-9);}.cls-13{fill:#d3d3d3;}.cls-14{fill:url(#linear-gradient-10);}.cls-15,.cls-154,.cls-44,.cls-99{opacity:0.5;}.cls-15{fill:url(#linear-gradient-11);}.cls-16{fill:url(#linear-gradient-12);}.cls-17{fill:url(#linear-gradient-13);}.cls-18{fill:url(#linear-gradient-14);}.cls-19{fill:url(#linear-gradient-15);}.cls-20{fill:url(#linear-gradient-16);}.cls-21{fill:url(#linear-gradient-17);}.cls-22{fill:url(#linear-gradient-18);}.cls-23{fill:url(#linear-gradient-19);}.cls-24{fill:url(#linear-gradient-20);}.cls-25{fill:url(#linear-gradient-21);}.cls-26{fill:url(#linear-gradient-22);}.cls-27{fill:url(#linear-gradient-23);}.cls-28{fill:url(#linear-gradient-24);}.cls-29{fill:url(#linear-gradient-25);}.cls-30{fill:url(#linear-gradient-26);}.cls-31{fill:url(#linear-gradient-27);}.cls-32{fill:url(#linear-gradient-28);}.cls-33{fill:url(#linear-gradient-29);}.cls-34{fill:url(#linear-gradient-30);}.cls-35{fill:url(#linear-gradient-31);}.cls-36{fill:url(#linear-gradient-32);}.cls-37{fill:url(#linear-gradient-33);}.cls-38{fill:url(#linear-gradient-34);}.cls-39{fill:url(#linear-gradient-35);}.cls-40{fill:url(#linear-gradient-36);}.cls-41{fill:url(#linear-gradient-37);}.cls-42{fill:url(#linear-gradient-38);}.cls-43{fill:url(#linear-gradient-39);}.cls-44{fill:url(#linear-gradient-40);}.cls-45{fill:url(#linear-gradient-41);}.cls-46{fill:url(#linear-gradient-42);}.cls-47{fill:url(#linear-gradient-43);}.cls-48{fill:url(#linear-gradient-44);}.cls-49{fill:url(#linear-gradient-45);}.cls-50{fill:url(#linear-gradient-46);}.cls-51{fill:url(#linear-gradient-47);}.cls-52{fill:url(#linear-gradient-48);}.cls-53{fill:url(#linear-gradient-49);}.cls-54{fill:url(#linear-gradient-50);}.cls-55{fill:url(#linear-gradient-51);}.cls-56{fill:url(#linear-gradient-52);}.cls-57{fill:url(#linear-gradient-53);}.cls-58{fill:url(#linear-gradient-54);}.cls-59{fill:url(#linear-gradient-55);}.cls-60{fill:url(#linear-gradient-56);}.cls-61{fill:url(#linear-gradient-57);}.cls-62{fill:url(#linear-gradient-58);}.cls-63{fill:url(#linear-gradient-59);}.cls-64{fill:url(#linear-gradient-60);}.cls-65{fill:url(#linear-gradient-61);}.cls-66{fill:url(#linear-gradient-62);}.cls-67{fill:url(#linear-gradient-63);}.cls-68{fill:url(#linear-gradient-64);}.cls-69{fill:url(#linear-gradient-65);}.cls-70{fill:url(#linear-gradient-66);}.cls-71{fill:url(#linear-gradient-67);}.cls-72{fill:url(#linear-gradient-68);}.cls-73{fill:url(#linear-gradient-69);}.cls-74{fill:url(#linear-gradient-70);}.cls-75{fill:url(#linear-gradient-71);}.cls-76{fill:url(#linear-gradient-72);}.cls-77{fill:url(#linear-gradient-73);}.cls-78{fill:url(#linear-gradient-74);}.cls-79{fill:url(#linear-gradient-75);}.cls-80{fill:url(#linear-gradient-76);}.cls-81{fill:url(#linear-gradient-77);}.cls-82{fill:url(#linear-gradient-78);}.cls-83{fill:url(#linear-gradient-79);}.cls-84{fill:url(#linear-gradient-80);}.cls-85{fill:url(#linear-gradient-81);}.cls-86{fill:url(#linear-gradient-82);}.cls-87{fill:url(#linear-gradient-83);}.cls-88{fill:url(#linear-gradient-84);}.cls-89{fill:url(#linear-gradient-85);}.cls-90{fill:url(#linear-gradient-86);}.cls-91{fill:url(#linear-gradient-87);}.cls-92{fill:url(#linear-gradient-88);}.cls-93{fill:url(#linear-gradient-89);}.cls-94{fill:url(#linear-gradient-90);}.cls-95{fill:url(#linear-gradient-91);}.cls-96{fill:url(#linear-gradient-92);}.cls-97{fill:url(#linear-gradient-93);}.cls-98{fill:url(#linear-gradient-94);}.cls-99{fill:url(#linear-gradient-95);}.cls-100{fill:url(#linear-gradient-96);}.cls-101{fill:url(#linear-gradient-97);}.cls-102{fill:url(#linear-gradient-98);}.cls-103{fill:url(#linear-gradient-99);}.cls-104{fill:url(#linear-gradient-100);}.cls-105{fill:url(#linear-gradient-101);}.cls-106{fill:url(#linear-gradient-102);}.cls-107{fill:url(#linear-gradient-103);}.cls-108{fill:url(#linear-gradient-104);}.cls-109{fill:url(#linear-gradient-105);}.cls-110{fill:url(#linear-gradient-106);}.cls-111{fill:url(#linear-gradient-107);}.cls-112{fill:url(#linear-gradient-108);}.cls-113{fill:url(#linear-gradient-109);}.cls-114{fill:url(#linear-gradient-110);}.cls-115{fill:url(#linear-gradient-111);}.cls-116{fill:url(#linear-gradient-112);}.cls-117{fill:url(#linear-gradient-113);}.cls-118{fill:url(#linear-gradient-114);}.cls-119{fill:url(#linear-gradient-115);}.cls-120{fill:url(#linear-gradient-116);}.cls-121{fill:url(#linear-gradient-117);}.cls-122{fill:url(#linear-gradient-118);}.cls-123{fill:url(#linear-gradient-119);}.cls-124{fill:url(#linear-gradient-120);}.cls-125{fill:url(#linear-gradient-121);}.cls-126{fill:url(#linear-gradient-122);}.cls-127{fill:url(#linear-gradient-123);}.cls-128{fill:url(#linear-gradient-124);}.cls-129{fill:url(#linear-gradient-125);}.cls-130{fill:url(#linear-gradient-126);}.cls-131{fill:url(#linear-gradient-127);}.cls-132{fill:url(#linear-gradient-128);}.cls-133{fill:url(#linear-gradient-129);}.cls-134{fill:url(#linear-gradient-130);}.cls-135{fill:url(#linear-gradient-131);}.cls-136{fill:url(#linear-gradient-132);}.cls-137{fill:url(#linear-gradient-133);}.cls-138{fill:url(#linear-gradient-134);}.cls-139{fill:url(#linear-gradient-135);}.cls-140{fill:url(#linear-gradient-136);}.cls-141{fill:url(#linear-gradient-137);}.cls-142{fill:url(#linear-gradient-138);}.cls-143{fill:url(#linear-gradient-139);}.cls-144{fill:url(#linear-gradient-140);}.cls-145{fill:url(#linear-gradient-141);}.cls-146{fill:url(#linear-gradient-142);}.cls-147{fill:url(#linear-gradient-143);}.cls-148{fill:url(#linear-gradient-144);}.cls-149{fill:url(#linear-gradient-145);}.cls-150{fill:url(#linear-gradient-146);}.cls-151{fill:url(#linear-gradient-147);}.cls-152{fill:url(#linear-gradient-148);}.cls-153{fill:url(#linear-gradient-149);}.cls-154{fill:url(#linear-gradient-150);}</style><linearGradient id="linear-gradient" x1="-730.67" y1="74.54" x2="-647.26" y2="22.35" gradientTransform="matrix(-1, 0, 0, 1, -623.57, 0)" gradientUnits="userSpaceOnUse"><stop offset="0" stop-color="#2a13b7" stop-opacity="0"/><stop offset="0.46" stop-color="#5c18d8" stop-opacity="0.46"/></linearGradient><linearGradient id="linear-gradient-2" x1="-458.09" y1="32.43" x2="-404.16" y2="32.43" gradientTransform="matrix(-1, 0, 0, 1, -403.35, 0)" gradientUnits="userSpaceOnUse"><stop offset="0" stop-color="#961dff"/><stop offset="1" stop-color="#2a13b7"/></linearGradient><linearGradient id="linear-gradient-3" x1="-436.78" y1="15.49" x2="-417.31" y2="15.49" gradientTransform="matrix(-1, 0, 0, 1, -403.35, 0)" gradientUnits="userSpaceOnUse"><stop offset="0" stop-color="#0050ff"/><stop offset="1" stop-color="#3e84ff"/></linearGradient><linearGradient id="linear-gradient-4" x1="-476.46" y1="22.67" x2="-403.35" y2="22.67" xlink:href="#linear-gradient-3"/><linearGradient id="linear-gradient-5" x1="-436.96" y1="14.67" x2="-434.88" y2="8.21" gradientTransform="matrix(-1, 0, 0, 1, -403.35, 0)" gradientUnits="userSpaceOnUse"><stop offset="0" stop-color="#3e84ff"/><stop offset="1" stop-color="#0050ff"/></linearGradient><linearGradient id="linear-gradient-6" x1="-419.53" y1="22.3" x2="-417.46" y2="15.84" xlink:href="#linear-gradient-5"/><linearGradient id="linear-gradient-7" x1="46.92" y1="36.3" x2="54.24" y2="36.3" gradientUnits="userSpaceOnUse"><stop offset="0" stop-color="#fff"/><stop offset="1" stop-color="#a1a1a1"/></linearGradient><linearGradient id="linear-gradient-8" x1="-451.8" y1="33.36" x2="-450.27" y2="33.36" xlink:href="#linear-gradient-3"/><linearGradient id="linear-gradient-9" x1="-453.62" y1="34.42" x2="-452.09" y2="34.42" xlink:href="#linear-gradient-3"/><linearGradient id="linear-gradient-10" x1="58.41" y1="21.82" x2="60.17" y2="21.82" gradientUnits="userSpaceOnUse"><stop offset="0" stop-color="#961dff"/><stop offset="1" stop-color="#5617d5"/></linearGradient><linearGradient id="linear-gradient-11" x1="56.64" y1="21.82" x2="58.41" y2="21.82" gradientUnits="userSpaceOnUse"><stop offset="0" stop-color="#201451" stop-opacity="0"/><stop offset="0.3" stop-color="#201451"/></linearGradient><linearGradient id="linear-gradient-12" x1="58.41" y1="25.66" x2="61.26" y2="25.66" xlink:href="#linear-gradient-10"/><linearGradient id="linear-gradient-13" x1="-523.94" y1="20.4" x2="-509.61" y2="20.4" gradientTransform="matrix(-1, 0, 0, 1, -476.64, 0)" xlink:href="#linear-gradient-3"/><linearGradient id="linear-gradient-14" x1="10.33" y1="52.51" x2="14.08" y2="56.84" gradientTransform="translate(58.35)" xlink:href="#linear-gradient-10"/><linearGradient id="linear-gradient-15" x1="-520.33" y1="23.66" x2="-509.61" y2="23.66" gradientTransform="matrix(-1, 0, 0, 1, -476.64, 0)" xlink:href="#linear-gradient-10"/><linearGradient id="linear-gradient-16" x1="-520.32" y1="26.62" x2="-519.88" y2="26.62" gradientTransform="matrix(-1, 0, 0, 1, -476.64, 0)" xlink:href="#linear-gradient-10"/><linearGradient id="linear-gradient-17" x1="-519.88" y1="26.37" x2="-519.44" y2="26.37" gradientTransform="matrix(-1, 0, 0, 1, -476.64, 0)" xlink:href="#linear-gradient-10"/><linearGradient id="linear-gradient-18" x1="-519.43" y1="26.11" x2="-518.99" y2="26.11" gradientTransform="matrix(-1, 0, 0, 1, -476.64, 0)" xlink:href="#linear-gradient-10"/><linearGradient id="linear-gradient-19" x1="-518.99" y1="25.85" x2="-518.54" y2="25.85" gradientTransform="matrix(-1, 0, 0, 1, -476.64, 0)" xlink:href="#linear-gradient-10"/><linearGradient id="linear-gradient-20" x1="-518.54" y1="25.59" x2="-518.1" y2="25.59" gradientTransform="matrix(-1, 0, 0, 1, -476.64, 0)" xlink:href="#linear-gradient-10"/><linearGradient id="linear-gradient-21" x1="-518.09" y1="25.33" x2="-517.65" y2="25.33" gradientTransform="matrix(-1, 0, 0, 1, -476.64, 0)" xlink:href="#linear-gradient-10"/><linearGradient id="linear-gradient-22" x1="-517.65" y1="25.08" x2="-517.2" y2="25.08" gradientTransform="matrix(-1, 0, 0, 1, -476.64, 0)" xlink:href="#linear-gradient-10"/><linearGradient id="linear-gradient-23" x1="-517.2" y1="24.82" x2="-516.76" y2="24.82" gradientTransform="matrix(-1, 0, 0, 1, -476.64, 0)" xlink:href="#linear-gradient-10"/><linearGradient id="linear-gradient-24" x1="-516.75" y1="24.56" x2="-516.31" y2="24.56" gradientTransform="matrix(-1, 0, 0, 1, -476.64, 0)" xlink:href="#linear-gradient-10"/><linearGradient id="linear-gradient-25" x1="-516.31" y1="24.3" x2="-515.86" y2="24.3" gradientTransform="matrix(-1, 0, 0, 1, -476.64, 0)" xlink:href="#linear-gradient-10"/><linearGradient id="linear-gradient-26" x1="-515.86" y1="24.05" x2="-515.42" y2="24.05" gradientTransform="matrix(-1, 0, 0, 1, -476.64, 0)" xlink:href="#linear-gradient-10"/><linearGradient id="linear-gradient-27" x1="-515.41" y1="23.79" x2="-514.97" y2="23.79" gradientTransform="matrix(-1, 0, 0, 1, -476.64, 0)" xlink:href="#linear-gradient-10"/><linearGradient id="linear-gradient-28" x1="-514.97" y1="23.53" x2="-514.52" y2="23.53" gradientTransform="matrix(-1, 0, 0, 1, -476.64, 0)" xlink:href="#linear-gradient-10"/><linearGradient id="linear-gradient-29" x1="-514.52" y1="23.27" x2="-514.08" y2="23.27" gradientTransform="matrix(-1, 0, 0, 1, -476.64, 0)" xlink:href="#linear-gradient-10"/><linearGradient id="linear-gradient-30" x1="-514.07" y1="23.01" x2="-513.63" y2="23.01" gradientTransform="matrix(-1, 0, 0, 1, -476.64, 0)" xlink:href="#linear-gradient-10"/><linearGradient id="linear-gradient-31" x1="-513.63" y1="22.76" x2="-513.19" y2="22.76" gradientTransform="matrix(-1, 0, 0, 1, -476.64, 0)" xlink:href="#linear-gradient-10"/><linearGradient id="linear-gradient-32" x1="-513.18" y1="22.5" x2="-512.74" y2="22.5" gradientTransform="matrix(-1, 0, 0, 1, -476.64, 0)" xlink:href="#linear-gradient-10"/><linearGradient id="linear-gradient-33" x1="-512.74" y1="22.24" x2="-512.29" y2="22.24" gradientTransform="matrix(-1, 0, 0, 1, -476.64, 0)" xlink:href="#linear-gradient-10"/><linearGradient id="linear-gradient-34" x1="-512.29" y1="21.98" x2="-511.85" y2="21.98" gradientTransform="matrix(-1, 0, 0, 1, -476.64, 0)" xlink:href="#linear-gradient-10"/><linearGradient id="linear-gradient-35" x1="-511.84" y1="21.72" x2="-511.4" y2="21.72" gradientTransform="matrix(-1, 0, 0, 1, -476.64, 0)" xlink:href="#linear-gradient-10"/><linearGradient id="linear-gradient-36" x1="-511.4" y1="21.47" x2="-510.95" y2="21.47" gradientTransform="matrix(-1, 0, 0, 1, -476.64, 0)" xlink:href="#linear-gradient-10"/><linearGradient id="linear-gradient-37" x1="-510.95" y1="21.21" x2="-510.51" y2="21.21" gradientTransform="matrix(-1, 0, 0, 1, -476.64, 0)" xlink:href="#linear-gradient-10"/><linearGradient id="linear-gradient-38" x1="-510.5" y1="20.95" x2="-510.06" y2="20.95" gradientTransform="matrix(-1, 0, 0, 1, -476.64, 0)" xlink:href="#linear-gradient-10"/><linearGradient id="linear-gradient-39" x1="-510.06" y1="20.69" x2="-509.61" y2="20.69" gradientTransform="matrix(-1, 0, 0, 1, -476.64, 0)" xlink:href="#linear-gradient-10"/><linearGradient id="linear-gradient-40" x1="-26.56" y1="25.98" x2="-14.08" y2="26.41" gradientTransform="translate(58.35)" gradientUnits="userSpaceOnUse"><stop offset="0" stop-color="#201451" stop-opacity="0"/><stop offset="0.74" stop-color="#201451"/></linearGradient><linearGradient id="linear-gradient-41" x1="-523.94" y1="15.77" x2="-509.61" y2="15.77" gradientTransform="matrix(-1, 0, 0, 1, -476.64, 0)" xlink:href="#linear-gradient-3"/><linearGradient id="linear-gradient-42" x1="12.62" y1="50.52" x2="16.37" y2="54.86" gradientTransform="translate(58.35)" xlink:href="#linear-gradient-10"/><linearGradient id="linear-gradient-43" x1="-520.33" y1="19.03" x2="-509.61" y2="19.03" gradientTransform="matrix(-1, 0, 0, 1, -476.64, 0)" xlink:href="#linear-gradient-10"/><linearGradient id="linear-gradient-44" x1="-520.32" y1="22" x2="-519.88" y2="22" gradientTransform="matrix(-1, 0, 0, 1, -476.64, 0)" xlink:href="#linear-gradient-10"/><linearGradient id="linear-gradient-45" x1="-519.88" y1="21.74" x2="-519.44" y2="21.74" gradientTransform="matrix(-1, 0, 0, 1, -476.64, 0)" xlink:href="#linear-gradient-10"/><linearGradient id="linear-gradient-46" x1="-519.43" y1="21.48" x2="-518.99" y2="21.48" gradientTransform="matrix(-1, 0, 0, 1, -476.64, 0)" xlink:href="#linear-gradient-10"/><linearGradient id="linear-gradient-47" x1="-518.99" y1="21.22" x2="-518.54" y2="21.22" gradientTransform="matrix(-1, 0, 0, 1, -476.64, 0)" xlink:href="#linear-gradient-10"/><linearGradient id="linear-gradient-48" x1="-518.54" y1="20.96" x2="-518.1" y2="20.96" gradientTransform="matrix(-1, 0, 0, 1, -476.64, 0)" xlink:href="#linear-gradient-10"/><linearGradient id="linear-gradient-49" x1="-518.09" y1="20.71" x2="-517.65" y2="20.71" gradientTransform="matrix(-1, 0, 0, 1, -476.64, 0)" xlink:href="#linear-gradient-10"/><linearGradient id="linear-gradient-50" x1="-517.65" y1="20.45" x2="-517.2" y2="20.45" gradientTransform="matrix(-1, 0, 0, 1, -476.64, 0)" xlink:href="#linear-gradient-10"/><linearGradient id="linear-gradient-51" x1="-517.2" y1="20.19" x2="-516.76" y2="20.19" gradientTransform="matrix(-1, 0, 0, 1, -476.64, 0)" xlink:href="#linear-gradient-10"/><linearGradient id="linear-gradient-52" x1="-516.75" y1="19.93" x2="-516.31" y2="19.93" gradientTransform="matrix(-1, 0, 0, 1, -476.64, 0)" xlink:href="#linear-gradient-10"/><linearGradient id="linear-gradient-53" x1="-516.31" y1="19.67" x2="-515.86" y2="19.67" gradientTransform="matrix(-1, 0, 0, 1, -476.64, 0)" xlink:href="#linear-gradient-10"/><linearGradient id="linear-gradient-54" x1="-515.86" y1="19.42" x2="-515.42" y2="19.42" gradientTransform="matrix(-1, 0, 0, 1, -476.64, 0)" xlink:href="#linear-gradient-10"/><linearGradient id="linear-gradient-55" x1="-515.41" y1="19.16" x2="-514.97" y2="19.16" gradientTransform="matrix(-1, 0, 0, 1, -476.64, 0)" xlink:href="#linear-gradient-10"/><linearGradient id="linear-gradient-56" x1="-514.97" y1="18.9" x2="-514.52" y2="18.9" gradientTransform="matrix(-1, 0, 0, 1, -476.64, 0)" xlink:href="#linear-gradient-10"/><linearGradient id="linear-gradient-57" x1="-514.52" y1="18.64" x2="-514.08" y2="18.64" gradientTransform="matrix(-1, 0, 0, 1, -476.64, 0)" xlink:href="#linear-gradient-10"/><linearGradient id="linear-gradient-58" x1="-514.07" y1="18.38" x2="-513.63" y2="18.38" gradientTransform="matrix(-1, 0, 0, 1, -476.64, 0)" xlink:href="#linear-gradient-10"/><linearGradient id="linear-gradient-59" x1="-513.63" y1="18.13" x2="-513.19" y2="18.13" gradientTransform="matrix(-1, 0, 0, 1, -476.64, 0)" xlink:href="#linear-gradient-10"/><linearGradient id="linear-gradient-60" x1="-513.18" y1="17.87" x2="-512.74" y2="17.87" gradientTransform="matrix(-1, 0, 0, 1, -476.64, 0)" xlink:href="#linear-gradient-10"/><linearGradient id="linear-gradient-61" x1="-512.74" y1="17.61" x2="-512.29" y2="17.61" gradientTransform="matrix(-1, 0, 0, 1, -476.64, 0)" xlink:href="#linear-gradient-10"/><linearGradient id="linear-gradient-62" x1="-512.29" y1="17.35" x2="-511.85" y2="17.35" gradientTransform="matrix(-1, 0, 0, 1, -476.64, 0)" xlink:href="#linear-gradient-10"/><linearGradient id="linear-gradient-63" x1="-511.84" y1="17.09" x2="-511.4" y2="17.09" gradientTransform="matrix(-1, 0, 0, 1, -476.64, 0)" xlink:href="#linear-gradient-10"/><linearGradient id="linear-gradient-64" x1="-511.4" y1="16.84" x2="-510.95" y2="16.84" gradientTransform="matrix(-1, 0, 0, 1, -476.64, 0)" xlink:href="#linear-gradient-10"/><linearGradient id="linear-gradient-65" x1="-510.95" y1="16.58" x2="-510.51" y2="16.58" gradientTransform="matrix(-1, 0, 0, 1, -476.64, 0)" xlink:href="#linear-gradient-10"/><linearGradient id="linear-gradient-66" x1="-510.5" y1="16.32" x2="-510.06" y2="16.32" gradientTransform="matrix(-1, 0, 0, 1, -476.64, 0)" xlink:href="#linear-gradient-10"/><linearGradient id="linear-gradient-67" x1="-510.06" y1="16.06" x2="-509.61" y2="16.06" gradientTransform="matrix(-1, 0, 0, 1, -476.64, 0)" xlink:href="#linear-gradient-10"/><linearGradient id="linear-gradient-68" x1="-519.88" y1="22.83" x2="-505.56" y2="22.83" gradientTransform="matrix(-1, 0, 0, 1, -476.64, 0)" xlink:href="#linear-gradient-3"/><linearGradient id="linear-gradient-69" x1="6.81" y1="55.56" x2="10.56" y2="59.89" gradientTransform="translate(58.35)" xlink:href="#linear-gradient-10"/><linearGradient id="linear-gradient-70" x1="-516.27" y1="26.09" x2="-505.56" y2="26.09" gradientTransform="matrix(-1, 0, 0, 1, -476.64, 0)" xlink:href="#linear-gradient-10"/><linearGradient id="linear-gradient-71" x1="-516.27" y1="29.06" x2="-515.82" y2="29.06" gradientTransform="matrix(-1, 0, 0, 1, -476.64, 0)" xlink:href="#linear-gradient-10"/><linearGradient id="linear-gradient-72" x1="-515.82" y1="28.8" x2="-515.38" y2="28.8" gradientTransform="matrix(-1, 0, 0, 1, -476.64, 0)" xlink:href="#linear-gradient-10"/><linearGradient id="linear-gradient-73" x1="-515.37" y1="28.54" x2="-514.93" y2="28.54" gradientTransform="matrix(-1, 0, 0, 1, -476.64, 0)" xlink:href="#linear-gradient-10"/><linearGradient id="linear-gradient-74" x1="-514.93" y1="28.28" x2="-514.48" y2="28.28" gradientTransform="matrix(-1, 0, 0, 1, -476.64, 0)" xlink:href="#linear-gradient-10"/><linearGradient id="linear-gradient-75" x1="-514.48" y1="28.02" x2="-514.04" y2="28.02" gradientTransform="matrix(-1, 0, 0, 1, -476.64, 0)" xlink:href="#linear-gradient-10"/><linearGradient id="linear-gradient-76" x1="-514.03" y1="27.77" x2="-513.59" y2="27.77" gradientTransform="matrix(-1, 0, 0, 1, -476.64, 0)" xlink:href="#linear-gradient-10"/><linearGradient id="linear-gradient-77" x1="-513.59" y1="27.51" x2="-513.14" y2="27.51" gradientTransform="matrix(-1, 0, 0, 1, -476.64, 0)" xlink:href="#linear-gradient-10"/><linearGradient id="linear-gradient-78" x1="-513.14" y1="27.25" x2="-512.7" y2="27.25" gradientTransform="matrix(-1, 0, 0, 1, -476.64, 0)" xlink:href="#linear-gradient-10"/><linearGradient id="linear-gradient-79" x1="-512.69" y1="26.99" x2="-512.25" y2="26.99" gradientTransform="matrix(-1, 0, 0, 1, -476.64, 0)" xlink:href="#linear-gradient-10"/><linearGradient id="linear-gradient-80" x1="-512.25" y1="26.73" x2="-511.81" y2="26.73" gradientTransform="matrix(-1, 0, 0, 1, -476.64, 0)" xlink:href="#linear-gradient-10"/><linearGradient id="linear-gradient-81" x1="-511.8" y1="26.48" x2="-511.36" y2="26.48" gradientTransform="matrix(-1, 0, 0, 1, -476.64, 0)" xlink:href="#linear-gradient-10"/><linearGradient id="linear-gradient-82" x1="-511.36" y1="26.22" x2="-510.91" y2="26.22" gradientTransform="matrix(-1, 0, 0, 1, -476.64, 0)" xlink:href="#linear-gradient-10"/><linearGradient id="linear-gradient-83" x1="-510.91" y1="25.96" x2="-510.47" y2="25.96" gradientTransform="matrix(-1, 0, 0, 1, -476.64, 0)" xlink:href="#linear-gradient-10"/><linearGradient id="linear-gradient-84" x1="-510.46" y1="25.7" x2="-510.02" y2="25.7" gradientTransform="matrix(-1, 0, 0, 1, -476.64, 0)" xlink:href="#linear-gradient-10"/><linearGradient id="linear-gradient-85" x1="-510.02" y1="25.44" x2="-509.57" y2="25.44" gradientTransform="matrix(-1, 0, 0, 1, -476.64, 0)" xlink:href="#linear-gradient-10"/><linearGradient id="linear-gradient-86" x1="-509.57" y1="25.19" x2="-509.13" y2="25.19" gradientTransform="matrix(-1, 0, 0, 1, -476.64, 0)" xlink:href="#linear-gradient-10"/><linearGradient id="linear-gradient-87" x1="-509.12" y1="24.93" x2="-508.68" y2="24.93" gradientTransform="matrix(-1, 0, 0, 1, -476.64, 0)" xlink:href="#linear-gradient-10"/><linearGradient id="linear-gradient-88" x1="-508.68" y1="24.67" x2="-508.23" y2="24.67" gradientTransform="matrix(-1, 0, 0, 1, -476.64, 0)" xlink:href="#linear-gradient-10"/><linearGradient id="linear-gradient-89" x1="-508.23" y1="24.41" x2="-507.79" y2="24.41" gradientTransform="matrix(-1, 0, 0, 1, -476.64, 0)" xlink:href="#linear-gradient-10"/><linearGradient id="linear-gradient-90" x1="-507.78" y1="24.15" x2="-507.34" y2="24.15" gradientTransform="matrix(-1, 0, 0, 1, -476.64, 0)" xlink:href="#linear-gradient-10"/><linearGradient id="linear-gradient-91" x1="-507.34" y1="23.9" x2="-506.89" y2="23.9" gradientTransform="matrix(-1, 0, 0, 1, -476.64, 0)" xlink:href="#linear-gradient-10"/><linearGradient id="linear-gradient-92" x1="-506.89" y1="23.64" x2="-506.45" y2="23.64" gradientTransform="matrix(-1, 0, 0, 1, -476.64, 0)" xlink:href="#linear-gradient-10"/><linearGradient id="linear-gradient-93" x1="-506.44" y1="23.38" x2="-506" y2="23.38" gradientTransform="matrix(-1, 0, 0, 1, -476.64, 0)" xlink:href="#linear-gradient-10"/><linearGradient id="linear-gradient-94" x1="-506" y1="23.12" x2="-505.56" y2="23.12" gradientTransform="matrix(-1, 0, 0, 1, -476.64, 0)" xlink:href="#linear-gradient-10"/><linearGradient id="linear-gradient-95" x1="-30.61" y1="28.41" x2="-18.14" y2="28.84" xlink:href="#linear-gradient-40"/><linearGradient id="linear-gradient-96" x1="-519.88" y1="18.2" x2="-505.56" y2="18.2" gradientTransform="matrix(-1, 0, 0, 1, -476.64, 0)" xlink:href="#linear-gradient-3"/><linearGradient id="linear-gradient-97" x1="9.1" y1="53.57" x2="12.85" y2="57.91" gradientTransform="translate(58.35)" xlink:href="#linear-gradient-10"/><linearGradient id="linear-gradient-98" x1="-516.27" y1="21.46" x2="-505.56" y2="21.46" gradientTransform="matrix(-1, 0, 0, 1, -476.64, 0)" xlink:href="#linear-gradient-10"/><linearGradient id="linear-gradient-99" x1="-516.27" y1="24.43" x2="-515.82" y2="24.43" gradientTransform="matrix(-1, 0, 0, 1, -476.64, 0)" xlink:href="#linear-gradient-10"/><linearGradient id="linear-gradient-100" x1="-515.82" y1="24.17" x2="-515.38" y2="24.17" gradientTransform="matrix(-1, 0, 0, 1, -476.64, 0)" xlink:href="#linear-gradient-10"/><linearGradient id="linear-gradient-101" x1="-515.37" y1="23.91" x2="-514.93" y2="23.91" gradientTransform="matrix(-1, 0, 0, 1, -476.64, 0)" xlink:href="#linear-gradient-10"/><linearGradient id="linear-gradient-102" x1="-514.93" y1="23.65" x2="-514.48" y2="23.65" gradientTransform="matrix(-1, 0, 0, 1, -476.64, 0)" xlink:href="#linear-gradient-10"/><linearGradient id="linear-gradient-103" x1="-514.48" y1="23.39" x2="-514.04" y2="23.39" gradientTransform="matrix(-1, 0, 0, 1, -476.64, 0)" xlink:href="#linear-gradient-10"/><linearGradient id="linear-gradient-104" x1="-514.03" y1="23.14" x2="-513.59" y2="23.14" gradientTransform="matrix(-1, 0, 0, 1, -476.64, 0)" xlink:href="#linear-gradient-10"/><linearGradient id="linear-gradient-105" x1="-513.59" y1="22.88" x2="-513.14" y2="22.88" gradientTransform="matrix(-1, 0, 0, 1, -476.64, 0)" xlink:href="#linear-gradient-10"/><linearGradient id="linear-gradient-106" x1="-513.14" y1="22.62" x2="-512.7" y2="22.62" gradientTransform="matrix(-1, 0, 0, 1, -476.64, 0)" xlink:href="#linear-gradient-10"/><linearGradient id="linear-gradient-107" x1="-512.69" y1="22.36" x2="-512.25" y2="22.36" gradientTransform="matrix(-1, 0, 0, 1, -476.64, 0)" xlink:href="#linear-gradient-10"/><linearGradient id="linear-gradient-108" x1="-512.25" y1="22.1" x2="-511.81" y2="22.1" gradientTransform="matrix(-1, 0, 0, 1, -476.64, 0)" xlink:href="#linear-gradient-10"/><linearGradient id="linear-gradient-109" x1="-511.8" y1="21.85" x2="-511.36" y2="21.85" gradientTransform="matrix(-1, 0, 0, 1, -476.64, 0)" xlink:href="#linear-gradient-10"/><linearGradient id="linear-gradient-110" x1="-511.36" y1="21.59" x2="-510.91" y2="21.59" gradientTransform="matrix(-1, 0, 0, 1, -476.64, 0)" xlink:href="#linear-gradient-10"/><linearGradient id="linear-gradient-111" x1="-510.91" y1="21.33" x2="-510.47" y2="21.33" gradientTransform="matrix(-1, 0, 0, 1, -476.64, 0)" xlink:href="#linear-gradient-10"/><linearGradient id="linear-gradient-112" x1="-510.46" y1="21.07" x2="-510.02" y2="21.07" gradientTransform="matrix(-1, 0, 0, 1, -476.64, 0)" xlink:href="#linear-gradient-10"/><linearGradient id="linear-gradient-113" x1="-510.02" y1="20.82" x2="-509.57" y2="20.82" gradientTransform="matrix(-1, 0, 0, 1, -476.64, 0)" xlink:href="#linear-gradient-10"/><linearGradient id="linear-gradient-114" x1="-509.57" y1="20.56" x2="-509.13" y2="20.56" gradientTransform="matrix(-1, 0, 0, 1, -476.64, 0)" xlink:href="#linear-gradient-10"/><linearGradient id="linear-gradient-115" x1="-509.12" y1="20.3" x2="-508.68" y2="20.3" gradientTransform="matrix(-1, 0, 0, 1, -476.64, 0)" xlink:href="#linear-gradient-10"/><linearGradient id="linear-gradient-116" x1="-508.68" y1="20.04" x2="-508.23" y2="20.04" gradientTransform="matrix(-1, 0, 0, 1, -476.64, 0)" xlink:href="#linear-gradient-10"/><linearGradient id="linear-gradient-117" x1="-508.23" y1="19.78" x2="-507.79" y2="19.78" gradientTransform="matrix(-1, 0, 0, 1, -476.64, 0)" xlink:href="#linear-gradient-10"/><linearGradient id="linear-gradient-118" x1="-507.78" y1="19.53" x2="-507.34" y2="19.53" gradientTransform="matrix(-1, 0, 0, 1, -476.64, 0)" xlink:href="#linear-gradient-10"/><linearGradient id="linear-gradient-119" x1="-507.34" y1="19.27" x2="-506.89" y2="19.27" gradientTransform="matrix(-1, 0, 0, 1, -476.64, 0)" xlink:href="#linear-gradient-10"/><linearGradient id="linear-gradient-120" x1="-506.89" y1="19.01" x2="-506.45" y2="19.01" gradientTransform="matrix(-1, 0, 0, 1, -476.64, 0)" xlink:href="#linear-gradient-10"/><linearGradient id="linear-gradient-121" x1="-506.44" y1="18.75" x2="-506" y2="18.75" gradientTransform="matrix(-1, 0, 0, 1, -476.64, 0)" xlink:href="#linear-gradient-10"/><linearGradient id="linear-gradient-122" x1="-506" y1="18.49" x2="-505.56" y2="18.49" gradientTransform="matrix(-1, 0, 0, 1, -476.64, 0)" xlink:href="#linear-gradient-10"/><linearGradient id="linear-gradient-123" x1="-542.61" y1="5.48" x2="-528.28" y2="5.48" gradientTransform="matrix(-1, 0, 0, 1, -518.82, 0)" xlink:href="#linear-gradient-3"/><linearGradient id="linear-gradient-124" x1="28.39" y1="36.88" x2="32.14" y2="41.21" gradientTransform="translate(16.17)" xlink:href="#linear-gradient-10"/><linearGradient id="linear-gradient-125" x1="-538.99" y1="8.74" x2="-528.28" y2="8.74" gradientTransform="matrix(-1, 0, 0, 1, -518.82, 0)" xlink:href="#linear-gradient-10"/><linearGradient id="linear-gradient-126" x1="-538.99" y1="11.7" x2="-538.55" y2="11.7" gradientTransform="matrix(-1, 0, 0, 1, -518.82, 0)" xlink:href="#linear-gradient-10"/><linearGradient id="linear-gradient-127" x1="-538.54" y1="11.45" x2="-538.1" y2="11.45" gradientTransform="matrix(-1, 0, 0, 1, -518.82, 0)" xlink:href="#linear-gradient-10"/><linearGradient id="linear-gradient-128" x1="-538.1" y1="11.19" x2="-537.65" y2="11.19" gradientTransform="matrix(-1, 0, 0, 1, -518.82, 0)" xlink:href="#linear-gradient-10"/><linearGradient id="linear-gradient-129" x1="-537.65" y1="10.93" x2="-537.21" y2="10.93" gradientTransform="matrix(-1, 0, 0, 1, -518.82, 0)" xlink:href="#linear-gradient-10"/><linearGradient id="linear-gradient-130" x1="-537.2" y1="10.67" x2="-536.76" y2="10.67" gradientTransform="matrix(-1, 0, 0, 1, -518.82, 0)" xlink:href="#linear-gradient-10"/><linearGradient id="linear-gradient-131" x1="-536.76" y1="10.41" x2="-536.31" y2="10.41" gradientTransform="matrix(-1, 0, 0, 1, -518.82, 0)" xlink:href="#linear-gradient-10"/><linearGradient id="linear-gradient-132" x1="-536.31" y1="10.16" x2="-535.87" y2="10.16" gradientTransform="matrix(-1, 0, 0, 1, -518.82, 0)" xlink:href="#linear-gradient-10"/><linearGradient id="linear-gradient-133" x1="-535.86" y1="9.9" x2="-535.42" y2="9.9" gradientTransform="matrix(-1, 0, 0, 1, -518.82, 0)" xlink:href="#linear-gradient-10"/><linearGradient id="linear-gradient-134" x1="-535.42" y1="9.64" x2="-534.98" y2="9.64" gradientTransform="matrix(-1, 0, 0, 1, -518.82, 0)" xlink:href="#linear-gradient-10"/><linearGradient id="linear-gradient-135" x1="-534.97" y1="9.38" x2="-534.53" y2="9.38" gradientTransform="matrix(-1, 0, 0, 1, -518.82, 0)" xlink:href="#linear-gradient-10"/><linearGradient id="linear-gradient-136" x1="-534.53" y1="9.12" x2="-534.08" y2="9.12" gradientTransform="matrix(-1, 0, 0, 1, -518.82, 0)" xlink:href="#linear-gradient-10"/><linearGradient id="linear-gradient-137" x1="-534.08" y1="8.87" x2="-533.64" y2="8.87" gradientTransform="matrix(-1, 0, 0, 1, -518.82, 0)" xlink:href="#linear-gradient-10"/><linearGradient id="linear-gradient-138" x1="-533.63" y1="8.61" x2="-533.19" y2="8.61" gradientTransform="matrix(-1, 0, 0, 1, -518.82, 0)" xlink:href="#linear-gradient-10"/><linearGradient id="linear-gradient-139" x1="-533.19" y1="8.35" x2="-532.74" y2="8.35" gradientTransform="matrix(-1, 0, 0, 1, -518.82, 0)" xlink:href="#linear-gradient-10"/><linearGradient id="linear-gradient-140" x1="-532.74" y1="8.09" x2="-532.3" y2="8.09" gradientTransform="matrix(-1, 0, 0, 1, -518.82, 0)" xlink:href="#linear-gradient-10"/><linearGradient id="linear-gradient-141" x1="-532.29" y1="7.84" x2="-531.85" y2="7.84" gradientTransform="matrix(-1, 0, 0, 1, -518.82, 0)" xlink:href="#linear-gradient-10"/><linearGradient id="linear-gradient-142" x1="-531.85" y1="7.58" x2="-531.4" y2="7.58" gradientTransform="matrix(-1, 0, 0, 1, -518.82, 0)" xlink:href="#linear-gradient-10"/><linearGradient id="linear-gradient-143" x1="-531.4" y1="7.32" x2="-530.96" y2="7.32" gradientTransform="matrix(-1, 0, 0, 1, -518.82, 0)" xlink:href="#linear-gradient-10"/><linearGradient id="linear-gradient-144" x1="-530.95" y1="7.06" x2="-530.51" y2="7.06" gradientTransform="matrix(-1, 0, 0, 1, -518.82, 0)" xlink:href="#linear-gradient-10"/><linearGradient id="linear-gradient-145" x1="-530.51" y1="6.8" x2="-530.06" y2="6.8" gradientTransform="matrix(-1, 0, 0, 1, -518.82, 0)" xlink:href="#linear-gradient-10"/><linearGradient id="linear-gradient-146" x1="-530.06" y1="6.55" x2="-529.62" y2="6.55" gradientTransform="matrix(-1, 0, 0, 1, -518.82, 0)" xlink:href="#linear-gradient-10"/><linearGradient id="linear-gradient-147" x1="-529.61" y1="6.29" x2="-529.17" y2="6.29" gradientTransform="matrix(-1, 0, 0, 1, -518.82, 0)" xlink:href="#linear-gradient-10"/><linearGradient id="linear-gradient-148" x1="-529.17" y1="6.03" x2="-528.73" y2="6.03" gradientTransform="matrix(-1, 0, 0, 1, -518.82, 0)" xlink:href="#linear-gradient-10"/><linearGradient id="linear-gradient-149" x1="-528.72" y1="5.77" x2="-528.28" y2="5.77" gradientTransform="matrix(-1, 0, 0, 1, -518.82, 0)" xlink:href="#linear-gradient-10"/><linearGradient id="linear-gradient-150" x1="-6.71" y1="11.21" x2="4.53" y2="11.6" gradientTransform="translate(16.17)" xlink:href="#linear-gradient-40"/></defs><title>Ресурс 3</title><g id="Слой_2" data-name="Слой 2"><g id="Layer_1" data-name="Layer 1"><g id="comp"><polygon class="cls-1" points="103.97 91.35 14.33 29.81 29.14 21.25 131.59 71.09 117.76 81.24 103.97 91.35"/><polygon class="cls-2" points="54.74 53.45 67.58 46.03 73.12 34.42 54.19 45.35 54.74 53.45"/><path class="cls-3" d="M54.74,53.45,18,32.46h0C14,30.3.82,11.41.82,11.41L14,19l1,3.67L54.19,45.35Z"/><polygon class="cls-4" points="73.12 34.42 54.19 45.35 14.92 22.67 33.43 11.98 73.12 34.42"/><path class="cls-4" d="M19.74.48,32.9,8.06,14,19,.82,11.41,0,1A1,1,0,0,1,1,0Z"/><polygon class="cls-5" points="33.43 11.98 14.92 22.67 13.96 19 32.47 8.32 33.43 11.98"/><path class="cls-6" d="M2.37,2.28,2.5,4.05l16.62.41,10.07,5.75.91,3.65,37,21.44,1.52-.88L31.63,13l-.95-3.66L19.12,2.7Z"/><path class="cls-7" d="M14.91,22.67,54.19,45.35,71.59,35.3l1.53-.88L33.86,11.72,31.63,13l37,21.43-1.52.88L54.19,42.77l-37-21.42ZM.53,0A.51.51,0,0,0,0,.55L.09,1.76l.73,9.65L14,19l2.16-1.24L3,10.07l-.45-6-.09-1.2a.52.52,0,0,1,.53-.56l16.18.41L30.68,9.33,32.9,8.06,19.74.48Z"/><polygon class="cls-8" points="30.69 9.32 31.65 12.99 31.65 12.99 33.86 11.72 32.9 8.06 30.69 9.32"/><polygon class="cls-9" points="13.96 19 14.91 22.67 17.16 21.35 16.12 17.76 13.96 19"/><polygon class="cls-10" points="46.92 38.57 54.24 42.8 54.24 34.06 46.92 29.79 46.92 38.57"/><polygon class="cls-4" points="54.24 34.06 46.92 29.79 61.74 21.23 69.06 25.5 54.24 34.06"/><polygon class="cls-11" points="46.92 33.83 48.45 34.72 48.45 32.89 46.92 32 46.92 33.83"/><polygon class="cls-12" points="48.74 34.9 50.27 35.78 50.27 33.95 48.74 33.06 48.74 34.9"/><polygon class="cls-13" points="54.25 34.06 54.25 42.8 55.28 42.29 69.06 34.32 69.06 25.5 64.38 28.21 62.45 29.32 54.25 34.06"/><polygon class="cls-4" points="58.41 20.2 61.26 21.85 58.41 23.5 55.56 21.85 58.41 20.2"/><polygon class="cls-14" points="58.41 20.82 58.41 22.82 60.03 21.92 60.17 21.84 58.41 20.82"/><polygon class="cls-15" points="56.64 21.84 56.78 21.92 58.41 22.82 58.41 20.82 56.64 21.84"/><polygon class="cls-6" points="55.56 27.82 58.41 29.46 58.41 23.5 55.56 21.85 55.56 27.82"/><polygon class="cls-16" points="61.26 27.82 58.41 29.46 58.41 23.5 61.26 21.85 61.26 27.82"/><polygon class="cls-17" points="43.68 24.54 47.3 22.45 36.59 16.26 32.97 18.35 43.68 24.54"/><polygon class="cls-18" points="43.68 28.97 47.3 26.88 47.3 22.45 43.68 24.54 43.68 28.97"/><polygon class="cls-19" points="32.97 22.78 43.68 28.97 43.68 24.54 32.97 18.35 32.97 22.78"/><polygon class="cls-20" points="43.24 24.28 43.68 24.54 43.68 28.97 43.24 28.71 43.24 24.28"/><polygon class="cls-21" points="42.79 24.02 43.23 24.28 43.23 28.71 42.79 28.45 42.79 24.02"/><polygon class="cls-22" points="42.35 23.77 42.79 24.02 42.79 28.45 42.35 28.2 42.35 23.77"/><polygon class="cls-23" points="41.9 23.51 42.34 23.76 42.34 28.19 41.9 27.94 41.9 23.51"/><polygon class="cls-24" points="41.45 23.25 41.9 23.5 41.9 27.94 41.45 27.68 41.45 23.25"/><polygon class="cls-25" points="41.01 22.99 41.45 23.25 41.45 27.68 41.01 27.42 41.01 22.99"/><polygon class="cls-26" points="40.56 22.73 41 22.99 41 27.42 40.56 27.17 40.56 22.73"/><polygon class="cls-27" points="40.11 22.48 40.56 22.73 40.56 27.16 40.11 26.91 40.11 22.48"/><polygon class="cls-28" points="39.67 22.22 40.11 22.47 40.11 26.9 39.67 26.65 39.67 22.22"/><polygon class="cls-29" points="39.22 21.96 39.66 22.22 39.66 26.65 39.22 26.39 39.22 21.96"/><polygon class="cls-30" points="38.77 21.7 39.22 21.96 39.22 26.39 38.77 26.13 38.77 21.7"/><polygon class="cls-31" points="38.33 21.45 38.77 21.7 38.77 26.13 38.33 25.88 38.33 21.45"/><polygon class="cls-32" points="37.88 21.19 38.32 21.44 38.32 25.87 37.88 25.62 37.88 21.19"/><polygon class="cls-33" points="37.44 20.93 37.88 21.18 37.88 25.61 37.44 25.36 37.44 20.93"/><polygon class="cls-34" points="36.99 20.67 37.43 20.93 37.43 25.36 36.99 25.1 36.99 20.67"/><polygon class="cls-35" points="36.54 20.41 36.98 20.67 36.98 25.1 36.54 24.84 36.54 20.41"/><polygon class="cls-36" points="36.1 20.16 36.54 20.41 36.54 24.84 36.1 24.59 36.1 20.16"/><polygon class="cls-37" points="35.65 19.9 36.09 20.15 36.09 24.58 35.65 24.33 35.65 19.9"/><polygon class="cls-38" points="35.2 19.64 35.65 19.9 35.65 24.32 35.2 24.07 35.2 19.64"/><polygon class="cls-39" points="34.76 19.38 35.2 19.64 35.2 24.07 34.76 23.81 34.76 19.38"/><polygon class="cls-40" points="34.31 19.12 34.75 19.38 34.75 23.81 34.31 23.56 34.31 19.12"/><polygon class="cls-41" points="33.86 18.87 34.31 19.12 34.31 23.55 33.86 23.3 33.86 18.87"/><polygon class="cls-42" points="33.42 18.61 33.86 18.86 33.86 23.29 33.42 23.04 33.42 18.61"/><polygon class="cls-43" points="32.97 18.35 33.41 18.61 33.41 23.03 32.97 22.78 32.97 18.35"/><path class="cls-44" d="M33,22.81h0s-6.15,5.35-3.26,6.31c.06,0,13.1-.32,13.93-.14,0,0,0,0,0,0Z"/><polygon class="cls-45" points="43.68 19.91 47.3 17.82 36.59 11.63 32.97 13.72 43.68 19.91"/><polygon class="cls-46" points="43.68 24.34 47.3 22.25 47.3 17.82 43.68 19.91 43.68 24.34"/><polygon class="cls-47" points="32.97 18.15 43.68 24.34 43.68 19.91 32.97 13.72 32.97 18.15"/><polygon class="cls-48" points="43.24 19.65 43.68 19.91 43.68 24.34 43.24 24.08 43.24 19.65"/><polygon class="cls-49" points="42.79 19.39 43.23 19.65 43.23 24.08 42.79 23.83 42.79 19.39"/><polygon class="cls-50" points="42.35 19.14 42.79 19.39 42.79 23.82 42.35 23.57 42.35 19.14"/><polygon class="cls-51" points="41.9 18.88 42.34 19.13 42.34 23.57 41.9 23.31 41.9 18.88"/><polygon class="cls-52" points="41.45 18.62 41.9 18.88 41.9 23.31 41.45 23.05 41.45 18.62"/><polygon class="cls-53" points="41.01 18.36 41.45 18.62 41.45 23.05 41.01 22.8 41.01 18.36"/><polygon class="cls-54" points="40.56 18.11 41 18.36 41 22.79 40.56 22.54 40.56 18.11"/><polygon class="cls-55" points="40.11 17.85 40.56 18.1 40.56 22.53 40.11 22.28 40.11 17.85"/><polygon class="cls-56" points="39.67 17.59 40.11 17.84 40.11 22.27 39.67 22.02 39.67 17.59"/><polygon class="cls-57" points="39.22 17.33 39.66 17.59 39.66 22.02 39.22 21.76 39.22 17.33"/><polygon class="cls-58" points="38.77 17.07 39.22 17.33 39.22 21.76 38.77 21.51 38.77 17.07"/><polygon class="cls-59" points="38.33 16.82 38.77 17.07 38.77 21.5 38.33 21.25 38.33 16.82"/><polygon class="cls-60" points="37.88 16.56 38.32 16.81 38.32 21.24 37.88 20.99 37.88 16.56"/><polygon class="cls-61" points="37.44 16.3 37.88 16.56 37.88 20.98 37.44 20.73 37.44 16.3"/><polygon class="cls-62" points="36.99 16.04 37.43 16.3 37.43 20.73 36.99 20.47 36.99 16.04"/><polygon class="cls-63" points="36.54 15.79 36.98 16.04 36.98 20.47 36.54 20.22 36.54 15.79"/><polygon class="cls-64" points="36.1 15.53 36.54 15.78 36.54 20.21 36.1 19.96 36.1 15.53"/><polygon class="cls-65" points="35.65 15.27 36.09 15.53 36.09 19.95 35.65 19.7 35.65 15.27"/><polygon class="cls-66" points="35.2 15.01 35.65 15.27 35.65 19.7 35.2 19.44 35.2 15.01"/><polygon class="cls-67" points="34.76 14.75 35.2 15.01 35.2 19.44 34.76 19.18 34.76 14.75"/><polygon class="cls-68" points="34.31 14.5 34.75 14.75 34.75 19.18 34.31 18.93 34.31 14.5"/><polygon class="cls-69" points="33.86 14.24 34.31 14.49 34.31 18.92 33.86 18.67 33.86 14.24"/><polygon class="cls-70" points="33.42 13.98 33.86 14.24 33.86 18.66 33.42 18.41 33.42 13.98"/><polygon class="cls-71" points="32.97 13.72 33.41 13.98 33.41 18.4 32.97 18.15 32.97 13.72"/><polygon class="cls-72" points="39.62 26.97 43.24 24.88 32.53 18.69 28.91 20.78 39.62 26.97"/><polygon class="cls-73" points="39.62 31.4 43.24 29.31 43.24 24.88 39.62 26.97 39.62 31.4"/><polygon class="cls-74" points="28.91 25.21 39.62 31.4 39.62 26.97 28.91 20.78 28.91 25.21"/><polygon class="cls-75" points="39.18 26.71 39.62 26.97 39.62 31.4 39.18 31.14 39.18 26.71"/><polygon class="cls-76" points="38.73 26.45 39.18 26.71 39.18 31.14 38.73 30.89 38.73 26.45"/><polygon class="cls-77" points="38.29 26.2 38.73 26.45 38.73 30.88 38.29 30.63 38.29 26.2"/><polygon class="cls-78" points="37.84 25.94 38.28 26.19 38.28 30.63 37.84 30.37 37.84 25.94"/><polygon class="cls-79" points="37.39 25.68 37.84 25.94 37.84 30.37 37.39 30.11 37.39 25.68"/><polygon class="cls-80" points="36.95 25.42 37.39 25.68 37.39 30.11 36.95 29.85 36.95 25.42"/><polygon class="cls-81" points="36.5 25.16 36.94 25.42 36.94 29.85 36.5 29.6 36.5 25.16"/><polygon class="cls-82" points="36.05 24.91 36.5 25.16 36.5 29.59 36.05 29.34 36.05 24.91"/><polygon class="cls-83" points="35.61 24.65 36.05 24.9 36.05 29.33 35.61 29.08 35.61 24.65"/><polygon class="cls-84" points="35.16 24.39 35.6 24.65 35.6 29.08 35.16 28.82 35.16 24.39"/><polygon class="cls-85" points="34.72 24.13 35.16 24.39 35.16 28.82 34.72 28.57 34.72 24.13"/><polygon class="cls-86" points="34.27 23.88 34.71 24.13 34.71 28.56 34.27 28.31 34.27 23.88"/><polygon class="cls-87" points="33.82 23.62 34.27 23.87 34.27 28.3 33.82 28.05 33.82 23.62"/><polygon class="cls-88" points="33.38 23.36 33.82 23.61 33.82 28.04 33.38 27.79 33.38 23.36"/><polygon class="cls-89" points="32.93 23.1 33.37 23.36 33.37 27.79 32.93 27.53 32.93 23.1"/><polygon class="cls-90" points="32.48 22.84 32.93 23.1 32.93 27.53 32.48 27.28 32.48 22.84"/><polygon class="cls-91" points="32.04 22.59 32.48 22.84 32.48 27.27 32.04 27.02 32.04 22.59"/><polygon class="cls-92" points="31.59 22.33 32.03 22.58 32.03 27.01 31.59 26.76 31.59 22.33"/><polygon class="cls-93" points="31.14 22.07 31.59 22.33 31.59 26.75 31.14 26.5 31.14 22.07"/><polygon class="cls-94" points="30.7 21.81 31.14 22.07 31.14 26.5 30.7 26.25 30.7 21.81"/><polygon class="cls-95" points="30.25 21.55 30.69 21.81 30.69 26.24 30.25 25.99 30.25 21.55"/><polygon class="cls-96" points="29.8 21.3 30.25 21.55 30.25 25.98 29.8 25.73 29.8 21.3"/><polygon class="cls-97" points="29.36 21.04 29.8 21.3 29.8 25.72 29.36 25.47 29.36 21.04"/><polygon class="cls-98" points="28.91 20.78 29.36 21.04 29.36 25.46 28.91 25.21 28.91 20.78"/><path class="cls-99" d="M29,25.24h0c-.05,0-6.15,5.35-3.26,6.31.06,0,13.1-.32,13.93-.14,0,0,0,0,0,0Z"/><polygon class="cls-100" points="39.62 22.34 43.24 20.25 32.53 14.06 28.91 16.15 39.62 22.34"/><polygon class="cls-101" points="39.62 26.77 43.24 24.68 43.24 20.25 39.62 22.34 39.62 26.77"/><polygon class="cls-102" points="28.91 20.59 39.62 26.77 39.62 22.34 28.91 16.15 28.91 20.59"/><polygon class="cls-103" points="39.18 22.08 39.62 22.34 39.62 26.77 39.18 26.51 39.18 22.08"/><polygon class="cls-104" points="38.73 21.82 39.18 22.08 39.18 26.51 38.73 26.26 38.73 21.82"/><polygon class="cls-105" points="38.29 21.57 38.73 21.82 38.73 26.25 38.29 26 38.29 21.57"/><polygon class="cls-106" points="37.84 21.31 38.28 21.57 38.28 26 37.84 25.74 37.84 21.31"/><polygon class="cls-107" points="37.39 21.05 37.84 21.31 37.84 25.74 37.39 25.48 37.39 21.05"/><polygon class="cls-108" points="36.95 20.79 37.39 21.05 37.39 25.48 36.95 25.23 36.95 20.79"/><polygon class="cls-109" points="36.5 20.54 36.94 20.79 36.94 25.22 36.5 24.97 36.5 20.54"/><polygon class="cls-110" points="36.05 20.28 36.5 20.53 36.5 24.96 36.05 24.71 36.05 20.28"/><polygon class="cls-111" points="35.61 20.02 36.05 20.28 36.05 24.71 35.61 24.45 35.61 20.02"/><polygon class="cls-112" points="35.16 19.76 35.6 20.02 35.6 24.45 35.16 24.19 35.16 19.76"/><polygon class="cls-113" points="34.72 19.5 35.16 19.76 35.16 24.19 34.72 23.94 34.72 19.5"/><polygon class="cls-114" points="34.27 19.25 34.71 19.5 34.71 23.93 34.27 23.68 34.27 19.25"/><polygon class="cls-115" points="33.82 18.99 34.27 19.24 34.27 23.67 33.82 23.42 33.82 18.99"/><polygon class="cls-116" points="33.38 18.73 33.82 18.99 33.82 23.41 33.38 23.16 33.38 18.73"/><polygon class="cls-117" points="32.93 18.47 33.37 18.73 33.37 23.16 32.93 22.91 32.93 18.47"/><polygon class="cls-118" points="32.48 18.21 32.93 18.47 32.93 22.9 32.48 22.65 32.48 18.21"/><polygon class="cls-119" points="32.04 17.96 32.48 18.21 32.48 22.64 32.04 22.39 32.04 17.96"/><polygon class="cls-120" points="31.59 17.7 32.03 17.95 32.03 22.38 31.59 22.13 31.59 17.7"/><polygon class="cls-121" points="31.14 17.44 31.59 17.7 31.59 22.13 31.14 21.87 31.14 17.44"/><polygon class="cls-122" points="30.7 17.18 31.14 17.44 31.14 21.87 30.7 21.62 30.7 17.18"/><polygon class="cls-123" points="30.25 16.93 30.69 17.18 30.69 21.61 30.25 21.36 30.25 16.93"/><polygon class="cls-124" points="29.8 16.67 30.25 16.92 30.25 21.35 29.8 21.1 29.8 16.67"/><polygon class="cls-125" points="29.36 16.41 29.8 16.67 29.8 21.09 29.36 20.84 29.36 16.41"/><polygon class="cls-126" points="28.91 16.15 29.36 16.41 29.36 20.84 28.91 20.59 28.91 16.15"/><polygon class="cls-127" points="20.17 9.62 23.79 7.53 13.07 1.34 9.46 3.43 20.17 9.62"/><polygon class="cls-128" points="20.17 14.05 23.79 11.96 23.79 7.53 20.17 9.62 20.17 14.05"/><polygon class="cls-129" points="9.46 7.86 20.17 14.05 20.17 9.62 9.46 3.43 9.46 7.86"/><polygon class="cls-130" points="19.73 9.36 20.17 9.62 20.17 14.05 19.73 13.79 19.73 9.36"/><polygon class="cls-131" points="19.28 9.1 19.72 9.36 19.72 13.79 19.28 13.53 19.28 9.1"/><polygon class="cls-132" points="18.83 8.85 19.28 9.1 19.28 13.53 18.83 13.28 18.83 8.85"/><polygon class="cls-133" points="18.39 8.59 18.83 8.84 18.83 13.27 18.39 13.02 18.39 8.59"/><polygon class="cls-134" points="17.94 8.33 18.38 8.59 18.38 13.02 17.94 12.76 17.94 8.33"/><polygon class="cls-135" points="17.5 8.07 17.94 8.33 17.94 12.76 17.5 12.5 17.5 8.07"/><polygon class="cls-136" points="17.05 7.81 17.49 8.07 17.49 12.5 17.05 12.24 17.05 7.81"/><polygon class="cls-137" points="16.6 7.56 17.05 7.81 17.05 12.24 16.6 11.99 16.6 7.56"/><polygon class="cls-138" points="16.16 7.3 16.6 7.55 16.6 11.98 16.16 11.73 16.16 7.3"/><polygon class="cls-139" points="15.71 7.04 16.15 7.3 16.15 11.73 15.71 11.47 15.71 7.04"/><polygon class="cls-140" points="15.26 6.78 15.71 7.04 15.71 11.47 15.26 11.21 15.26 6.78"/><polygon class="cls-141" points="14.82 6.52 15.26 6.78 15.26 11.21 14.82 10.96 14.82 6.52"/><polygon class="cls-142" points="14.37 6.27 14.81 6.52 14.81 10.95 14.37 10.7 14.37 6.27"/><polygon class="cls-143" points="13.92 6.01 14.37 6.26 14.37 10.69 13.92 10.44 13.92 6.01"/><polygon class="cls-144" points="13.48 5.75 13.92 6.01 13.92 10.44 13.48 10.18 13.48 5.75"/><polygon class="cls-145" points="13.03 5.49 13.47 5.75 13.47 10.18 13.03 9.93 13.03 5.49"/><polygon class="cls-146" points="12.58 5.24 13.03 5.49 13.03 9.92 12.58 9.67 12.58 5.24"/><polygon class="cls-147" points="12.14 4.98 12.58 5.23 12.58 9.66 12.14 9.41 12.14 4.98"/><polygon class="cls-148" points="11.69 4.72 12.13 4.97 12.13 9.4 11.69 9.15 11.69 4.72"/><polygon class="cls-149" points="11.24 4.46 11.69 4.72 11.69 9.14 11.24 8.89 11.24 4.46"/><polygon class="cls-150" points="10.8 4.2 11.24 4.46 11.24 8.89 10.8 8.64 10.8 4.2"/><polygon class="cls-151" points="10.35 3.95 10.79 4.2 10.79 8.63 10.35 8.38 10.35 3.95"/><polygon class="cls-152" points="9.91 3.69 10.35 3.94 10.35 8.37 9.91 8.12 9.91 3.69"/><polygon class="cls-153" points="9.46 3.43 9.9 3.69 9.9 8.11 9.46 7.86 9.46 3.43"/><path class="cls-154" d="M9.5,7.87h0c-.05,0-4.13,3-1.79,4.75,0,0,3.46,2,3.46,2,3.81-.31,8.5-.66,9-.55,0,0,0,0,0,0Z"/></g></g></g></svg>