<svg xmlns="http://www.w3.org/2000/svg" xmlns:xlink="http://www.w3.org/1999/xlink" viewBox="0 0 134.43 93.46"><defs><style>.cls-1{fill:url(#linear-gradient);}.cls-2{fill:#7314b9;}.cls-3{fill:#5b129b;}.cls-4{fill:url(#linear-gradient-2);}.cls-5{fill:#0050ff;}.cls-6{fill:url(#linear-gradient-3);}.cls-7{fill:#002dbc;}.cls-8{fill:url(#linear-gradient-4);}.cls-9{fill:url(#linear-gradient-5);}.cls-10{fill:url(#linear-gradient-6);}.cls-11{fill:#d3d3d3;}.cls-12{fill:url(#linear-gradient-7);}.cls-13{fill:url(#linear-gradient-8);}.cls-14{fill:#a0a0a0;}.cls-100,.cls-15,.cls-45{opacity:0.5;}.cls-15{fill:url(#linear-gradient-9);}.cls-16{fill:#4305d1;}.cls-17{fill:url(#linear-gradient-10);}.cls-18{fill:url(#linear-gradient-11);}.cls-19{fill:url(#linear-gradient-12);}.cls-20{fill:url(#linear-gradient-13);}.cls-21{fill:url(#linear-gradient-14);}.cls-22{fill:url(#linear-gradient-15);}.cls-23{fill:url(#linear-gradient-16);}.cls-24{fill:url(#linear-gradient-17);}.cls-25{fill:url(#linear-gradient-18);}.cls-26{fill:url(#linear-gradient-19);}.cls-27{fill:url(#linear-gradient-20);}.cls-28{fill:url(#linear-gradient-21);}.cls-29{fill:url(#linear-gradient-22);}.cls-30{fill:url(#linear-gradient-23);}.cls-31{fill:url(#linear-gradient-24);}.cls-32{fill:url(#linear-gradient-25);}.cls-33{fill:url(#linear-gradient-26);}.cls-34{fill:url(#linear-gradient-27);}.cls-35{fill:url(#linear-gradient-28);}.cls-36{fill:url(#linear-gradient-29);}.cls-37{fill:url(#linear-gradient-30);}.cls-38{fill:url(#linear-gradient-31);}.cls-39{fill:url(#linear-gradient-32);}.cls-40{fill:url(#linear-gradient-33);}.cls-41{fill:url(#linear-gradient-34);}.cls-42{fill:url(#linear-gradient-35);}.cls-43{fill:url(#linear-gradient-36);}.cls-44{fill:url(#linear-gradient-37);}.cls-45{fill:url(#linear-gradient-38);}.cls-46{fill:url(#linear-gradient-39);}.cls-47{fill:url(#linear-gradient-40);}.cls-48{fill:url(#linear-gradient-41);}.cls-49{fill:url(#linear-gradient-42);}.cls-50{fill:url(#linear-gradient-43);}.cls-51{fill:url(#linear-gradient-44);}.cls-52{fill:url(#linear-gradient-45);}.cls-53{fill:url(#linear-gradient-46);}.cls-54{fill:url(#linear-gradient-47);}.cls-55{fill:url(#linear-gradient-48);}.cls-56{fill:url(#linear-gradient-49);}.cls-57{fill:url(#linear-gradient-50);}.cls-58{fill:url(#linear-gradient-51);}.cls-59{fill:url(#linear-gradient-52);}.cls-60{fill:url(#linear-gradient-53);}.cls-61{fill:url(#linear-gradient-54);}.cls-62{fill:url(#linear-gradient-55);}.cls-63{fill:url(#linear-gradient-56);}.cls-64{fill:url(#linear-gradient-57);}.cls-65{fill:url(#linear-gradient-58);}.cls-66{fill:url(#linear-gradient-59);}.cls-67{fill:url(#linear-gradient-60);}.cls-68{fill:url(#linear-gradient-61);}.cls-69{fill:url(#linear-gradient-62);}.cls-70{fill:url(#linear-gradient-63);}.cls-71{fill:url(#linear-gradient-64);}.cls-72{fill:url(#linear-gradient-65);}.cls-73{fill:url(#linear-gradient-66);}.cls-74{fill:url(#linear-gradient-67);}.cls-75{fill:url(#linear-gradient-68);}.cls-76{fill:url(#linear-gradient-69);}.cls-77{fill:url(#linear-gradient-70);}.cls-78{fill:url(#linear-gradient-71);}.cls-79{fill:url(#linear-gradient-72);}.cls-80{fill:url(#linear-gradient-73);}.cls-81{fill:url(#linear-gradient-74);}.cls-82{fill:url(#linear-gradient-75);}.cls-83{fill:url(#linear-gradient-76);}.cls-84{fill:url(#linear-gradient-77);}.cls-85{fill:url(#linear-gradient-78);}.cls-86{fill:url(#linear-gradient-79);}.cls-87{fill:url(#linear-gradient-80);}.cls-88{fill:url(#linear-gradient-81);}.cls-89{fill:url(#linear-gradient-82);}.cls-90{fill:url(#linear-gradient-83);}.cls-91{fill:url(#linear-gradient-84);}.cls-92{fill:url(#linear-gradient-85);}.cls-93{fill:url(#linear-gradient-86);}.cls-94{fill:url(#linear-gradient-87);}.cls-95{fill:url(#linear-gradient-88);}.cls-96{fill:url(#linear-gradient-89);}.cls-97{fill:url(#linear-gradient-90);}.cls-98{fill:url(#linear-gradient-91);}.cls-99{fill:url(#linear-gradient-92);}.cls-100{fill:url(#linear-gradient-93);}</style><linearGradient id="linear-gradient" x1="24.49" y1="76.65" x2="107.9" y2="24.47" gradientUnits="userSpaceOnUse"><stop offset="0" stop-color="#2a13b7" stop-opacity="0"/><stop offset="0.46" stop-color="#5c18d8" stop-opacity="0.46"/></linearGradient><linearGradient id="linear-gradient-2" x1="79.69" y1="32.43" x2="133.61" y2="32.43" gradientUnits="userSpaceOnUse"><stop offset="0" stop-color="#961dff"/><stop offset="1" stop-color="#2a13b7"/></linearGradient><linearGradient id="linear-gradient-3" x1="100.99" y1="15.49" x2="120.47" y2="15.49" gradientUnits="userSpaceOnUse"><stop offset="0" stop-color="#0050ff"/><stop offset="1" stop-color="#3e84ff"/></linearGradient><linearGradient id="linear-gradient-4" x1="61.31" y1="22.67" x2="134.43" y2="22.67" xlink:href="#linear-gradient-3"/><linearGradient id="linear-gradient-5" x1="100.82" y1="14.67" x2="102.9" y2="8.21" gradientUnits="userSpaceOnUse"><stop offset="0" stop-color="#3e84ff"/><stop offset="1" stop-color="#0050ff"/></linearGradient><linearGradient id="linear-gradient-6" x1="118.24" y1="22.3" x2="120.32" y2="15.84" xlink:href="#linear-gradient-5"/><linearGradient id="linear-gradient-7" x1="85.97" y1="33.36" x2="87.5" y2="33.36" xlink:href="#linear-gradient-3"/><linearGradient id="linear-gradient-8" x1="84.15" y1="34.42" x2="85.68" y2="34.42" xlink:href="#linear-gradient-3"/><linearGradient id="linear-gradient-9" x1="74.99" y1="22.66" x2="76.61" y2="18.98" gradientUnits="userSpaceOnUse"><stop offset="0" stop-color="#201451" stop-opacity="0"/><stop offset="0.3" stop-color="#201451"/></linearGradient><linearGradient id="linear-gradient-10" x1="76.02" y1="25.66" x2="78.87" y2="25.66" gradientUnits="userSpaceOnUse"><stop offset="0" stop-color="#961dff"/><stop offset="1" stop-color="#5617d5"/></linearGradient><linearGradient id="linear-gradient-11" x1="-1975.59" y1="21.07" x2="-1961.27" y2="21.07" gradientTransform="matrix(-1, 0, 0, 1, -1870.54, 0)" xlink:href="#linear-gradient-3"/><linearGradient id="linear-gradient-12" x1="101.44" y1="26.38" x2="105.05" y2="26.38" xlink:href="#linear-gradient-10"/><linearGradient id="linear-gradient-13" x1="-1971.98" y1="24.33" x2="-1961.27" y2="24.33" gradientTransform="matrix(-1, 0, 0, 1, -1870.54, 0)" xlink:href="#linear-gradient-10"/><linearGradient id="linear-gradient-14" x1="-1971.98" y1="27.3" x2="-1971.54" y2="27.3" gradientTransform="matrix(-1, 0, 0, 1, -1870.54, 0)" xlink:href="#linear-gradient-10"/><linearGradient id="linear-gradient-15" x1="-1971.53" y1="27.04" x2="-1971.09" y2="27.04" gradientTransform="matrix(-1, 0, 0, 1, -1870.54, 0)" xlink:href="#linear-gradient-10"/><linearGradient id="linear-gradient-16" x1="-1971.08" y1="26.78" x2="-1970.64" y2="26.78" gradientTransform="matrix(-1, 0, 0, 1, -1870.54, 0)" xlink:href="#linear-gradient-10"/><linearGradient id="linear-gradient-17" x1="-1970.64" y1="26.53" x2="-1970.2" y2="26.53" gradientTransform="matrix(-1, 0, 0, 1, -1870.54, 0)" xlink:href="#linear-gradient-10"/><linearGradient id="linear-gradient-18" x1="-1970.19" y1="26.27" x2="-1969.75" y2="26.27" gradientTransform="matrix(-1, 0, 0, 1, -1870.54, 0)" xlink:href="#linear-gradient-10"/><linearGradient id="linear-gradient-19" x1="-1969.75" y1="26.01" x2="-1969.3" y2="26.01" gradientTransform="matrix(-1, 0, 0, 1, -1870.54, 0)" xlink:href="#linear-gradient-10"/><linearGradient id="linear-gradient-20" x1="-1969.3" y1="25.75" x2="-1968.86" y2="25.75" gradientTransform="matrix(-1, 0, 0, 1, -1870.54, 0)" xlink:href="#linear-gradient-10"/><linearGradient id="linear-gradient-21" x1="-1968.85" y1="25.49" x2="-1968.41" y2="25.49" gradientTransform="matrix(-1, 0, 0, 1, -1870.54, 0)" xlink:href="#linear-gradient-10"/><linearGradient id="linear-gradient-22" x1="-1968.41" y1="25.24" x2="-1967.96" y2="25.24" gradientTransform="matrix(-1, 0, 0, 1, -1870.54, 0)" xlink:href="#linear-gradient-10"/><linearGradient id="linear-gradient-23" x1="-1967.96" y1="24.98" x2="-1967.52" y2="24.98" gradientTransform="matrix(-1, 0, 0, 1, -1870.54, 0)" xlink:href="#linear-gradient-10"/><linearGradient id="linear-gradient-24" x1="-1967.51" y1="24.72" x2="-1967.07" y2="24.72" gradientTransform="matrix(-1, 0, 0, 1, -1870.54, 0)" xlink:href="#linear-gradient-10"/><linearGradient id="linear-gradient-25" x1="-1967.07" y1="24.46" x2="-1966.62" y2="24.46" gradientTransform="matrix(-1, 0, 0, 1, -1870.54, 0)" xlink:href="#linear-gradient-10"/><linearGradient id="linear-gradient-26" x1="-1966.62" y1="24.2" x2="-1966.18" y2="24.2" gradientTransform="matrix(-1, 0, 0, 1, -1870.54, 0)" xlink:href="#linear-gradient-10"/><linearGradient id="linear-gradient-27" x1="-1966.17" y1="23.95" x2="-1965.73" y2="23.95" gradientTransform="matrix(-1, 0, 0, 1, -1870.54, 0)" xlink:href="#linear-gradient-10"/><linearGradient id="linear-gradient-28" x1="-1965.73" y1="23.69" x2="-1965.28" y2="23.69" gradientTransform="matrix(-1, 0, 0, 1, -1870.54, 0)" xlink:href="#linear-gradient-10"/><linearGradient id="linear-gradient-29" x1="-1965.28" y1="23.43" x2="-1964.84" y2="23.43" gradientTransform="matrix(-1, 0, 0, 1, -1870.54, 0)" xlink:href="#linear-gradient-10"/><linearGradient id="linear-gradient-30" x1="-1964.83" y1="23.17" x2="-1964.39" y2="23.17" gradientTransform="matrix(-1, 0, 0, 1, -1870.54, 0)" xlink:href="#linear-gradient-10"/><linearGradient id="linear-gradient-31" x1="-1964.39" y1="22.91" x2="-1963.95" y2="22.91" gradientTransform="matrix(-1, 0, 0, 1, -1870.54, 0)" xlink:href="#linear-gradient-10"/><linearGradient id="linear-gradient-32" x1="-1963.94" y1="22.66" x2="-1963.5" y2="22.66" gradientTransform="matrix(-1, 0, 0, 1, -1870.54, 0)" xlink:href="#linear-gradient-10"/><linearGradient id="linear-gradient-33" x1="-1963.5" y1="22.4" x2="-1963.05" y2="22.4" gradientTransform="matrix(-1, 0, 0, 1, -1870.54, 0)" xlink:href="#linear-gradient-10"/><linearGradient id="linear-gradient-34" x1="-1963.05" y1="22.14" x2="-1962.61" y2="22.14" gradientTransform="matrix(-1, 0, 0, 1, -1870.54, 0)" xlink:href="#linear-gradient-10"/><linearGradient id="linear-gradient-35" x1="-1962.6" y1="21.88" x2="-1962.16" y2="21.88" gradientTransform="matrix(-1, 0, 0, 1, -1870.54, 0)" xlink:href="#linear-gradient-10"/><linearGradient id="linear-gradient-36" x1="-1962.16" y1="21.62" x2="-1961.71" y2="21.62" gradientTransform="matrix(-1, 0, 0, 1, -1870.54, 0)" xlink:href="#linear-gradient-10"/><linearGradient id="linear-gradient-37" x1="-1961.71" y1="21.37" x2="-1961.27" y2="21.37" gradientTransform="matrix(-1, 0, 0, 1, -1870.54, 0)" xlink:href="#linear-gradient-10"/><linearGradient id="linear-gradient-38" x1="89.55" y1="26.65" x2="102.02" y2="27.09" gradientUnits="userSpaceOnUse"><stop offset="0" stop-color="#201451" stop-opacity="0"/><stop offset="0.74" stop-color="#201451"/></linearGradient><linearGradient id="linear-gradient-39" x1="-1975.59" y1="16.45" x2="-1961.27" y2="16.45" gradientTransform="matrix(-1, 0, 0, 1, -1870.54, 0)" xlink:href="#linear-gradient-3"/><linearGradient id="linear-gradient-40" x1="101.44" y1="21.75" x2="105.05" y2="21.75" xlink:href="#linear-gradient-10"/><linearGradient id="linear-gradient-41" x1="-1971.98" y1="19.71" x2="-1961.27" y2="19.71" gradientTransform="matrix(-1, 0, 0, 1, -1870.54, 0)" xlink:href="#linear-gradient-10"/><linearGradient id="linear-gradient-42" x1="-1971.98" y1="22.67" x2="-1971.54" y2="22.67" gradientTransform="matrix(-1, 0, 0, 1, -1870.54, 0)" xlink:href="#linear-gradient-10"/><linearGradient id="linear-gradient-43" x1="-1971.53" y1="22.41" x2="-1971.09" y2="22.41" gradientTransform="matrix(-1, 0, 0, 1, -1870.54, 0)" xlink:href="#linear-gradient-10"/><linearGradient id="linear-gradient-44" x1="-1971.08" y1="22.15" x2="-1970.64" y2="22.15" gradientTransform="matrix(-1, 0, 0, 1, -1870.54, 0)" xlink:href="#linear-gradient-10"/><linearGradient id="linear-gradient-45" x1="-1970.64" y1="21.9" x2="-1970.2" y2="21.9" gradientTransform="matrix(-1, 0, 0, 1, -1870.54, 0)" xlink:href="#linear-gradient-10"/><linearGradient id="linear-gradient-46" x1="-1970.19" y1="21.64" x2="-1969.75" y2="21.64" gradientTransform="matrix(-1, 0, 0, 1, -1870.54, 0)" xlink:href="#linear-gradient-10"/><linearGradient id="linear-gradient-47" x1="-1969.75" y1="21.38" x2="-1969.3" y2="21.38" gradientTransform="matrix(-1, 0, 0, 1, -1870.54, 0)" xlink:href="#linear-gradient-10"/><linearGradient id="linear-gradient-48" x1="-1969.3" y1="21.12" x2="-1968.86" y2="21.12" gradientTransform="matrix(-1, 0, 0, 1, -1870.54, 0)" xlink:href="#linear-gradient-10"/><linearGradient id="linear-gradient-49" x1="-1968.85" y1="20.86" x2="-1968.41" y2="20.86" gradientTransform="matrix(-1, 0, 0, 1, -1870.54, 0)" xlink:href="#linear-gradient-10"/><linearGradient id="linear-gradient-50" x1="-1968.41" y1="20.61" x2="-1967.96" y2="20.61" gradientTransform="matrix(-1, 0, 0, 1, -1870.54, 0)" xlink:href="#linear-gradient-10"/><linearGradient id="linear-gradient-51" x1="-1967.96" y1="20.35" x2="-1967.52" y2="20.35" gradientTransform="matrix(-1, 0, 0, 1, -1870.54, 0)" xlink:href="#linear-gradient-10"/><linearGradient id="linear-gradient-52" x1="-1967.51" y1="20.09" x2="-1967.07" y2="20.09" gradientTransform="matrix(-1, 0, 0, 1, -1870.54, 0)" xlink:href="#linear-gradient-10"/><linearGradient id="linear-gradient-53" x1="-1967.07" y1="19.83" x2="-1966.62" y2="19.83" gradientTransform="matrix(-1, 0, 0, 1, -1870.54, 0)" xlink:href="#linear-gradient-10"/><linearGradient id="linear-gradient-54" x1="-1966.62" y1="19.58" x2="-1966.18" y2="19.58" gradientTransform="matrix(-1, 0, 0, 1, -1870.54, 0)" xlink:href="#linear-gradient-10"/><linearGradient id="linear-gradient-55" x1="-1966.17" y1="19.32" x2="-1965.73" y2="19.32" gradientTransform="matrix(-1, 0, 0, 1, -1870.54, 0)" xlink:href="#linear-gradient-10"/><linearGradient id="linear-gradient-56" x1="-1965.73" y1="19.06" x2="-1965.28" y2="19.06" gradientTransform="matrix(-1, 0, 0, 1, -1870.54, 0)" xlink:href="#linear-gradient-10"/><linearGradient id="linear-gradient-57" x1="-1965.28" y1="18.8" x2="-1964.84" y2="18.8" gradientTransform="matrix(-1, 0, 0, 1, -1870.54, 0)" xlink:href="#linear-gradient-10"/><linearGradient id="linear-gradient-58" x1="-1964.83" y1="18.54" x2="-1964.39" y2="18.54" gradientTransform="matrix(-1, 0, 0, 1, -1870.54, 0)" xlink:href="#linear-gradient-10"/><linearGradient id="linear-gradient-59" x1="-1964.39" y1="18.29" x2="-1963.95" y2="18.29" gradientTransform="matrix(-1, 0, 0, 1, -1870.54, 0)" xlink:href="#linear-gradient-10"/><linearGradient id="linear-gradient-60" x1="-1963.94" y1="18.03" x2="-1963.5" y2="18.03" gradientTransform="matrix(-1, 0, 0, 1, -1870.54, 0)" xlink:href="#linear-gradient-10"/><linearGradient id="linear-gradient-61" x1="-1963.5" y1="17.77" x2="-1963.05" y2="17.77" gradientTransform="matrix(-1, 0, 0, 1, -1870.54, 0)" xlink:href="#linear-gradient-10"/><linearGradient id="linear-gradient-62" x1="-1963.05" y1="17.51" x2="-1962.61" y2="17.51" gradientTransform="matrix(-1, 0, 0, 1, -1870.54, 0)" xlink:href="#linear-gradient-10"/><linearGradient id="linear-gradient-63" x1="-1962.6" y1="17.25" x2="-1962.16" y2="17.25" gradientTransform="matrix(-1, 0, 0, 1, -1870.54, 0)" xlink:href="#linear-gradient-10"/><linearGradient id="linear-gradient-64" x1="-1962.16" y1="17" x2="-1961.71" y2="17" gradientTransform="matrix(-1, 0, 0, 1, -1870.54, 0)" xlink:href="#linear-gradient-10"/><linearGradient id="linear-gradient-65" x1="-1961.71" y1="16.74" x2="-1961.27" y2="16.74" gradientTransform="matrix(-1, 0, 0, 1, -1870.54, 0)" xlink:href="#linear-gradient-10"/><linearGradient id="linear-gradient-66" x1="-1995.92" y1="5.42" x2="-1981.59" y2="5.42" gradientTransform="matrix(-1, 0, 0, 1, -1870.54, 0)" xlink:href="#linear-gradient-3"/><linearGradient id="linear-gradient-67" x1="121.76" y1="10.73" x2="125.38" y2="10.73" xlink:href="#linear-gradient-10"/><linearGradient id="linear-gradient-68" x1="-1992.3" y1="8.68" x2="-1981.59" y2="8.68" gradientTransform="matrix(-1, 0, 0, 1, -1870.54, 0)" xlink:href="#linear-gradient-10"/><linearGradient id="linear-gradient-69" x1="-1992.3" y1="11.65" x2="-1991.86" y2="11.65" gradientTransform="matrix(-1, 0, 0, 1, -1870.54, 0)" xlink:href="#linear-gradient-10"/><linearGradient id="linear-gradient-70" x1="-1991.86" y1="11.39" x2="-1991.41" y2="11.39" gradientTransform="matrix(-1, 0, 0, 1, -1870.54, 0)" xlink:href="#linear-gradient-10"/><linearGradient id="linear-gradient-71" x1="-1991.41" y1="11.13" x2="-1990.97" y2="11.13" gradientTransform="matrix(-1, 0, 0, 1, -1870.54, 0)" xlink:href="#linear-gradient-10"/><linearGradient id="linear-gradient-72" x1="-1990.96" y1="10.87" x2="-1990.52" y2="10.87" gradientTransform="matrix(-1, 0, 0, 1, -1870.54, 0)" xlink:href="#linear-gradient-10"/><linearGradient id="linear-gradient-73" x1="-1990.52" y1="10.62" x2="-1990.08" y2="10.62" gradientTransform="matrix(-1, 0, 0, 1, -1870.54, 0)" xlink:href="#linear-gradient-10"/><linearGradient id="linear-gradient-74" x1="-1990.07" y1="10.36" x2="-1989.63" y2="10.36" gradientTransform="matrix(-1, 0, 0, 1, -1870.54, 0)" xlink:href="#linear-gradient-10"/><linearGradient id="linear-gradient-75" x1="-1989.63" y1="10.1" x2="-1989.18" y2="10.1" gradientTransform="matrix(-1, 0, 0, 1, -1870.54, 0)" xlink:href="#linear-gradient-10"/><linearGradient id="linear-gradient-76" x1="-1989.18" y1="9.84" x2="-1988.74" y2="9.84" gradientTransform="matrix(-1, 0, 0, 1, -1870.54, 0)" xlink:href="#linear-gradient-10"/><linearGradient id="linear-gradient-77" x1="-1988.73" y1="9.58" x2="-1988.29" y2="9.58" gradientTransform="matrix(-1, 0, 0, 1, -1870.54, 0)" xlink:href="#linear-gradient-10"/><linearGradient id="linear-gradient-78" x1="-1988.29" y1="9.33" x2="-1987.84" y2="9.33" gradientTransform="matrix(-1, 0, 0, 1, -1870.54, 0)" xlink:href="#linear-gradient-10"/><linearGradient id="linear-gradient-79" x1="-1987.84" y1="9.07" x2="-1987.4" y2="9.07" gradientTransform="matrix(-1, 0, 0, 1, -1870.54, 0)" xlink:href="#linear-gradient-10"/><linearGradient id="linear-gradient-80" x1="-1987.39" y1="8.81" x2="-1986.95" y2="8.81" gradientTransform="matrix(-1, 0, 0, 1, -1870.54, 0)" xlink:href="#linear-gradient-10"/><linearGradient id="linear-gradient-81" x1="-1986.95" y1="8.55" x2="-1986.5" y2="8.55" gradientTransform="matrix(-1, 0, 0, 1, -1870.54, 0)" xlink:href="#linear-gradient-10"/><linearGradient id="linear-gradient-82" x1="-1986.5" y1="8.3" x2="-1986.06" y2="8.3" gradientTransform="matrix(-1, 0, 0, 1, -1870.54, 0)" xlink:href="#linear-gradient-10"/><linearGradient id="linear-gradient-83" x1="-1986.05" y1="8.04" x2="-1985.61" y2="8.04" gradientTransform="matrix(-1, 0, 0, 1, -1870.54, 0)" xlink:href="#linear-gradient-10"/><linearGradient id="linear-gradient-84" x1="-1985.61" y1="7.78" x2="-1985.16" y2="7.78" gradientTransform="matrix(-1, 0, 0, 1, -1870.54, 0)" xlink:href="#linear-gradient-10"/><linearGradient id="linear-gradient-85" x1="-1985.16" y1="7.52" x2="-1984.72" y2="7.52" gradientTransform="matrix(-1, 0, 0, 1, -1870.54, 0)" xlink:href="#linear-gradient-10"/><linearGradient id="linear-gradient-86" x1="-1984.71" y1="7.26" x2="-1984.27" y2="7.26" gradientTransform="matrix(-1, 0, 0, 1, -1870.54, 0)" xlink:href="#linear-gradient-10"/><linearGradient id="linear-gradient-87" x1="-1984.27" y1="7.01" x2="-1983.83" y2="7.01" gradientTransform="matrix(-1, 0, 0, 1, -1870.54, 0)" xlink:href="#linear-gradient-10"/><linearGradient id="linear-gradient-88" x1="-1983.82" y1="6.75" x2="-1983.38" y2="6.75" gradientTransform="matrix(-1, 0, 0, 1, -1870.54, 0)" xlink:href="#linear-gradient-10"/><linearGradient id="linear-gradient-89" x1="-1983.38" y1="6.49" x2="-1982.93" y2="6.49" gradientTransform="matrix(-1, 0, 0, 1, -1870.54, 0)" xlink:href="#linear-gradient-10"/><linearGradient id="linear-gradient-90" x1="-1982.93" y1="6.23" x2="-1982.49" y2="6.23" gradientTransform="matrix(-1, 0, 0, 1, -1870.54, 0)" xlink:href="#linear-gradient-10"/><linearGradient id="linear-gradient-91" x1="-1982.48" y1="5.97" x2="-1982.04" y2="5.97" gradientTransform="matrix(-1, 0, 0, 1, -1870.54, 0)" xlink:href="#linear-gradient-10"/><linearGradient id="linear-gradient-92" x1="-1982.04" y1="5.72" x2="-1981.59" y2="5.72" gradientTransform="matrix(-1, 0, 0, 1, -1870.54, 0)" xlink:href="#linear-gradient-10"/><linearGradient id="linear-gradient-93" x1="111.06" y1="11.15" x2="122.3" y2="11.54" xlink:href="#linear-gradient-38"/></defs><title>Ресурс 1</title><g id="Слой_2" data-name="Слой 2"><g id="Layer_1" data-name="Layer 1"><g id="comp"><polygon class="cls-1" points="27.62 93.46 117.27 31.93 102.45 23.36 0 73.21 13.84 83.35 27.62 93.46"/><line class="cls-2" x1="134.22" y1="16.93" x2="69.91" y2="56.47"/><polygon class="cls-3" points="79.69 53.45 66.85 46.03 61.31 34.42 80.24 45.35 79.69 53.45"/><path class="cls-4" d="M79.69,53.45l36.7-21h0c4.08-2.16,17.22-21,17.22-21L120.47,19l-1,3.67L80.24,45.35Z"/><polygon class="cls-5" points="61.31 34.42 80.24 45.35 119.51 22.67 100.99 11.98 61.31 34.42"/><path class="cls-5" d="M114.68.48,101.53,8.06,120.47,19l13.14-7.59L134.39,1a1,1,0,0,0-1-1Z"/><polygon class="cls-6" points="100.99 11.98 119.51 22.67 120.47 19 101.95 8.32 100.99 11.98"/><path class="cls-7" d="M115.31,2.7,103.75,9.33l-1,3.66-37,21.43,1.53.88,37-21.44.91-3.65,10.07-5.75,16.62-.41.13-1.77Z"/><path class="cls-8" d="M117.27,21.35l-37,21.42L67.3,35.3l-1.53-.88,37-21.43-2.22-1.27L61.31,34.42l1.53.88,17.4,10.05,39.27-22.68ZM114.68.48,101.53,8.06l2.22,1.27L115.31,2.7l16.18-.41a.52.52,0,0,1,.53.56l-.09,1.2-.46,6-13.16,7.69L120.47,19l13.14-7.59.72-9.65.1-1.21A.52.52,0,0,0,133.9,0Z"/><polygon class="cls-9" points="103.74 9.32 102.78 12.99 102.78 12.99 100.57 11.72 101.53 8.06 103.74 9.32"/><polygon class="cls-10" points="120.47 19 119.51 22.67 117.27 21.35 118.31 17.76 120.47 19"/><polygon class="cls-11" points="87.5 38.57 80.19 42.8 80.19 34.06 87.5 29.79 87.5 38.57"/><polygon class="cls-5" points="80.19 34.06 87.5 29.79 72.69 21.23 65.37 25.5 80.19 34.06"/><polygon class="cls-12" points="87.5 33.83 85.97 34.72 85.97 32.89 87.5 32 87.5 33.83"/><polygon class="cls-13" points="85.68 34.9 84.15 35.78 84.15 33.95 85.68 33.06 85.68 34.9"/><polygon class="cls-14" points="80.18 34.06 80.18 42.8 79.15 42.29 65.36 34.32 65.36 25.5 70.05 28.21 71.97 29.32 80.18 34.06"/><polygon class="cls-5" points="76.02 20.2 73.17 21.85 76.02 23.5 78.87 21.85 76.02 20.2"/><polygon class="cls-15" points="76.02 20.82 76.02 22.82 74.39 21.92 74.26 21.84 76.02 20.82"/><polygon class="cls-16" points="77.78 21.84 77.65 21.92 76.02 22.82 76.02 20.82 77.78 21.84"/><polygon class="cls-17" points="78.87 27.82 76.02 29.46 76.02 23.5 78.87 21.85 78.87 27.82"/><polygon class="cls-16" points="73.17 27.82 76.02 29.46 76.02 23.5 73.17 21.85 73.17 27.82"/><polygon class="cls-18" points="101.44 25.21 105.05 23.12 94.34 16.94 90.73 19.03 101.44 25.21"/><polygon class="cls-19" points="101.44 29.64 105.05 27.55 105.05 23.12 101.44 25.21 101.44 29.64"/><polygon class="cls-20" points="90.73 23.46 101.44 29.64 101.44 25.21 90.73 19.03 90.73 23.46"/><polygon class="cls-21" points="100.99 24.95 101.44 25.21 101.44 29.64 100.99 29.39 100.99 24.95"/><polygon class="cls-22" points="100.55 24.7 100.99 24.95 100.99 29.39 100.55 29.13 100.55 24.7"/><polygon class="cls-23" points="100.1 24.44 100.54 24.7 100.54 29.13 100.1 28.87 100.1 24.44"/><polygon class="cls-24" points="99.65 24.18 100.1 24.44 100.1 28.87 99.65 28.61 99.65 24.18"/><polygon class="cls-25" points="99.21 23.92 99.65 24.18 99.65 28.61 99.21 28.36 99.21 23.92"/><polygon class="cls-26" points="98.76 23.67 99.2 23.92 99.2 28.35 98.76 28.1 98.76 23.67"/><polygon class="cls-27" points="98.31 23.41 98.76 23.66 98.76 28.09 98.31 27.84 98.31 23.41"/><polygon class="cls-28" points="97.87 23.15 98.31 23.41 98.31 27.84 97.87 27.58 97.87 23.15"/><polygon class="cls-29" points="97.42 22.89 97.86 23.15 97.86 27.58 97.42 27.32 97.42 22.89"/><polygon class="cls-30" points="96.98 22.64 97.42 22.89 97.42 27.32 96.98 27.07 96.98 22.64"/><polygon class="cls-31" points="96.53 22.38 96.97 22.63 96.97 27.06 96.53 26.81 96.53 22.38"/><polygon class="cls-32" points="96.08 22.12 96.53 22.38 96.53 26.8 96.08 26.55 96.08 22.12"/><polygon class="cls-33" points="95.64 21.86 96.08 22.12 96.08 26.55 95.64 26.29 95.64 21.86"/><polygon class="cls-34" points="95.19 21.6 95.63 21.86 95.63 26.29 95.19 26.04 95.19 21.6"/><polygon class="cls-35" points="94.74 21.35 95.19 21.6 95.19 26.03 94.74 25.78 94.74 21.35"/><polygon class="cls-36" points="94.3 21.09 94.74 21.34 94.74 25.77 94.3 25.52 94.3 21.09"/><polygon class="cls-37" points="93.85 20.83 94.29 21.09 94.29 25.51 93.85 25.26 93.85 20.83"/><polygon class="cls-38" points="93.4 20.57 93.85 20.83 93.85 25.26 93.4 25 93.4 20.57"/><polygon class="cls-39" points="92.96 20.32 93.4 20.57 93.4 25 92.96 24.75 92.96 20.32"/><polygon class="cls-40" points="92.51 20.06 92.95 20.31 92.95 24.74 92.51 24.49 92.51 20.06"/><polygon class="cls-41" points="92.06 19.8 92.51 20.05 92.51 24.48 92.06 24.23 92.06 19.8"/><polygon class="cls-42" points="91.62 19.54 92.06 19.8 92.06 24.22 91.62 23.97 91.62 19.54"/><polygon class="cls-43" points="91.17 19.28 91.61 19.54 91.61 23.97 91.17 23.71 91.17 19.28"/><polygon class="cls-44" points="90.73 19.03 91.17 19.28 91.17 23.71 90.73 23.46 90.73 19.03"/><path class="cls-45" d="M90.77,23.48h0c-.06,0-6.15,5.36-3.27,6.31.07,0,13.11-.32,13.94-.13v0Z"/><polygon class="cls-46" points="101.44 20.58 105.05 18.5 94.34 12.31 90.73 14.4 101.44 20.58"/><polygon class="cls-47" points="101.44 25.02 105.05 22.93 105.05 18.5 101.44 20.58 101.44 25.02"/><polygon class="cls-48" points="90.73 18.83 101.44 25.02 101.44 20.58 90.73 14.4 90.73 18.83"/><polygon class="cls-49" points="100.99 20.33 101.44 20.58 101.44 25.02 100.99 24.76 100.99 20.33"/><polygon class="cls-50" points="100.55 20.07 100.99 20.32 100.99 24.76 100.55 24.5 100.55 20.07"/><polygon class="cls-51" points="100.1 19.81 100.54 20.07 100.54 24.5 100.1 24.24 100.1 19.81"/><polygon class="cls-52" points="99.65 19.55 100.1 19.81 100.1 24.24 99.65 23.98 99.65 19.55"/><polygon class="cls-53" points="99.21 19.3 99.65 19.55 99.65 23.98 99.21 23.73 99.21 19.3"/><polygon class="cls-54" points="98.76 19.04 99.2 19.29 99.2 23.72 98.76 23.47 98.76 19.04"/><polygon class="cls-55" points="98.31 18.78 98.76 19.04 98.76 23.47 98.31 23.21 98.31 18.78"/><polygon class="cls-56" points="97.87 18.52 98.31 18.78 98.31 23.21 97.87 22.95 97.87 18.52"/><polygon class="cls-57" points="97.42 18.26 97.86 18.52 97.86 22.95 97.42 22.7 97.42 18.26"/><polygon class="cls-58" points="96.98 18.01 97.42 18.26 97.42 22.69 96.98 22.44 96.98 18.01"/><polygon class="cls-59" points="96.53 17.75 96.97 18 96.97 22.43 96.53 22.18 96.53 17.75"/><polygon class="cls-60" points="96.08 17.49 96.53 17.75 96.53 22.18 96.08 21.92 96.08 17.49"/><polygon class="cls-61" points="95.64 17.23 96.08 17.49 96.08 21.92 95.64 21.66 95.64 17.23"/><polygon class="cls-62" points="95.19 16.98 95.63 17.23 95.63 21.66 95.19 21.41 95.19 16.98"/><polygon class="cls-63" points="94.74 16.72 95.19 16.97 95.19 21.4 94.74 21.15 94.74 16.72"/><polygon class="cls-64" points="94.3 16.46 94.74 16.71 94.74 21.14 94.3 20.89 94.3 16.46"/><polygon class="cls-65" points="93.85 16.2 94.29 16.46 94.29 20.89 93.85 20.63 93.85 16.2"/><polygon class="cls-66" points="93.4 15.94 93.85 16.2 93.85 20.63 93.4 20.38 93.4 15.94"/><polygon class="cls-67" points="92.96 15.69 93.4 15.94 93.4 20.37 92.96 20.12 92.96 15.69"/><polygon class="cls-68" points="92.51 15.43 92.95 15.68 92.95 20.11 92.51 19.86 92.51 15.43"/><polygon class="cls-69" points="92.06 15.17 92.51 15.43 92.51 19.85 92.06 19.6 92.06 15.17"/><polygon class="cls-70" points="91.62 14.91 92.06 15.17 92.06 19.59 91.62 19.34 91.62 14.91"/><polygon class="cls-71" points="91.17 14.65 91.61 14.91 91.61 19.34 91.17 19.09 91.17 14.65"/><polygon class="cls-72" points="90.73 14.4 91.17 14.65 91.17 19.08 90.73 18.83 90.73 14.4"/><polygon class="cls-73" points="121.76 9.56 125.38 7.47 114.67 1.29 111.05 3.38 121.76 9.56"/><polygon class="cls-74" points="121.76 13.99 125.38 11.9 125.38 7.47 121.76 9.56 121.76 13.99"/><polygon class="cls-75" points="111.05 7.81 121.76 13.99 121.76 9.56 111.05 3.38 111.05 7.81"/><polygon class="cls-76" points="121.32 9.3 121.76 9.56 121.76 13.99 121.32 13.74 121.32 9.3"/><polygon class="cls-77" points="120.87 9.05 121.32 9.3 121.32 13.73 120.87 13.48 120.87 9.05"/><polygon class="cls-78" points="120.43 8.79 120.87 9.04 120.87 13.48 120.43 13.22 120.43 8.79"/><polygon class="cls-79" points="119.98 8.53 120.42 8.79 120.42 13.22 119.98 12.96 119.98 8.53"/><polygon class="cls-80" points="119.53 8.27 119.98 8.53 119.98 12.96 119.53 12.71 119.53 8.27"/><polygon class="cls-81" points="119.09 8.02 119.53 8.27 119.53 12.7 119.09 12.45 119.09 8.02"/><polygon class="cls-82" points="118.64 7.76 119.08 8.01 119.08 12.44 118.64 12.19 118.64 7.76"/><polygon class="cls-83" points="118.19 7.5 118.64 7.75 118.64 12.19 118.19 11.93 118.19 7.5"/><polygon class="cls-84" points="117.75 7.24 118.19 7.5 118.19 11.93 117.75 11.67 117.75 7.24"/><polygon class="cls-85" points="117.3 6.98 117.74 7.24 117.74 11.67 117.3 11.42 117.3 6.98"/><polygon class="cls-86" points="116.86 6.73 117.3 6.98 117.3 11.41 116.86 11.16 116.86 6.73"/><polygon class="cls-87" points="116.41 6.47 116.85 6.72 116.85 11.15 116.41 10.9 116.41 6.47"/><polygon class="cls-88" points="115.96 6.21 116.41 6.47 116.41 10.89 115.96 10.64 115.96 6.21"/><polygon class="cls-89" points="115.52 5.95 115.96 6.21 115.96 10.64 115.52 10.38 115.52 5.95"/><polygon class="cls-90" points="115.07 5.7 115.51 5.95 115.51 10.38 115.07 10.13 115.07 5.7"/><polygon class="cls-91" points="114.62 5.44 115.07 5.69 115.07 10.12 114.62 9.87 114.62 5.44"/><polygon class="cls-92" points="114.18 5.18 114.62 5.43 114.62 9.86 114.18 9.61 114.18 5.18"/><polygon class="cls-93" points="113.73 4.92 114.17 5.18 114.17 9.61 113.73 9.35 113.73 4.92"/><polygon class="cls-94" points="113.28 4.66 113.73 4.92 113.73 9.35 113.28 9.1 113.28 4.66"/><polygon class="cls-95" points="112.84 4.41 113.28 4.66 113.28 9.09 112.84 8.84 112.84 4.41"/><polygon class="cls-96" points="112.39 4.15 112.83 4.4 112.83 8.83 112.39 8.58 112.39 4.15"/><polygon class="cls-97" points="111.94 3.89 112.39 4.15 112.39 8.57 111.94 8.32 111.94 3.89"/><polygon class="cls-98" points="111.5 3.63 111.94 3.89 111.94 8.31 111.5 8.06 111.5 3.63"/><polygon class="cls-99" points="111.05 3.38 111.49 3.63 111.49 8.06 111.05 7.81 111.05 3.38"/><path class="cls-100" d="M111.1,7.82h0s-4.13,3-1.78,4.74l3.45,2c3.81-.31,8.5-.67,9-.56,0,0,0,0,0,0Z"/></g></g></g></svg>