<?xml version="1.0" encoding="utf-8"?>
<!-- Generator: Adobe Illustrator 21.0.0, SVG Export Plug-In . SVG Version: 6.00 Build 0)  -->
<svg version="1.1" id="Layer_1" xmlns="http://www.w3.org/2000/svg" xmlns:xlink="http://www.w3.org/1999/xlink" x="0px" y="0px"
	 viewBox="0 0 26 26.1" style="enable-background:new 0 0 26 26.1;" xml:space="preserve">
<style type="text/css">
	.st0{fill-rule:evenodd;clip-rule:evenodd;fill:url(#SVGID_1_);}
</style>
<linearGradient id="SVGID_1_" gradientUnits="userSpaceOnUse" x1="-33.3851" y1="13.0277" x2="58.1732" y2="13.0277">
	<stop  offset="0" style="stop-color:#0090FF"/>
	<stop  offset="0.9995" style="stop-color:#F70544"/>
</linearGradient>
<path class="st0" d="M-33.4,8.4v9.2c0,3.8,3.1,6.9,6.9,6.9h9.2c3.8,0,6.9-3.1,6.9-6.9V8.4c0-3.8-3.1-6.9-6.9-6.9h-9.2
	C-30.3,1.5-33.4,4.6-33.4,8.4z M-16.1,14.3c0.5,0.5,1.1,1,1.6,1.6c0.2,0.3,0.4,0.5,0.6,0.8c0.2,0.4,0,0.9-0.4,0.9l-2.3,0
	c-0.6,0-1.1-0.2-1.5-0.6c-0.3-0.3-0.6-0.7-0.9-1c-0.1-0.1-0.3-0.3-0.4-0.4c-0.3-0.2-0.6-0.1-0.8,0.2c-0.2,0.3-0.2,0.7-0.2,1.1
	c0,0.5-0.2,0.7-0.7,0.7c-1.2,0.1-2.3-0.1-3.3-0.7c-0.9-0.5-1.6-1.3-2.2-2.1c-1.2-1.6-2.1-3.4-2.9-5.2c-0.2-0.4-0.1-0.6,0.4-0.6
	c0.8,0,1.5,0,2.3,0c0.3,0,0.5,0.2,0.6,0.5c0.4,1,0.9,2,1.5,2.9c0.2,0.2,0.3,0.5,0.6,0.6c0.3,0.2,0.5,0.1,0.6-0.2
	c0.1-0.2,0.1-0.4,0.1-0.6c0.1-0.7,0.1-1.4,0-2.1c-0.1-0.4-0.3-0.7-0.7-0.8c-0.2,0-0.2-0.1-0.1-0.3c0.2-0.2,0.4-0.4,0.7-0.4h2.6
	c0.4,0.1,0.5,0.3,0.6,0.7l0,2.9c0,0.2,0.1,0.6,0.4,0.7c0.2,0.1,0.4-0.1,0.5-0.3c0.6-0.7,1.1-1.5,1.5-2.3c0.2-0.4,0.3-0.7,0.5-1.1
	c0.1-0.3,0.3-0.4,0.6-0.4l2.5,0c0.1,0,0.2,0,0.2,0c0.4,0.1,0.5,0.3,0.4,0.7c-0.2,0.7-0.6,1.2-1,1.7c-0.4,0.6-0.9,1.1-1.3,1.7
	C-16.7,13.5-16.6,13.8-16.1,14.3L-16.1,14.3z M-16.1,14.3 M17.1,6.8H9.2c-1.3,0-2.3,1-2.3,2.3V17c0,1.3,1,2.3,2.3,2.3h7.9
	c1.3,0,2.3-1,2.3-2.3V9.1C19.4,7.8,18.3,6.8,17.1,6.8L17.1,6.8z M13.1,17.1C10.9,17.1,9,15.3,9,13c0-2.3,1.8-4.1,4.1-4.1
	c2.3,0,4.1,1.8,4.1,4.1C17.2,15.3,15.4,17.1,13.1,17.1L13.1,17.1z M17.4,9.8c-0.5,0-1-0.4-1-1c0-0.5,0.4-1,1-1c0.5,0,1,0.4,1,1
	C18.3,9.3,17.9,9.8,17.4,9.8L17.4,9.8z M17.4,9.8 M13.1,10.7c-1.3,0-2.4,1.1-2.4,2.4c0,1.3,1.1,2.4,2.4,2.4c1.3,0,2.4-1.1,2.4-2.4
	C15.5,11.7,14.4,10.7,13.1,10.7L13.1,10.7z M13.1,10.7 M1.6,8.4v9.2c0,3.8,3.1,6.9,6.9,6.9h9.2c3.8,0,6.9-3.1,6.9-6.9V8.4
	c0-3.8-3.1-6.9-6.9-6.9H8.5C4.7,1.5,1.6,4.6,1.6,8.4z M21.1,17c0,2.2-1.8,4-4,4H9.2c-2.2,0-4-1.8-4-4V9.1c0-2.2,1.8-4,4-4h7.9
	c2.2,0,4,1.8,4,4V17z M21.1,17 M35.4,8.5v9c0,3.8,3.1,6.9,6.9,6.9h9c3.8,0,6.9-3.1,6.9-6.9v-9c0-3.8-3.1-6.9-6.9-6.9h-9
	C38.5,1.6,35.4,4.7,35.4,8.5z M50.5,7.9h-1.8c-0.4,0-0.7,0.4-0.7,0.6v1.8h2.5c-0.1,1.4-0.3,2.7-0.3,2.7H48v7.9h-3.3V13h-1.6v-2.7
	h1.6V8.2c0-0.4-0.1-3.1,3.4-3.1h2.4V7.9z M50.5,7.9"/>
</svg>
