<?xml version="1.0" encoding="utf-8"?>
<!-- Generator: Adobe Illustrator 21.0.0, SVG Export Plug-In . SVG Version: 6.00 Build 0)  -->
<svg version="1.1" id="Layer_1" xmlns="http://www.w3.org/2000/svg" xmlns:xlink="http://www.w3.org/1999/xlink" x="0px" y="0px"
	 viewBox="0 0 26 26.1" style="enable-background:new 0 0 26 26.1;" xml:space="preserve">
<style type="text/css">
	.st0{fill-rule:evenodd;clip-rule:evenodd;fill:url(#SVGID_1_);}
</style>
<linearGradient id="SVGID_1_" gradientUnits="userSpaceOnUse" x1="1.6149" y1="13.0277" x2="93.1732" y2="13.0277">
	<stop  offset="0" style="stop-color:#0090FF"/>
	<stop  offset="0.9995" style="stop-color:#F70544"/>
</linearGradient>
<path class="st0" d="M1.6,8.4v9.2c0,3.8,3.1,6.9,6.9,6.9h9.2c3.8,0,6.9-3.1,6.9-6.9V8.4c0-3.8-3.1-6.9-6.9-6.9H8.5
	C4.7,1.5,1.6,4.6,1.6,8.4z M18.9,14.3c0.5,0.5,1.1,1,1.6,1.6c0.2,0.3,0.4,0.5,0.6,0.8c0.2,0.4,0,0.9-0.4,0.9l-2.3,0
	c-0.6,0-1.1-0.2-1.5-0.6c-0.3-0.3-0.6-0.7-0.9-1c-0.1-0.1-0.3-0.3-0.4-0.4c-0.3-0.2-0.6-0.1-0.8,0.2c-0.2,0.3-0.2,0.7-0.2,1.1
	c0,0.5-0.2,0.7-0.7,0.7c-1.2,0.1-2.3-0.1-3.3-0.7c-0.9-0.5-1.6-1.3-2.2-2.1C7,13.1,6.1,11.3,5.2,9.5C5,9.1,5.2,8.8,5.6,8.8
	c0.8,0,1.5,0,2.3,0c0.3,0,0.5,0.2,0.6,0.5c0.4,1,0.9,2,1.5,2.9c0.2,0.2,0.3,0.5,0.6,0.6c0.3,0.2,0.5,0.1,0.6-0.2
	c0.1-0.2,0.1-0.4,0.1-0.6c0.1-0.7,0.1-1.4,0-2.1c-0.1-0.4-0.3-0.7-0.7-0.8c-0.2,0-0.2-0.1-0.1-0.3c0.2-0.2,0.4-0.4,0.7-0.4h2.6
	c0.4,0.1,0.5,0.3,0.6,0.7l0,2.9c0,0.2,0.1,0.6,0.4,0.7c0.2,0.1,0.4-0.1,0.5-0.3c0.6-0.7,1.1-1.5,1.5-2.3c0.2-0.4,0.3-0.7,0.5-1.1
	c0.1-0.3,0.3-0.4,0.6-0.4l2.5,0c0.1,0,0.2,0,0.2,0C21,8.9,21.2,9.1,21,9.5c-0.2,0.7-0.6,1.2-1,1.7c-0.4,0.6-0.9,1.1-1.3,1.7
	C18.3,13.5,18.4,13.8,18.9,14.3L18.9,14.3z M18.9,14.3 M52.1,6.8h-7.9c-1.3,0-2.3,1-2.3,2.3V17c0,1.3,1,2.3,2.3,2.3h7.9
	c1.3,0,2.3-1,2.3-2.3V9.1C54.4,7.8,53.3,6.8,52.1,6.8L52.1,6.8z M48.1,17.1c-2.3,0-4.1-1.8-4.1-4.1c0-2.3,1.8-4.1,4.1-4.1
	c2.3,0,4.1,1.8,4.1,4.1C52.2,15.3,50.4,17.1,48.1,17.1L48.1,17.1z M52.4,9.8c-0.5,0-1-0.4-1-1c0-0.5,0.4-1,1-1c0.5,0,1,0.4,1,1
	C53.3,9.3,52.9,9.8,52.4,9.8L52.4,9.8z M52.4,9.8 M48.1,10.7c-1.3,0-2.4,1.1-2.4,2.4c0,1.3,1.1,2.4,2.4,2.4c1.3,0,2.4-1.1,2.4-2.4
	C50.5,11.7,49.4,10.7,48.1,10.7L48.1,10.7z M48.1,10.7 M36.6,8.4v9.2c0,3.8,3.1,6.9,6.9,6.9h9.2c3.8,0,6.9-3.1,6.9-6.9V8.4
	c0-3.8-3.1-6.9-6.9-6.9h-9.2C39.7,1.5,36.6,4.6,36.6,8.4z M56.1,17c0,2.2-1.8,4-4,4h-7.9c-2.2,0-4-1.8-4-4V9.1c0-2.2,1.8-4,4-4h7.9
	c2.2,0,4,1.8,4,4V17z M56.1,17 M70.4,8.5v9c0,3.8,3.1,6.9,6.9,6.9h9c3.8,0,6.9-3.1,6.9-6.9v-9c0-3.8-3.1-6.9-6.9-6.9h-9
	C73.5,1.6,70.4,4.7,70.4,8.5z M85.5,7.9h-1.8c-0.4,0-0.7,0.4-0.7,0.6v1.8h2.5c-0.1,1.4-0.3,2.7-0.3,2.7H83v7.9h-3.3V13h-1.6v-2.7
	h1.6V8.2c0-0.4-0.1-3.1,3.4-3.1h2.4V7.9z M85.5,7.9"/>
</svg>
